<svg width="64" height="64" viewBox="0 0 64 64" fill="none" xmlns="http://www.w3.org/2000/svg">
<circle cx="32" cy="32" r="32" fill="#FFFAE9"/>
<path d="M31.4018 12.2869C33.637 12.048 36.1302 12.3567 38.0164 13.4775C40.238 14.8283 41.8408 16.9968 42.4804 19.5169C42.8608 21.0917 42.9885 22.717 42.8589 24.3319C42.8315 24.7549 42.6707 28.2673 42.1104 28.2609H41.2814L30.7738 28.1383L25.1827 28.0748C24.802 28.0748 24.2966 28.1954 23.9372 28.0897C23.4296 27.9395 23.0109 27.2015 22.7508 26.7786C22.0657 25.6578 21.7083 24.3573 21.4821 23.0695C21.3092 22.0341 21.2131 20.9873 21.1945 19.9377C21.1797 19.0919 21.2304 18.1826 21.7083 17.4763C22.1862 16.77 23.2245 16.3788 23.9202 16.8715C24.0112 16.0996 24.6984 15.4589 25.2588 14.9556C25.7464 14.5223 26.273 14.135 26.8321 13.7989C27.9066 13.1488 29.0869 12.6922 30.3191 12.4498C30.6659 12.3821 31.0297 12.3271 31.4018 12.2869Z" fill="#725858"/>
<path d="M42.1167 28.4725L25.189 28.2779C25.0512 28.2794 24.9135 28.2886 24.7767 28.3054C24.4812 28.3538 24.1793 28.3466 23.8864 28.2843C23.3324 28.1193 22.9094 27.4236 22.6303 26.9647L22.5795 26.8802C21.9663 25.8778 21.5582 24.6767 21.2938 23.0949C21.1185 22.0498 21.021 20.9931 21.002 19.9336C20.9872 19.037 21.0422 18.1044 21.5518 17.3495C21.8709 16.8893 22.3561 16.5709 22.9052 16.4613C23.202 16.4002 23.5103 16.4281 23.7912 16.5417C24.0027 15.8016 24.6773 15.2031 25.1383 14.7908C25.6287 14.3513 26.1589 13.9584 26.7221 13.6171C27.8167 12.9528 29.0201 12.4875 30.2768 12.2426C30.6384 12.1728 31.0106 12.1178 31.3849 12.0777C33.9119 11.807 36.3712 12.2511 38.1306 13.2957C40.4019 14.6732 42.0403 16.8889 42.6919 19.4641C43.0815 21.0597 43.2122 22.7076 43.0789 24.3447V24.4737C42.8526 28.1489 42.4656 28.4725 42.1167 28.4725ZM25.1658 27.855H25.1869L42.0913 28.0495C42.1717 27.9734 42.4677 27.4892 42.6433 24.4547V24.3236C42.7729 22.7292 42.6465 21.1243 42.269 19.5698C41.6444 17.1029 40.0753 14.9802 37.9001 13.6594C36.2084 12.6613 33.8548 12.2363 31.4166 12.4964C31.0529 12.5365 30.6913 12.5894 30.3424 12.6592C29.1343 12.8937 27.9773 13.3404 26.9251 13.9787C26.3869 14.3094 25.8807 14.6896 25.4132 15.1143C24.9416 15.5372 24.2269 16.1716 24.1444 16.8969C24.1398 16.9332 24.1259 16.9676 24.104 16.9969C24.0822 17.0262 24.0531 17.0493 24.0196 17.064C23.9856 17.0794 23.9482 17.0856 23.911 17.0819C23.8739 17.0782 23.8384 17.0647 23.8082 17.0428C23.6851 16.9609 23.5467 16.9046 23.4014 16.8774C23.256 16.8501 23.1067 16.8525 22.9623 16.8842C22.5243 16.9723 22.1376 17.2271 21.8838 17.5948C21.4398 18.2524 21.3911 19.1067 21.4059 19.9336C21.4248 20.9725 21.5202 22.0087 21.6914 23.0336C21.9473 24.5604 22.3385 25.715 22.9221 26.6687L22.9729 26.7533C23.2034 27.1339 23.5903 27.7704 23.9879 27.8867C24.2286 27.9285 24.4747 27.9285 24.7153 27.8867C24.876 27.8698 25.0262 27.855 25.1658 27.855Z" fill="#003D31"/>
<path d="M43.21 44.1569V48.0077C42.1832 48.8403 41.0626 49.55 39.871 50.1223C39.472 50.3155 39.0646 50.4917 38.6487 50.651C37.9002 50.9427 37.1312 51.1788 36.348 51.3573C36.1196 51.4123 35.8912 51.4588 35.6586 51.499C35.1807 51.5906 34.695 51.6611 34.2016 51.7104C33.7787 51.7548 33.3346 51.7781 32.8927 51.7866C32.7742 51.7866 32.6579 51.7866 32.5395 51.7866C32.4211 51.7866 32.29 51.7866 32.1673 51.7866C31.7317 51.7781 31.3017 51.7527 30.8774 51.7104C30.3854 51.6639 29.8997 51.5934 29.4204 51.499C29.1878 51.4588 28.9594 51.4123 28.731 51.3573C27.9486 51.1794 27.1803 50.944 26.4324 50.6531C26.018 50.4924 25.6105 50.3162 25.2102 50.1245C24.0185 49.5521 22.8979 48.8424 21.8712 48.0098V44.1569C21.8712 39.4053 25.1023 35.5504 29.0905 35.5504H35.9885C39.9788 35.5504 43.21 39.4053 43.21 44.1569Z" fill="#5CE4CA"/>
<path d="M32.5416 52C32.4147 52 32.2879 52 32.1631 52C31.7402 52 31.294 51.9662 30.8584 51.9218C30.3699 51.8752 29.8729 51.8054 29.3781 51.7103C29.1307 51.6659 28.9023 51.6194 28.6803 51.5665C27.8885 51.3853 27.1111 51.1464 26.3542 50.8517C25.9313 50.6847 25.5083 50.5049 25.1171 50.3167C23.91 49.7356 22.7745 49.016 21.7337 48.1725C21.7094 48.1528 21.6898 48.128 21.6763 48.0999C21.6628 48.0717 21.6557 48.0409 21.6555 48.0097V44.1568C21.6555 39.2931 24.9881 35.3387 29.0863 35.3387H35.9843C40.0824 35.3387 43.4151 39.2952 43.4151 44.1568V48.0076C43.4149 48.0388 43.4078 48.0696 43.3942 48.0977C43.3807 48.1259 43.3611 48.1507 43.3369 48.1704C42.296 49.0139 41.1606 49.7335 39.9534 50.3146C39.5665 50.5028 39.1499 50.6826 38.7164 50.8496C37.9595 51.1443 37.182 51.3832 36.3903 51.5644C36.1682 51.6172 35.9398 51.6638 35.6903 51.7082C35.2018 51.7991 34.7049 51.8689 34.2101 51.9196C33.7871 51.964 33.3473 51.9894 32.8863 51.9979C32.7806 51.9979 32.6622 52 32.5416 52ZM22.0847 47.9061C23.0779 48.702 24.1583 49.3824 25.3053 49.934C25.6838 50.1159 26.0899 50.2914 26.5107 50.4563C27.249 50.7434 28.0073 50.9759 28.7797 51.152C28.9911 51.2028 29.2174 51.2493 29.4585 51.2916C29.9385 51.3804 30.4228 51.4502 30.9007 51.5031C31.3236 51.5475 31.7465 51.5728 32.1694 51.5792C32.4084 51.5792 32.6452 51.5792 32.8842 51.5792C33.3367 51.5792 33.7702 51.5453 34.1762 51.5031C34.6563 51.4586 35.1405 51.3889 35.6184 51.2916C35.8616 51.2493 36.0836 51.2028 36.2972 51.152C37.0697 50.9765 37.8281 50.744 38.5662 50.4563C38.9892 50.2914 39.3952 50.1159 39.7737 49.934C40.9207 49.3824 42.0011 48.702 42.9943 47.9061V44.1568C42.9943 39.5278 39.8498 35.7617 35.9864 35.7617H29.0926C25.2292 35.7617 22.0847 39.5278 22.0847 44.1568V47.9061Z" fill="#003D31"/>
<path d="M31.0001 35.7573V34.072H33.9267V35.7573" fill="#FFC9B0"/>
<path d="M33.9267 35.9688C33.8706 35.9688 33.8168 35.9465 33.7772 35.9068C33.7375 35.8672 33.7152 35.8134 33.7152 35.7573V34.2771H31.2115V35.7573C31.2115 35.8134 31.1892 35.8672 31.1496 35.9068C31.1099 35.9465 31.0561 35.9688 31 35.9688C30.944 35.9688 30.8902 35.9465 30.8505 35.9068C30.8109 35.8672 30.7886 35.8134 30.7886 35.7573V34.0656C30.7886 34.0095 30.8109 33.9557 30.8505 33.9161C30.8902 33.8764 30.944 33.8541 31 33.8541H33.9267C33.9828 33.8541 34.0366 33.8764 34.0762 33.9161C34.1159 33.9557 34.1382 34.0095 34.1382 34.0656V35.7573C34.1382 35.8134 34.1159 35.8672 34.0762 35.9068C34.0366 35.9465 33.9828 35.9688 33.9267 35.9688Z" fill="#003D31"/>
<path d="M24.1 28.9208C25.6708 28.9208 26.9442 27.8235 26.9442 26.4699C26.9442 25.1163 25.6708 24.019 24.1 24.019C22.5292 24.019 21.2558 25.1163 21.2558 26.4699C21.2558 27.8235 22.5292 28.9208 24.1 28.9208Z" fill="#FFC9B0"/>
<path d="M24.1 29.1322C22.4083 29.1322 21.0443 27.9374 21.0443 26.4698C21.0443 25.0023 22.4146 23.8096 24.1 23.8096C25.7853 23.8096 27.1535 25.0023 27.1535 26.4698C27.1535 27.9374 25.7748 29.1322 24.1 29.1322ZM24.1 24.2326C22.6472 24.2326 21.4672 25.237 21.4672 26.4698C21.4672 27.7027 22.6472 28.7093 24.1 28.7093C25.5527 28.7093 26.7306 27.7048 26.7306 26.4698C26.7306 25.2349 25.5506 24.2326 24.1 24.2326Z" fill="#003D31"/>
<path d="M40.6766 28.9208C42.2475 28.9208 43.5208 27.8235 43.5208 26.4699C43.5208 25.1163 42.2475 24.019 40.6766 24.019C39.1058 24.019 37.8325 25.1163 37.8325 26.4699C37.8325 27.8235 39.1058 28.9208 40.6766 28.9208Z" fill="#FFC9B0"/>
<path d="M40.6766 29.1322C38.9849 29.1322 37.621 27.9374 37.621 26.4698C37.621 25.0023 38.9913 23.8096 40.6766 23.8096C42.362 23.8096 43.7302 25.0023 43.7302 26.4698C43.7302 27.9374 42.3599 29.1322 40.6766 29.1322ZM40.6766 24.2326C39.2239 24.2326 38.0439 25.237 38.0439 26.4698C38.0439 27.7027 39.2239 28.7093 40.6766 28.7093C42.1294 28.7093 43.3072 27.7048 43.3072 26.4698C43.3072 25.2349 42.1273 24.2326 40.6766 24.2326Z" fill="#003D31"/>
<path d="M32.4634 34.4569C30.1886 34.4569 28.007 33.5533 26.3986 31.9448C24.7901 30.3363 23.8864 28.1547 23.8864 25.8799V22.7629C23.8864 20.6018 24.635 19.1004 26.4684 19.0179C28.3018 18.9355 32.6685 21.6084 35.6607 21.6697C36.8957 21.6929 40.776 20.1345 40.8775 22.3379L41.0383 25.8905C41.036 28.1632 40.1316 30.3421 38.5237 31.9484C36.9159 33.5547 34.7361 34.4569 32.4634 34.4569Z" fill="#FFC9B0"/>
<path d="M32.4634 34.6683C30.1334 34.6655 27.8996 33.7387 26.2521 32.0911C24.6045 30.4436 23.6777 28.2098 23.6749 25.8798V22.7629C23.6749 20.257 24.6392 18.8888 26.4599 18.8064C27.329 18.7683 28.6803 19.3012 30.2493 19.9166C32.0426 20.6207 34.0747 21.4201 35.6649 21.4476C36.1144 21.4163 36.5602 21.3456 36.9972 21.2361C38.2533 20.9823 39.8181 20.6672 40.6068 21.2826C40.7585 21.4069 40.8804 21.5635 40.9638 21.7409C41.0472 21.9183 41.09 22.1122 41.089 22.3082L41.2497 25.8629C41.2514 28.1955 40.3268 30.4332 38.6793 32.0844C37.0317 33.7355 34.7959 34.6649 32.4634 34.6683ZM26.5424 19.2314H26.4705C24.8908 19.3012 24.0894 20.5002 24.0894 22.765V25.882C24.0718 26.9916 24.2751 28.0936 24.6875 29.1239C25.0999 30.1542 25.7132 31.0921 26.4917 31.8831C27.2702 32.674 28.1982 33.3021 29.2218 33.7309C30.2454 34.1597 31.3441 34.3805 32.4539 34.3805C33.5636 34.3805 34.6623 34.1597 35.6859 33.7309C36.7095 33.3021 37.6375 32.674 38.416 31.8831C39.1945 31.0921 39.8078 30.1542 40.2202 29.1239C40.6326 28.0936 40.836 26.9916 40.8183 25.882L40.6576 22.3378C40.6611 22.2028 40.6341 22.0687 40.5784 21.9457C40.5227 21.8226 40.4399 21.7138 40.3362 21.6273C39.7018 21.1325 38.1835 21.4391 37.0733 21.6611C36.6064 21.775 36.13 21.8458 35.6501 21.8726C33.9838 21.8451 31.9114 21.0267 30.0865 20.312C28.6782 19.7537 27.3375 19.2272 26.5508 19.2272L26.5424 19.2314Z" fill="#003D31"/>
<path d="M25.2123 50.3357C25.1562 50.3357 25.1024 50.3134 25.0627 50.2737C25.0231 50.2341 25.0008 50.1803 25.0008 50.1242V42.1816C25.0008 42.1255 25.0231 42.0717 25.0627 42.0321C25.1024 41.9924 25.1562 41.9702 25.2123 41.9702C25.2683 41.9702 25.3221 41.9924 25.3618 42.0321C25.4014 42.0717 25.4237 42.1255 25.4237 42.1816V50.12C25.4243 50.1481 25.4192 50.1761 25.4089 50.2022C25.3985 50.2283 25.383 50.2522 25.3633 50.2722C25.3436 50.2923 25.3201 50.3083 25.2942 50.3192C25.2682 50.3301 25.2404 50.3357 25.2123 50.3357Z" fill="#003D31"/>
<path d="M39.8709 50.3357C39.8149 50.3357 39.7611 50.3134 39.7214 50.2737C39.6818 50.2341 39.6595 50.1803 39.6595 50.1242V42.1816C39.6595 42.1255 39.6818 42.0717 39.7214 42.0321C39.7611 41.9924 39.8149 41.9702 39.8709 41.9702C39.927 41.9702 39.9808 41.9924 40.0205 42.0321C40.0601 42.0717 40.0824 42.1255 40.0824 42.1816V50.12C40.083 50.1481 40.0779 50.1761 40.0675 50.2022C40.0572 50.2283 40.0417 50.2522 40.022 50.2722C40.0023 50.2923 39.9788 50.3083 39.9529 50.3192C39.9269 50.3301 39.8991 50.3357 39.8709 50.3357Z" fill="#003D31"/>
<path d="M35.3647 35.5504L33.8992 44.25L32.7171 51.2706L31.3299 43.9983L29.7186 35.5504H35.3647Z" fill="white"/>
<path d="M32.7171 51.486C32.6673 51.4869 32.6189 51.4703 32.5802 51.4389C32.5415 51.4076 32.5151 51.3636 32.5057 51.3147L29.5071 35.5945C29.5011 35.5636 29.5021 35.5317 29.51 35.5012C29.5179 35.4707 29.5325 35.4424 29.5528 35.4183C29.5731 35.3941 29.5985 35.3748 29.6272 35.3618C29.6558 35.3488 29.6871 35.3423 29.7186 35.3429H35.3646C35.3952 35.3429 35.4254 35.3495 35.4531 35.3623C35.4809 35.375 35.5055 35.3937 35.5254 35.4169C35.5457 35.4404 35.5607 35.4682 35.5691 35.4981C35.5775 35.5281 35.5792 35.5596 35.574 35.5903L32.9265 51.3105C32.9179 51.3602 32.8919 51.4051 32.8531 51.4373C32.8144 51.4695 32.7654 51.4868 32.715 51.486H32.7171ZM29.9681 35.7658L32.6981 50.0777L35.1088 35.7658H29.9681Z" fill="#003D31"/>
<path d="M33.8992 44.2497L32.7172 51.2703L31.33 43.9981L32.2223 36.2289L32.2371 36.1041V36.0999H32.8462V36.1041L32.861 36.2289L33.8992 44.2497Z" fill="#FFFAA4"/>
<path d="M32.7171 51.4861C32.6674 51.487 32.6189 51.4703 32.5802 51.4389C32.5415 51.4076 32.5151 51.3636 32.5057 51.3148L31.1185 44.0425C31.1153 44.0215 31.1153 44.0001 31.1185 43.9791L32.0257 36.0872C32.0299 36.0341 32.0541 35.9846 32.0933 35.9485C32.1325 35.9125 32.1839 35.8925 32.2371 35.8927H32.8461C32.9022 35.8927 32.956 35.915 32.9957 35.9546C33.0353 35.9943 33.0576 36.0481 33.0576 36.1042L33.0703 36.2078L34.1086 44.2265C34.1107 44.2476 34.1107 44.2688 34.1086 44.2899L32.9265 51.3105C32.9179 51.3602 32.8919 51.4052 32.8532 51.4373C32.8144 51.4695 32.7654 51.4868 32.715 51.4861H32.7171ZM31.5435 43.9939L32.7045 50.0777L33.6857 44.2498L32.6579 36.3156H32.4253L31.5435 43.9939Z" fill="#003D31"/>
<path d="M33.1338 35.677H31.9052C31.5653 35.677 31.2898 35.9525 31.2898 36.2924V37.3962C31.2898 37.7361 31.5653 38.0116 31.9052 38.0116H33.1338C33.4736 38.0116 33.7491 37.7361 33.7491 37.3962V36.2924C33.7491 35.9525 33.4736 35.677 33.1338 35.677Z" fill="#FFFAA4"/>
<path d="M33.1359 38.2229H31.9073C31.6883 38.2229 31.4784 38.1361 31.3234 37.9815C31.1684 37.8269 31.081 37.6172 31.0804 37.3982V36.2902C31.081 36.0712 31.1684 35.8615 31.3234 35.7069C31.4784 35.5523 31.6883 35.4655 31.9073 35.4655H33.138C33.3569 35.4655 33.5669 35.5523 33.7219 35.7069C33.8769 35.8615 33.9643 36.0712 33.9648 36.2902V37.3982C33.9645 37.5068 33.9429 37.6143 33.9011 37.7145C33.8593 37.8147 33.7981 37.9057 33.7211 37.9823C33.6442 38.0588 33.5529 38.1195 33.4524 38.1608C33.352 38.2021 33.2445 38.2232 33.1359 38.2229ZM31.9052 35.8968C31.7984 35.8968 31.696 35.9391 31.6203 36.0144C31.5446 36.0897 31.5018 36.1919 31.5013 36.2986V37.4067C31.5018 37.5134 31.5446 37.6156 31.6203 37.6909C31.696 37.7662 31.7984 37.8085 31.9052 37.8085H33.1359C33.2426 37.8085 33.345 37.7662 33.4207 37.6909C33.4964 37.6156 33.5392 37.5134 33.5398 37.4067V36.2986C33.5392 36.1919 33.4964 36.0897 33.4207 36.0144C33.345 35.9391 33.2426 35.8968 33.1359 35.8968H31.9052Z" fill="#003D31"/>
<path d="M28.6718 26.7173C29.0864 26.7173 29.4225 26.3812 29.4225 25.9666C29.4225 25.552 29.0864 25.2159 28.6718 25.2159C28.2572 25.2159 27.9211 25.552 27.9211 25.9666C27.9211 26.3812 28.2572 26.7173 28.6718 26.7173Z" fill="#003D31"/>
<path d="M36.4114 26.7173C36.826 26.7173 37.1621 26.3812 37.1621 25.9666C37.1621 25.552 36.826 25.2159 36.4114 25.2159C35.9968 25.2159 35.6607 25.552 35.6607 25.9666C35.6607 26.3812 35.9968 26.7173 36.4114 26.7173Z" fill="#003D31"/>
<path d="M32.5416 28.7008C32.298 28.699 32.0548 28.6792 31.8141 28.6416C31.7868 28.6367 31.7607 28.6265 31.7372 28.6116C31.7138 28.5966 31.6936 28.5772 31.6777 28.5544C31.6618 28.5316 31.6505 28.5059 31.6445 28.4788C31.6386 28.4517 31.638 28.4236 31.6429 28.3963C31.6477 28.3689 31.6579 28.3428 31.6729 28.3194C31.6878 28.2959 31.7072 28.2757 31.73 28.2598C31.7528 28.2439 31.7785 28.2326 31.8056 28.2267C31.8328 28.2207 31.8608 28.2201 31.8882 28.225C32.2643 28.2857 32.6476 28.2857 33.0237 28.225C33.0893 28.0304 32.8123 27.2057 32.3893 26.4233C32.3756 26.3987 32.367 26.3716 32.364 26.3435C32.3609 26.3155 32.3635 26.2872 32.3715 26.2601C32.3796 26.2331 32.393 26.208 32.4109 26.1862C32.4288 26.1645 32.4509 26.1465 32.4758 26.1334C32.5008 26.1203 32.5281 26.1123 32.5562 26.1099C32.5843 26.1075 32.6125 26.1107 32.6394 26.1194C32.6662 26.1281 32.691 26.1421 32.7123 26.1605C32.7337 26.1789 32.7511 26.2014 32.7636 26.2267C32.9751 26.6179 33.6095 27.9311 33.398 28.4132C33.3742 28.4659 33.3385 28.5124 33.2937 28.5491C33.249 28.5857 33.1964 28.6116 33.14 28.6247C32.9443 28.6741 32.7434 28.6996 32.5416 28.7008Z" fill="#003D31"/>
<path d="M32.5416 31.213C30.4862 31.213 29.6762 30.919 29.6424 30.9084C29.5897 30.8885 29.547 30.8485 29.5238 30.7971C29.5006 30.7458 29.4988 30.6873 29.5187 30.6346C29.5386 30.5819 29.5787 30.5392 29.63 30.516C29.6814 30.4928 29.7398 30.491 29.7926 30.5109C29.7926 30.5109 30.5792 30.79 32.5416 30.79C34.504 30.79 35.2906 30.513 35.2906 30.5109C35.3433 30.4913 35.4017 30.4934 35.4529 30.5168C35.504 30.5402 35.5438 30.5829 35.5634 30.6357C35.583 30.6884 35.5809 30.7467 35.5575 30.7979C35.5341 30.8491 35.4914 30.8888 35.4386 30.9084C35.4069 30.919 34.597 31.213 32.5416 31.213Z" fill="#003D31"/>
<path d="M29.9512 23.911H26.4684C26.3792 23.911 26.2937 23.8756 26.2306 23.8126C26.1676 23.7495 26.1321 23.664 26.1321 23.5748C26.1321 23.4856 26.1676 23.4001 26.2306 23.3371C26.2937 23.274 26.3792 23.2386 26.4684 23.2386H29.9512C30.0404 23.2386 30.1259 23.274 30.1889 23.3371C30.252 23.4001 30.2874 23.4856 30.2874 23.5748C30.2874 23.664 30.252 23.7495 30.1889 23.8126C30.1259 23.8756 30.0404 23.911 29.9512 23.911Z" fill="#003D31"/>
<path d="M38.6149 23.911H35.1321C35.0429 23.911 34.9574 23.8756 34.8943 23.8126C34.8313 23.7495 34.7958 23.664 34.7958 23.5748C34.7958 23.4856 34.8313 23.4001 34.8943 23.3371C34.9574 23.274 35.0429 23.2386 35.1321 23.2386H38.6149C38.704 23.2386 38.7896 23.274 38.8526 23.3371C38.9157 23.4001 38.9511 23.4856 38.9511 23.5748C38.9511 23.664 38.9157 23.7495 38.8526 23.8126C38.7896 23.8756 38.704 23.911 38.6149 23.911Z" fill="#003D31"/>
<path d="M26.221 46.9671C26.1649 46.9671 26.1111 46.9449 26.0715 46.9052C26.0318 46.8655 26.0095 46.8118 26.0095 46.7557V42.9493C26.0095 42.8932 26.0318 42.8394 26.0715 42.7998C26.1111 42.7601 26.1649 42.7379 26.221 42.7379C26.2771 42.7379 26.3309 42.7601 26.3705 42.7998C26.4102 42.8394 26.4324 42.8932 26.4324 42.9493V46.7557C26.4324 46.8118 26.4102 46.8655 26.3705 46.9052C26.3309 46.9449 26.2771 46.9671 26.221 46.9671Z" fill="#003D31"/>
</svg>
