<svg width="26" height="26" viewBox="0 0 26 26" fill="none" xmlns="http://www.w3.org/2000/svg">
<path d="M13 25C19.6274 25 25 19.6274 25 13C25 6.37258 19.6274 1 13 1C6.37258 1 1 6.37258 1 13C1 19.6274 6.37258 25 13 25Z" fill="#FFFAA4" stroke="#003D31" stroke-width="1.5" stroke-miterlimit="10" stroke-linecap="round" stroke-linejoin="round"/>
<path d="M13 25C16.5567 25 19.44 19.6274 19.44 13C19.44 6.37258 16.5567 1 13 1C9.44328 1 6.56 6.37258 6.56 13C6.56 19.6274 9.44328 25 13 25Z" stroke="#003D31" stroke-width="1.5" stroke-miterlimit="10" stroke-linecap="round" stroke-linejoin="round"/>
<path d="M2 17.8H24M2 8.2H24M13 1V25" stroke="#003D31" stroke-width="1.5" stroke-miterlimit="10" stroke-linecap="round" stroke-linejoin="round"/>
</svg>
