<svg width="58" height="56" viewBox="0 0 58 56" fill="none" xmlns="http://www.w3.org/2000/svg">
<path d="M57.2468 28.3059H0.577209V55.4228H57.2468V28.3059Z" fill="#FF7D7D"/>
<path d="M57.2467 56H0.577201C0.424117 56 0.277304 55.9392 0.169058 55.8309C0.0608116 55.7227 0 55.5759 0 55.4228V28.2944C0 28.1413 0.0608116 27.9945 0.169058 27.8862C0.277304 27.778 0.424117 27.7172 0.577201 27.7172H57.2467C57.3998 27.7172 57.5466 27.778 57.6549 27.8862C57.7631 27.9945 57.8239 28.1413 57.8239 28.2944V55.4228C57.8239 55.5759 57.7631 55.7227 57.6549 55.8309C57.5466 55.9392 57.3998 56 57.2467 56ZM1.1544 54.8456H56.6695V28.8716H1.1544V54.8456Z" fill="#003D31"/>
<path d="M17.2006 15.4229H0.577209V28.306H17.2006V15.4229Z" fill="#FF7D7D"/>
<path d="M17.2064 28.8831H0.577201C0.424117 28.8831 0.277304 28.8223 0.169058 28.7141C0.0608116 28.6058 0 28.459 0 28.3059V15.3997C0 15.2466 0.0608116 15.0998 0.169058 14.9916C0.277304 14.8833 0.424117 14.8225 0.577201 14.8225H17.2064C17.3594 14.8225 17.5062 14.8833 17.6145 14.9916C17.7227 15.0998 17.7836 15.2466 17.7836 15.3997V28.2828C17.7867 28.3605 17.774 28.4381 17.7464 28.5108C17.7188 28.5835 17.6768 28.6499 17.6229 28.706C17.569 28.762 17.5043 28.8066 17.4327 28.8371C17.3611 28.8675 17.2841 28.8832 17.2064 28.8831ZM1.1544 27.7287H16.6292V15.9769H1.1544V27.7287Z" fill="#003D31"/>
<path d="M0.577209 41.1833C0.577209 41.57 57.2468 41.1833 57.2468 41.1833H0.577209Z" fill="#FF7D7D"/>
<path d="M14.6782 41.9509C0.525249 41.9509 0.386721 41.8124 0.184701 41.6104C0.130162 41.5569 0.0867747 41.4931 0.0570508 41.4228C0.027327 41.3525 0.0118557 41.2769 0.0115387 41.2005C0.011235 41.1072 0.0335882 41.0151 0.0766737 40.9323C0.119759 40.8495 0.182295 40.7783 0.258916 40.725C0.335537 40.6716 0.423956 40.6377 0.516589 40.626C0.609222 40.6143 0.703303 40.6253 0.790763 40.658C2.93795 40.935 42.1876 40.7272 57.2583 40.6233C57.4114 40.6233 57.5582 40.6841 57.6664 40.7924C57.7747 40.9006 57.8355 41.0475 57.8355 41.2005C57.8355 41.3536 57.7747 41.5004 57.6664 41.6087C57.5582 41.7169 57.4114 41.7777 57.2583 41.7777C57.1198 41.7777 43.0245 41.8701 29.0678 41.922C23.1169 41.9509 18.4011 41.9509 14.6782 41.9509Z" fill="#003D31"/>
<path d="M29.5526 28.3059C29.4545 28.3059 29.5526 41.1833 29.5526 41.1833V28.3059Z" fill="#FF7D7D"/>
<path d="M29.5527 41.7604C29.3996 41.7604 29.2528 41.6996 29.1445 41.5914C29.0363 41.4831 28.9755 41.3363 28.9755 41.1832C28.8773 28.1674 28.912 28.1327 29.1429 27.9076C29.1968 27.8541 29.2608 27.8118 29.3311 27.7831C29.4014 27.7544 29.4767 27.7398 29.5527 27.7402C29.7058 27.7402 29.8526 27.8011 29.9608 27.9093C30.0691 28.0175 30.1299 28.1644 30.1299 28.3174C30.1359 28.3596 30.1359 28.4023 30.1299 28.4444C30.0779 29.1717 30.1299 36.4156 30.1299 41.189C30.1299 41.3421 30.0691 41.4889 29.9608 41.5972C29.8526 41.7054 29.7058 41.7662 29.5527 41.7662V41.7604Z" fill="#003D31"/>
<path d="M17.2064 56C17.0533 56 16.9065 55.9392 16.7982 55.831C16.69 55.7227 16.6292 55.5759 16.6292 55.4228V41.3738C16.6292 41.2207 16.69 41.0739 16.7982 40.9656C16.9065 40.8574 17.0533 40.7966 17.2064 40.7966C17.3594 40.7966 17.5062 40.8574 17.6145 40.9656C17.7227 41.0739 17.7836 41.2207 17.7836 41.3738V55.4401C17.779 55.5902 17.7162 55.7326 17.6085 55.8371C17.5007 55.9417 17.3565 56.0001 17.2064 56Z" fill="#003D31"/>
<path d="M40.1962 0.577148H15.2496C14.577 0.577148 14.0317 1.12241 14.0317 1.79503V11.417C14.0317 12.0896 14.577 12.6349 15.2496 12.6349H40.1962C40.8689 12.6349 41.4141 12.0896 41.4141 11.417V1.79503C41.4141 1.12241 40.8689 0.577148 40.1962 0.577148Z" fill="#FF7D7D"/>
<path d="M40.1962 13.2064H15.2554C14.7808 13.2064 14.3257 13.0178 13.9902 12.6823C13.6546 12.3467 13.4661 11.8916 13.4661 11.417V1.78933C13.4661 1.31477 13.6546 0.859647 13.9902 0.524084C14.3257 0.188521 14.7808 9.31098e-06 15.2554 9.31098e-06H40.2078C40.4432 -0.000750249 40.6765 0.0449692 40.8943 0.134551C41.1121 0.224133 41.31 0.355811 41.4768 0.52204C41.6435 0.68827 41.7758 0.885781 41.8661 1.10325C41.9564 1.32072 42.0029 1.55386 42.0029 1.78933V11.417C42.0029 11.6535 41.956 11.8876 41.865 12.1058C41.774 12.324 41.6407 12.5221 41.4727 12.6884C41.3047 12.8548 41.1054 12.9863 40.8863 13.0751C40.6672 13.164 40.4327 13.2086 40.1962 13.2064ZM15.2554 1.15441C15.087 1.15441 14.9255 1.2213 14.8064 1.34037C14.6874 1.45944 14.6205 1.62093 14.6205 1.78933V11.417C14.6205 11.5854 14.6874 11.7469 14.8064 11.866C14.9255 11.9851 15.087 12.0519 15.2554 12.0519H40.2078C40.3767 12.052 40.5388 11.9853 40.6588 11.8663C40.7788 11.7474 40.8469 11.586 40.8485 11.417V1.78933C40.8469 1.62041 40.7788 1.45892 40.6588 1.34002C40.5388 1.22111 40.3767 1.1544 40.2078 1.15441H15.2554Z" fill="#003D31"/>
</svg>
