<svg width="110" height="56" viewBox="0 0 110 56" fill="none" xmlns="http://www.w3.org/2000/svg">
<path d="M9.26894 0H90.8826C96.0017 0 100.152 4.14985 100.152 9.26894V46.6046C100.152 46.8165 100.144 47.0267 100.13 47.235C104.38 51.0546 109.551 55.7066 109.718 55.8735C110.001 56.1568 91.0596 55.8761 90.8839 55.8735H9.26894C4.14984 55.8735 0 51.7237 0 46.6046V9.26894C0 4.14985 4.14984 0 9.26894 0Z" fill="#FF7D7D"/>
<path fill-rule="evenodd" clip-rule="evenodd" d="M98.8743 47.7452L98.914 47.1534C98.9262 46.9721 98.9324 46.7892 98.9324 46.6046V9.26894C98.9324 4.82321 95.3284 1.21922 90.8826 1.21922H9.26894C4.8232 1.21922 1.21922 4.8232 1.21922 9.26894V46.6046C1.21922 51.0503 4.8232 54.6543 9.26894 54.6543H90.8928L90.9046 54.6545C91.0608 54.6568 95.8001 54.7267 100.482 54.7615C102.743 54.7783 104.984 54.7869 106.689 54.7758C106.364 54.4829 106.012 54.1658 105.639 53.83C103.795 52.1691 101.44 50.0515 99.3154 48.1418L98.8743 47.7452ZM108.482 54.7513C108.603 54.8607 108.717 54.9633 108.822 55.0587C109.352 55.5379 109.678 55.8336 109.718 55.8735C109.726 55.8818 109.718 55.8896 109.694 55.8969C109.587 55.9302 109.161 55.954 108.504 55.9703C108.356 55.974 108.195 55.9773 108.023 55.9803C103.44 56.0589 91.1402 55.8773 90.8866 55.8736L90.8839 55.8735H9.26894C4.14984 55.8735 0 51.7237 0 46.6046V9.26894C0 4.14985 4.14984 0 9.26894 0H90.8826C96.0017 0 100.152 4.14985 100.152 9.26894V46.6046C100.152 46.8165 100.144 47.0267 100.13 47.235C103.163 49.9607 106.664 53.1102 108.482 54.7513Z" fill="#003D31"/>
<path d="M25.8887 43.2015C35.5528 43.2015 43.3871 35.3672 43.3871 25.7031C43.3871 16.039 35.5528 8.20471 25.8887 8.20471C16.2246 8.20471 8.39032 16.039 8.39032 25.7031C8.39032 35.3672 16.2246 43.2015 25.8887 43.2015Z" fill="white"/>
<path d="M18.6493 16.3723C18.4416 18.7755 18.741 21.1955 19.5279 23.4756C19.7241 24.141 20.0666 24.7541 20.5303 25.27C21.1316 25.7747 21.867 26.0929 22.6464 26.1858C23.8944 26.4269 25.1622 26.5512 26.4332 26.557C27.7485 26.6725 29.0626 26.3221 30.1458 25.567C31.3833 24.5275 31.2471 23.2281 31.804 21.8545C32.2371 20.8026 33.4004 20.4685 33.8088 19.3176C33.9907 18.7208 34.0372 18.0908 33.9449 17.4737C33.8014 15.7942 33.1201 14.2058 32.002 12.9444C31.2523 12.2529 30.3732 11.7165 29.4154 11.3661C28.4575 11.0156 27.4398 10.8581 26.4208 10.9026C24.5151 10.9026 22.4237 10.4075 22.2257 12.7959C21.8791 12.6998 21.5148 12.6867 21.1621 12.7576C20.8095 12.8286 20.4786 12.9816 20.1962 13.2043C19.2985 14.0267 18.7458 15.1587 18.6493 16.3723Z" fill="white"/>
<path d="M26.5817 27.2004H26.4208C25.1122 27.1857 23.8075 27.0532 22.5227 26.8044C21.6074 26.7054 20.7441 26.3299 20.0476 25.7278C19.4999 25.1469 19.1008 24.4421 18.8844 23.6735C18.0603 21.2906 17.7523 18.7596 17.981 16.2485C18.0942 14.8719 18.7322 13.5915 19.763 12.6721C20.3058 12.2558 20.9724 12.0336 21.6564 12.041C22.1762 10.0609 24.1314 10.1352 25.6164 10.2094H26.3961C27.506 10.1485 28.6168 10.3133 29.6612 10.6941C30.7056 11.0748 31.6619 11.6636 32.4722 12.4246C33.6915 13.803 34.4298 15.5402 34.576 17.3746C34.6823 18.0872 34.6274 18.8146 34.4151 19.5031C34.149 20.1342 33.7224 20.6845 33.1776 21.0995C32.8488 21.3571 32.5787 21.682 32.3856 22.0524C32.2388 22.4565 32.1189 22.8699 32.0267 23.2899C31.8745 24.3603 31.3485 25.3422 30.5417 26.0619C29.3905 26.8827 27.993 27.2845 26.5817 27.2004ZM19.2928 16.4589C19.085 18.7617 19.372 21.0823 20.1343 23.2652C20.2939 23.8379 20.5817 24.3668 20.9758 24.812C21.4849 25.2276 22.1042 25.4856 22.7578 25.5545C23.9814 25.7911 25.2241 25.9154 26.4703 25.9258C27.648 26.02 28.8235 25.7196 29.8116 25.0719C30.4021 24.5289 30.7758 23.7903 30.8635 22.9929C30.9691 22.5171 31.1097 22.0497 31.2842 21.5945C31.5387 21.0359 31.9252 20.5475 32.4104 20.1714C32.7902 19.8912 33.0891 19.5155 33.2766 19.0824C33.4295 18.5774 33.4675 18.0447 33.388 17.5231C33.2586 15.9797 32.6385 14.5182 31.6183 13.3527C30.177 12.1203 28.3139 11.4948 26.4208 11.6078H25.5917C23.6612 11.5212 22.9682 11.6078 22.8568 12.932C22.8511 13.0278 22.8236 13.1211 22.7765 13.2048C22.7293 13.2884 22.6636 13.3602 22.5845 13.4146C22.5055 13.4677 22.4159 13.5029 22.3218 13.5179C22.2278 13.5329 22.1316 13.5272 22.04 13.5012C21.7953 13.4318 21.5376 13.4214 21.288 13.4709C21.0385 13.5203 20.8043 13.6283 20.6045 13.7858C19.8287 14.5029 19.359 15.4912 19.2928 16.5455V16.4589Z" fill="#003D31"/>
<path d="M22.1808 29.2047L21.5302 29.1174L21.6189 29.7678L23.3566 42.5142C18.7547 41.8271 14.7544 39.2948 12.1336 35.6923C12.1792 35.5865 12.2248 35.492 12.27 35.4086L12.2702 35.4083C12.7672 34.4909 13.64 33.5679 14.7073 32.6905C15.769 31.8177 16.9939 31.0138 18.1616 30.3279C19.328 29.6427 20.4288 29.0802 21.2384 28.6888C21.643 28.4933 21.9741 28.3409 22.2034 28.2376C22.3181 28.1859 22.4073 28.1466 22.4674 28.1203L22.4719 28.1184L22.493 28.1179C22.5695 28.1159 22.6824 28.1134 22.8274 28.1108C23.1175 28.1057 23.5355 28.1006 24.046 28.1008C25.0675 28.1012 26.4563 28.1227 27.9283 28.2071C29.4024 28.2916 30.9488 28.4385 32.2892 28.6872C33.6515 28.9399 34.7199 29.2843 35.3043 29.7175C35.8477 30.1256 36.5046 30.9579 37.1786 32.1855C37.8146 33.3441 38.4452 34.8165 38.997 36.5259C37.4097 38.4462 35.4088 40.0116 33.1314 41.0858L31.2689 30.7747L31.2042 30.4164L30.8434 30.368L22.1808 29.2047Z" stroke="#003D31"/>
<path d="M30.814 25.7155L31.6679 30.418C31.352 31.273 30.7616 31.9991 29.9891 32.4828C29.2166 32.9664 28.3055 33.1804 27.3985 33.091C26.4769 32.967 25.5941 32.6409 24.8133 32.136C24.0324 31.6312 23.3728 30.96 22.8815 30.1705L21.9905 21.5079C21.9905 21.5079 24.1438 20.0601 22.9434 15.1967C25.5648 16.0077 28.3563 16.0975 31.0244 15.4565C31.0244 15.4565 32.9796 20.6541 32.8559 23.0672C32.8791 23.6778 32.6876 24.2772 32.3145 24.7611C31.9414 25.245 31.4104 25.5827 30.814 25.7155Z" fill="white"/>
<path d="M27.9553 33.7716C27.741 33.7829 27.5262 33.7829 27.3118 33.7716C26.2923 33.6209 25.3191 33.245 24.4629 32.6714C23.6067 32.0977 22.889 31.3406 22.3618 30.4551C22.3224 30.3829 22.3012 30.3022 22.2999 30.2199L21.4089 21.5574C21.398 21.4436 21.4188 21.329 21.4691 21.2264C21.5193 21.1237 21.597 21.0369 21.6935 20.9757C21.6935 20.9757 23.426 19.6269 22.3742 15.3327C22.3493 15.2213 22.3545 15.1052 22.3893 14.9965C22.4241 14.8878 22.4872 14.7903 22.5722 14.714C22.6571 14.6352 22.7624 14.5818 22.8762 14.5599C22.9899 14.538 23.1076 14.5485 23.2157 14.5902C25.72 15.3463 28.3796 15.4274 30.9253 14.8253C31.076 14.7912 31.234 14.8124 31.3703 14.8851C31.5066 14.9579 31.6122 15.0772 31.6678 15.2213C31.7545 15.4441 33.6726 20.5674 33.5489 23.0919C33.5592 23.7419 33.3798 24.3808 33.0325 24.9303C32.6852 25.4798 32.1851 25.9161 31.5936 26.1857L32.3485 30.3437C32.3726 30.4538 32.3726 30.5678 32.3485 30.6778C32.0154 31.5775 31.4171 32.355 30.6327 32.9074C29.8482 33.4598 28.9147 33.7611 27.9553 33.7716ZM23.5003 29.8982C23.9379 30.5896 24.5212 31.177 25.2095 31.6195C25.8978 32.062 26.6744 32.3488 27.4851 32.4598C28.2216 32.5395 28.964 32.3757 29.5987 31.9936C30.2333 31.6114 30.7254 31.0319 30.9996 30.3437L30.1333 25.8268C30.1078 25.6537 30.1475 25.4773 30.2447 25.3318C30.347 25.1972 30.4981 25.1083 30.6655 25.0843C31.1268 24.9759 31.5335 24.7047 31.8108 24.3205C32.0882 23.9363 32.2176 23.4649 32.1752 22.9929C32.2618 21.1614 31.0367 17.4983 30.5665 16.1495C28.3082 16.6013 25.9796 16.5676 23.7354 16.0505C24.3047 19.466 23.1909 21.1119 22.6093 21.7183L23.5003 29.8982Z" fill="#003D31"/>
<path d="M27.349 18.7607C27.349 18.7607 29.0691 21.2357 28.6731 21.7431C28.2771 22.2505 27.1262 21.904 27.1262 21.904" fill="white"/>
<path d="M27.8687 22.6093C27.5685 22.6053 27.2697 22.568 26.9777 22.4979C26.8993 22.4791 26.8254 22.4449 26.7604 22.3972C26.6954 22.3495 26.6405 22.2893 26.5991 22.2202C26.5576 22.1511 26.5303 22.0743 26.5188 21.9945C26.5073 21.9147 26.5119 21.8334 26.5322 21.7554C26.5732 21.5982 26.6733 21.4628 26.8116 21.3775C26.9499 21.2922 27.1158 21.2636 27.2747 21.2975C27.5408 21.344 27.813 21.344 28.0791 21.2975C27.7502 20.5038 27.3352 19.7485 26.8416 19.0453C26.795 18.979 26.7622 18.9041 26.7451 18.8249C26.7279 18.7458 26.7268 18.664 26.7418 18.5844C26.7568 18.5048 26.7876 18.429 26.8324 18.3615C26.8772 18.294 26.935 18.2362 27.0025 18.1914C27.0697 18.1445 27.1456 18.1115 27.2257 18.0942C27.3059 18.0769 27.3886 18.0757 27.4692 18.0907C27.5498 18.1056 27.6267 18.1365 27.6952 18.1814C27.7638 18.2263 27.8228 18.2844 27.8687 18.3523C29.8611 21.2852 29.3414 21.8544 29.1062 22.0648C28.947 22.2339 28.7554 22.3692 28.5428 22.4627C28.3302 22.5563 28.101 22.6061 27.8687 22.6093Z" fill="#003D31"/>
<path d="M25.7407 19.0039C25.9047 18.9988 26.0281 18.6846 26.0163 18.3021C26.0046 17.9195 25.8621 17.6135 25.6982 17.6185C25.5342 17.6235 25.4108 17.9378 25.4226 18.3203C25.4343 18.7029 25.5768 19.0089 25.7407 19.0039Z" fill="#003D31"/>
<path d="M29.728 18.7455C29.892 18.7405 30.0154 18.4262 30.0036 18.0437C29.9919 17.6611 29.8494 17.3551 29.6855 17.3601C29.5215 17.3652 29.3981 17.6794 29.4099 18.0619C29.4216 18.4445 29.5641 18.7505 29.728 18.7455Z" fill="#003D31"/>
<path d="M23.8468 19.9981C23.5087 19.5584 23.0884 19.1885 22.6093 18.9091C22.3741 18.7316 22.0872 18.6359 21.7925 18.6368C21.5533 18.658 21.3254 18.7483 21.1366 18.8967C20.8525 19.1048 20.6145 19.3694 20.4377 19.674C20.261 19.9785 20.1492 20.3164 20.1095 20.6664C20.0727 20.9944 20.1195 21.3265 20.2456 21.6316C20.4632 22.0982 20.8408 22.4714 21.3099 22.6835C21.7742 22.9028 22.2651 23.0609 22.7702 23.1538" fill="white"/>
<path d="M22.832 23.7973H22.6835C22.1307 23.6957 21.5938 23.521 21.0871 23.2775C20.4811 22.9967 19.9943 22.5099 19.7135 21.9039C19.5545 21.512 19.495 21.0869 19.5402 20.6664C19.5818 20.2298 19.7132 19.8066 19.9262 19.4233C20.1391 19.0399 20.4291 18.7048 20.7778 18.4389C21.087 18.1919 21.471 18.0573 21.8668 18.0573C22.2625 18.0573 22.6465 18.1919 22.9558 18.4389C23.4798 18.762 23.9376 19.182 24.3047 19.6764C24.3534 19.7438 24.3884 19.8202 24.4076 19.9012C24.4269 19.9821 24.43 20.0661 24.4167 20.1483C24.4035 20.2304 24.3743 20.3092 24.3306 20.38C24.287 20.4509 24.2298 20.5124 24.1623 20.5612C24.0949 20.6099 24.0185 20.6449 23.9375 20.6642C23.8566 20.6834 23.7726 20.6865 23.6905 20.6733C23.6083 20.6601 23.5295 20.6308 23.4587 20.5871C23.3878 20.5435 23.3263 20.4863 23.2775 20.4189C23.0039 20.0543 22.6689 19.7403 22.2875 19.4907C22.1567 19.3951 22.0031 19.3354 21.842 19.3175C21.7232 19.3365 21.6118 19.3879 21.5203 19.466C21.3099 19.6199 21.1341 19.8161 21.0041 20.042C20.8741 20.2679 20.7928 20.5186 20.7654 20.7778C20.7374 20.9992 20.7629 21.2241 20.8396 21.4336C21.004 21.7578 21.2749 22.0156 21.6069 22.1638C22.0316 22.3519 22.4756 22.4929 22.931 22.5845C23.064 22.6363 23.1761 22.7309 23.2494 22.8533C23.3228 22.9757 23.3534 23.1191 23.3364 23.2608C23.3194 23.4026 23.2558 23.5346 23.1555 23.6362C23.0552 23.7378 22.924 23.8032 22.7825 23.822L22.832 23.7973Z" fill="#003D31"/>
<path d="M30.22 23.2652L26.0496 23.6736C26.2609 24.0017 26.5499 24.2728 26.8909 24.4627C27.232 24.6527 27.6145 24.7556 28.0048 24.7626C28.9095 24.5698 29.7039 24.0329 30.22 23.2652Z" fill="#003D31"/>
<path d="M90.301 17.8573H49.7107C49.5466 17.8573 49.3892 17.7921 49.2732 17.676C49.1572 17.56 49.092 17.4026 49.092 17.2385C49.092 17.0744 49.1572 16.917 49.2732 16.801C49.3892 16.6849 49.5466 16.6198 49.7107 16.6198H90.301C90.4651 16.6198 90.6225 16.6849 90.7385 16.801C90.8546 16.917 90.9198 17.0744 90.9198 17.2385C90.9198 17.4026 90.8546 17.56 90.7385 17.676C90.6225 17.7921 90.4651 17.8573 90.301 17.8573Z" fill="#003D31"/>
<path d="M90.301 28.5494H49.7107C49.5466 28.5494 49.3892 28.4842 49.2732 28.3682C49.1572 28.2521 49.092 28.0947 49.092 27.9306C49.092 27.7665 49.1572 27.6092 49.2732 27.4931C49.3892 27.3771 49.5466 27.3119 49.7107 27.3119H90.301C90.4651 27.3119 90.6225 27.3771 90.7385 27.4931C90.8546 27.6092 90.9198 27.7665 90.9198 27.9306C90.9198 28.0947 90.8546 28.2521 90.7385 28.3682C90.6225 28.4842 90.4651 28.5494 90.301 28.5494Z" fill="#003D31"/>
<path d="M80.5866 39.2537H49.6488C49.4847 39.2537 49.3273 39.1886 49.2113 39.0725C49.0953 38.9565 49.0301 38.7991 49.0301 38.635C49.0301 38.4709 49.0953 38.3135 49.2113 38.1975C49.3273 38.0814 49.4847 38.0162 49.6488 38.0162H80.5866C80.7507 38.0162 80.908 38.0814 81.0241 38.1975C81.1401 38.3135 81.2053 38.4709 81.2053 38.635C81.2053 38.7991 81.1401 38.9565 81.0241 39.0725C80.908 39.1886 80.7507 39.2537 80.5866 39.2537Z" fill="#003D31"/>
</svg>
