<svg width="64" height="64" viewBox="0 0 64 64" fill="none" xmlns="http://www.w3.org/2000/svg">
<circle cx="32" cy="32" r="32" fill="#FFFAE9"/>
<path d="M27.5285 14.0667C27.5285 14.0667 25.3106 13.4164 23.209 15.6975C21.2419 17.8235 21.3479 20.8771 21.248 23.4129C21.1787 25.1782 20.9912 27.2859 20.2696 28.9167C19.9842 29.5649 19.4033 29.9563 19.2504 30.6799C19.1753 31.0671 19.1839 31.4659 19.2756 31.8495C19.3674 32.2331 19.5402 32.5926 19.7824 32.9039C20.5346 33.866 21.7923 34.3308 23.0215 34.4572L23.8369 32.6898C24.2635 33.2317 24.5442 33.8738 24.6522 34.555C24.7705 35.3031 29.6994 35.0524 30.3272 35.0544C33.0241 35.0666 35.9288 35.138 38.5625 34.5163C38.8098 34.4823 39.0398 34.3702 39.2189 34.1962C39.3182 34.0597 39.3845 33.902 39.4125 33.7355C39.5496 33.151 39.6181 32.5524 39.6164 31.9519C39.8754 32.2748 40.0429 32.6613 40.1015 33.071C40.13 33.2851 40.1443 33.5317 40.3176 33.6622C40.4909 33.7926 40.7579 33.7417 40.976 33.6764C42.2235 33.3054 44.0581 32.7286 44.1804 31.2303C44.2198 30.657 44.0324 30.0911 43.6586 29.6546C43.4914 29.4508 43.2896 29.2897 43.1347 29.0838C42.7882 28.6293 42.6903 28.0442 42.6027 27.4837C42.3373 25.896 42.1914 24.2906 42.1664 22.6811C42.1542 20.5469 41.6609 18.4004 40.4745 16.5658C37.8062 12.4217 30.6371 10.5321 27.5285 14.0667Z" fill="#725858"/>
<path d="M28.0931 35.295C25.5532 35.295 24.534 35.0912 24.4545 34.5857C24.37 34.0531 24.1733 33.5445 23.8776 33.0935L23.2111 34.5408C23.1935 34.5792 23.1645 34.6112 23.1279 34.6324C23.0914 34.6535 23.0492 34.6629 23.0072 34.659C22.1551 34.5755 20.5835 34.2513 19.6275 33.0283C19.3665 32.6935 19.1804 32.3067 19.0816 31.8938C18.9828 31.481 18.9736 31.0518 19.0547 30.6352C19.1651 30.2218 19.3695 29.8395 19.652 29.5181C19.825 29.3075 19.9721 29.0768 20.0902 28.8312C20.82 27.1739 20.9871 25.058 21.0524 23.3967C21.0625 23.1582 21.0687 22.9136 21.0768 22.6669C21.1502 20.2595 21.2358 17.5321 23.0663 15.5508C24.9641 13.496 26.9393 13.7304 27.4653 13.8385C28.6883 12.5074 30.5759 11.8632 32.7958 12.0243C35.9329 12.2505 39.0925 14.026 40.658 16.4395C41.773 18.16 42.3682 20.3125 42.3825 22.671C42.4052 24.2731 42.5503 25.8712 42.8167 27.4511C42.8962 27.9587 42.9879 28.5356 43.31 28.9596C43.3951 29.0692 43.4877 29.1727 43.5872 29.2694C43.6688 29.351 43.7503 29.4345 43.8257 29.5242C44.2347 30.0012 44.4397 30.6199 44.3965 31.2467C44.2599 32.9202 42.248 33.5196 41.0473 33.8783C40.8659 33.9313 40.4888 34.0434 40.2075 33.8314C40.1169 33.7469 40.0447 33.6446 39.9953 33.531C39.9458 33.4174 39.9202 33.2949 39.9201 33.171V33.1057C39.8984 32.9561 39.8608 32.8092 39.808 32.6675C39.7757 33.0454 39.7143 33.4202 39.6245 33.7886C39.5906 33.9864 39.5095 34.1731 39.3881 34.3329C39.1831 34.543 38.9143 34.6792 38.6236 34.7202C36.1775 35.2991 33.5439 35.2828 30.9958 35.2685H30.3415H29.8686C29.202 35.2869 28.6149 35.295 28.0931 35.295ZM23.8389 32.4861C23.8695 32.4862 23.8997 32.4932 23.9272 32.5067C23.9548 32.5201 23.9789 32.5395 23.9979 32.5635C24.448 33.1319 24.7442 33.8065 24.8581 34.5225C24.9274 34.659 25.5593 34.975 29.8462 34.8608H30.3333H30.9877C33.5113 34.8751 36.1225 34.8894 38.5197 34.3247C38.7231 34.2974 38.9135 34.2093 39.066 34.072C39.1448 33.9594 39.1971 33.8305 39.2189 33.6949C39.3539 33.1258 39.4223 32.543 39.4227 31.9581C39.4235 31.9165 39.4369 31.8761 39.4613 31.8423C39.4857 31.8086 39.5198 31.7831 39.5591 31.7694C39.5984 31.7556 39.641 31.7542 39.6811 31.7654C39.7212 31.7765 39.757 31.7997 39.7835 31.8317C40.0684 32.1834 40.2517 32.6064 40.3135 33.0548V33.1241C40.3359 33.2892 40.3563 33.4462 40.444 33.5134C40.5316 33.5807 40.7416 33.5461 40.921 33.4931C42.0217 33.1649 43.8645 32.6165 43.9786 31.2202C44.0149 30.7005 43.8441 30.1876 43.5037 29.7933C43.4364 29.7118 43.361 29.6363 43.2855 29.5609C43.1743 29.4514 43.0702 29.335 42.9737 29.2123C42.5904 28.7068 42.4865 28.0484 42.4029 27.5204C42.1344 25.9228 41.9879 24.3071 41.9646 22.6873C41.9524 20.4083 41.3776 18.3291 40.3053 16.676C38.8071 14.3624 35.7739 12.6623 32.7631 12.4442C30.6208 12.2913 28.8188 12.9171 27.6854 14.2136C27.6604 14.2415 27.6281 14.2621 27.5921 14.2728C27.5561 14.2836 27.5179 14.2843 27.4816 14.2747C27.3898 14.2482 25.3494 13.6958 23.368 15.8402C21.6394 17.7115 21.5579 20.3574 21.4865 22.6934C21.4865 22.9421 21.4723 23.1867 21.4621 23.4273C21.3968 25.1232 21.2236 27.3003 20.4673 29.0105C20.3363 29.2851 20.172 29.5426 19.9781 29.777C19.7341 30.0532 19.5551 30.3806 19.4542 30.7351C19.3854 31.0932 19.3942 31.4619 19.48 31.8164C19.5658 32.1709 19.7266 32.5028 19.9516 32.7898C20.767 33.8314 22.096 34.1515 22.9053 34.2493L23.6575 32.6186C23.6722 32.5871 23.6947 32.5599 23.7229 32.5395C23.7511 32.5192 23.784 32.5064 23.8185 32.5024L23.8389 32.4861Z" fill="#003D31"/>
<path d="M41.8892 44.4395V48.1515C40.8995 48.9541 39.8192 49.6382 38.6705 50.1899C38.286 50.3761 37.8932 50.546 37.4923 50.6995C36.7708 50.9807 36.0295 51.2083 35.2745 51.3804C35.0544 51.4333 34.8342 51.4782 34.61 51.5169C34.1493 51.6053 33.6811 51.6732 33.2055 51.7208C32.7978 51.7636 32.3697 51.786 31.9437 51.7942C31.8296 51.7942 31.7174 51.7942 31.6033 51.7942C31.4891 51.7942 31.3628 51.7942 31.2445 51.7942C30.8246 51.786 30.4101 51.7615 30.0011 51.7208C29.5268 51.6759 29.0587 51.608 28.5966 51.5169C28.3724 51.4782 28.1522 51.4333 27.9321 51.3804C27.1778 51.2088 26.4372 50.982 25.7163 50.7016C25.3168 50.5466 24.924 50.3768 24.5381 50.1919C23.3894 49.6402 22.3092 48.9561 21.3194 48.1535V44.4395C21.3194 39.8591 24.4341 36.1431 28.2786 36.1431H34.928C38.7745 36.1431 41.8892 39.8591 41.8892 44.4395Z" fill="#FFFAA4"/>
<path d="M31.6053 52C31.483 52 31.3607 52 31.2404 52C30.8328 52 30.4026 51.9674 29.9827 51.9246C29.5118 51.8798 29.0328 51.8125 28.5558 51.7208C28.3173 51.6779 28.0972 51.6331 27.8831 51.5821C27.1199 51.4075 26.3705 51.1772 25.6409 50.8932C25.2332 50.7321 24.8255 50.5588 24.4484 50.3774C23.2847 49.8173 22.1902 49.1236 21.1869 48.3105C21.1635 48.2915 21.1446 48.2676 21.1316 48.2404C21.1185 48.2133 21.1117 48.1836 21.1115 48.1535V44.4395C21.1115 39.7511 24.324 35.9392 28.2745 35.9392H34.9239C38.8744 35.9392 42.0869 39.7531 42.0869 44.4395V48.1515C42.0867 48.1816 42.0799 48.2113 42.0668 48.2384C42.0538 48.2655 42.0349 48.2895 42.0115 48.3084C41.0087 49.1223 39.9141 49.816 38.75 50.3754C38.377 50.5568 37.9754 50.7301 37.5575 50.8911C36.8279 51.1752 36.0785 51.4055 35.3153 51.5801C35.1012 51.6311 34.8811 51.6759 34.6405 51.7187C34.1697 51.8064 33.6906 51.8736 33.2136 51.9226C32.806 51.9654 32.382 51.9898 31.9376 51.998C31.8357 51.998 31.7215 52 31.6053 52ZM21.5253 48.0536C22.4826 48.8209 23.5242 49.4767 24.6298 50.0085C24.9947 50.1838 25.3861 50.353 25.7917 50.512C26.5034 50.7887 27.2344 51.0129 27.9789 51.1826C28.1828 51.2315 28.4009 51.2764 28.6333 51.3171C29.096 51.4028 29.5628 51.47 30.0235 51.521C30.4312 51.5638 30.8389 51.5883 31.2466 51.5944C31.4769 51.5944 31.7052 51.5944 31.9355 51.5944C32.3718 51.5944 32.7896 51.5618 33.181 51.521C33.6437 51.4782 34.1106 51.4109 34.5712 51.3171C34.8057 51.2764 35.0197 51.2315 35.2256 51.1826C35.9702 51.0135 36.7013 50.7893 37.4128 50.512C37.8205 50.353 38.2119 50.1838 38.5768 50.0085C39.6821 49.4762 40.7236 48.8204 41.6813 48.0536V44.4395C41.6813 39.9773 38.6501 36.3469 34.9259 36.3469H28.2806C24.5564 36.3469 21.5253 39.9773 21.5253 44.4395V48.0536Z" fill="#003D31"/>
<path d="M41.9708 44.4395V48.1515C40.981 48.9541 39.9008 49.6382 38.7521 50.1899C38.3661 50.3761 37.9734 50.546 37.5739 50.6995C36.8529 50.9799 36.1124 51.2068 35.3581 51.3783C35.1379 51.4313 34.9178 51.4762 34.6936 51.5149C34.2329 51.6032 33.7647 51.6712 33.2891 51.7187C32.8814 51.7615 32.4533 51.784 32.0273 51.7921C31.9131 51.7921 31.801 51.7921 31.6869 51.7921C31.5727 51.7921 31.4463 51.7921 31.3281 51.7921C30.9082 51.784 30.4937 51.7595 30.0847 51.7187C29.6104 51.6739 29.1422 51.6059 28.6802 51.5149C28.4559 51.4762 28.2338 51.4313 28.0156 51.3783C27.2614 51.2068 26.5208 50.9799 25.7999 50.6995C25.4003 50.5446 25.0076 50.3747 24.6217 50.1899C23.473 49.6382 22.3927 48.9541 21.403 48.1515V44.4395C21.403 39.8591 24.5177 36.1431 28.3622 36.1431H35.0115C38.856 36.1431 41.9708 39.8591 41.9708 44.4395Z" fill="#FFFAA4"/>
<path d="M31.6869 52C31.5645 52 31.4422 52 31.322 52C30.9 52 30.476 51.9674 30.0643 51.9266C29.5913 51.8818 29.1123 51.8125 28.6374 51.7228C28.4029 51.682 28.1746 51.6351 27.9626 51.5842C27.1994 51.4105 26.4499 51.1809 25.7204 50.8972C25.3127 50.7382 24.905 50.5629 24.5279 50.3815C23.3636 49.8233 22.2689 49.1302 21.2664 48.3166C21.2427 48.2974 21.2237 48.2731 21.2106 48.2456C21.1976 48.2181 21.1909 48.188 21.191 48.1576V44.4395C21.191 39.7511 24.4035 35.9392 28.354 35.9392H35.0034C38.9539 35.9392 42.1664 39.7531 42.1664 44.4395V48.1515C42.1665 48.1819 42.1598 48.212 42.1468 48.2395C42.1337 48.267 42.1147 48.2913 42.091 48.3105C41.0885 49.1241 39.9938 49.8172 38.8295 50.3754C38.4524 50.5568 38.0508 50.7321 37.637 50.8911C36.9074 51.175 36.1579 51.4053 35.3948 51.5801C35.1767 51.6311 34.9545 51.6779 34.72 51.7187C34.2532 51.8064 33.7742 51.8757 33.2931 51.9226C32.8956 51.9633 32.4778 51.9878 32.0171 51.9959C31.9172 51.998 31.8092 52 31.6869 52ZM21.617 48.0536C22.5736 48.8208 23.6145 49.4767 24.7195 50.0085C25.0884 50.1858 25.4798 50.355 25.8834 50.512C26.5956 50.7874 27.3265 51.0115 28.0707 51.1826C28.2745 51.2315 28.4947 51.2764 28.725 51.3151C29.1857 51.4048 29.6525 51.47 30.1132 51.519C30.5209 51.5597 30.9286 51.5842 31.3362 51.5923C31.5666 51.5923 31.7949 51.5923 32.0232 51.5923C32.4757 51.5923 32.8834 51.5597 33.2728 51.521C33.7355 51.4761 34.2023 51.4109 34.6589 51.3171C34.8892 51.2764 35.1033 51.2336 35.3153 51.1826C36.0601 51.0118 36.7918 50.7877 37.5045 50.512C37.9122 50.355 38.2995 50.1858 38.6685 50.0085C39.7735 49.4767 40.8143 48.8208 41.771 48.0536V44.4395C41.771 39.9773 38.7398 36.3469 35.0156 36.3469H28.3622C24.638 36.3469 21.6068 39.9773 21.6068 44.4395L21.617 48.0536Z" fill="#003D31"/>
<path d="M25.1455 50.3958C25.0915 50.3958 25.0396 50.3743 25.0014 50.3361C24.9632 50.2979 24.9417 50.246 24.9417 50.1919V44.7452C24.85 44.4334 24.163 41.9934 24.7277 40.4645C24.737 40.4394 24.7513 40.4163 24.7695 40.3966C24.7878 40.377 24.8098 40.3611 24.8342 40.3499C24.8586 40.3388 24.885 40.3325 24.9119 40.3316C24.9387 40.3306 24.9655 40.3349 24.9906 40.3443C25.0158 40.3536 25.0388 40.3679 25.0585 40.3862C25.0782 40.4044 25.094 40.4264 25.1052 40.4508C25.1164 40.4753 25.1226 40.5016 25.1236 40.5285C25.1246 40.5553 25.1202 40.5821 25.1109 40.6072C24.5666 42.0708 25.3331 44.6209 25.3412 44.6474C25.3433 44.6671 25.3433 44.6869 25.3412 44.7065V50.1817C25.3426 50.2087 25.3386 50.2356 25.3295 50.261C25.3204 50.2864 25.3063 50.3097 25.2881 50.3296C25.2699 50.3496 25.2479 50.3657 25.2234 50.377C25.199 50.3884 25.1725 50.3947 25.1455 50.3958Z" fill="#003D31"/>
<path d="M38.0651 50.3957C38.0111 50.3957 37.9592 50.3742 37.921 50.336C37.8827 50.2977 37.8613 50.2459 37.8613 50.1918V44.7166C37.8591 44.6969 37.8591 44.6771 37.8613 44.6575C37.8613 44.631 38.6359 42.0789 38.0916 40.6173C38.0727 40.5665 38.0747 40.5102 38.0973 40.4609C38.1198 40.4116 38.1611 40.3733 38.2119 40.3543C38.2627 40.3354 38.319 40.3375 38.3683 40.36C38.4176 40.3826 38.4559 40.4238 38.4748 40.4746C39.0395 41.9932 38.3525 44.4332 38.2608 44.7553V50.202C38.2583 50.2529 38.2368 50.301 38.2006 50.3369C38.1644 50.3727 38.116 50.3937 38.0651 50.3957Z" fill="#003D31"/>
<path d="M34.4591 36.1431V51.5169C34.0327 51.6067 33.6021 51.6747 33.1688 51.7208C32.7856 51.7636 32.4003 51.786 32.0089 51.7942C31.9029 51.7942 31.8051 51.7942 31.695 51.7942H31.3648C30.9795 51.7942 30.6004 51.7615 30.2233 51.7208C29.79 51.6749 29.3593 51.6068 28.9329 51.5169V36.1431H34.4591Z" fill="white"/>
<path d="M31.695 52C31.5829 52 31.4688 52 31.3587 52C30.9714 52 30.58 51.9674 30.2008 51.9246C29.7608 51.8788 29.3233 51.8107 28.8901 51.7208C28.8438 51.7108 28.8023 51.685 28.7729 51.6478C28.7435 51.6106 28.728 51.5643 28.7291 51.5169V36.1431C28.7291 36.089 28.7506 36.0371 28.7888 35.9989C28.827 35.9607 28.8789 35.9392 28.9329 35.9392H34.4591C34.5132 35.9392 34.565 35.9607 34.6033 35.9989C34.6415 36.0371 34.663 36.089 34.663 36.1431V51.5169C34.6639 51.5646 34.6481 51.6111 34.6184 51.6484C34.5886 51.6856 34.5466 51.7112 34.4999 51.7208C34.0667 51.8107 33.6292 51.8788 33.1892 51.9246C32.8202 51.9674 32.435 51.9919 32.013 52C31.9097 52 31.8037 52 31.695 52ZM29.1368 51.3498C29.5037 51.4211 29.8747 51.4761 30.2437 51.5149C30.6126 51.5536 30.9918 51.5781 31.3709 51.5862C31.5748 51.5862 31.7908 51.5862 32.0008 51.5862C32.4085 51.5862 32.7876 51.5536 33.1443 51.5149C33.5011 51.4761 33.8884 51.4211 34.2553 51.3498V36.3469H29.1368V51.3498Z" fill="#003D31"/>
<path d="M28.9329 47.7519C28.8957 47.7521 28.8591 47.7422 28.8272 47.7232C28.7952 47.7041 28.769 47.6767 28.7515 47.6438L26.4726 43.3631C26.4547 43.3321 26.4452 43.297 26.4452 43.2612C26.4452 43.2254 26.4547 43.1903 26.4726 43.1593L27.6956 41.023L26.2687 39.2964C26.2387 39.26 26.2223 39.2142 26.2223 39.167C26.2223 39.1198 26.2387 39.074 26.2687 39.0376L28.7739 36.0125C28.7911 35.9918 28.8121 35.9746 28.8359 35.962C28.8597 35.9494 28.8857 35.9416 28.9125 35.939C28.9392 35.9365 28.9663 35.9392 28.992 35.9471C29.0177 35.955 29.0416 35.9679 29.0624 35.985C29.0831 36.0021 29.1003 36.0232 29.1129 36.047C29.1255 36.0707 29.1333 36.0967 29.1359 36.1235C29.1384 36.1503 29.1357 36.1773 29.1278 36.2031C29.1199 36.2288 29.107 36.2527 29.0899 36.2735L26.7131 39.168L28.1196 40.8742C28.1468 40.9064 28.1634 40.9462 28.167 40.9882C28.1707 41.0301 28.1612 41.0722 28.14 41.1086L26.8965 43.2673L29.1225 47.4543C29.139 47.4853 29.1472 47.52 29.1464 47.5552C29.1455 47.5903 29.1355 47.6246 29.1175 47.6548C29.0994 47.6849 29.0739 47.7099 29.0433 47.7273C29.0128 47.7446 28.9783 47.7538 28.9431 47.7539L28.9329 47.7519Z" fill="#003D31"/>
<path d="M34.6507 47.7518C34.6173 47.7517 34.5844 47.7433 34.5549 47.7274C34.5074 47.7019 34.472 47.6586 34.4563 47.607C34.4407 47.5555 34.4461 47.4998 34.4714 47.4522L36.7014 43.2653L35.4539 41.1086C35.4328 41.0726 35.4233 41.0311 35.4266 40.9895C35.4298 40.948 35.4458 40.9084 35.4722 40.8762L36.8787 39.17L34.4938 36.2755C34.4766 36.2547 34.4638 36.2308 34.4559 36.2051C34.448 36.1794 34.4452 36.1523 34.4478 36.1255C34.4504 36.0988 34.4582 36.0727 34.4708 36.049C34.4834 36.0252 34.5005 36.0042 34.5213 35.987C34.542 35.9699 34.566 35.957 34.5917 35.9491C34.6174 35.9412 34.6444 35.9385 34.6712 35.9411C34.698 35.9436 34.724 35.9514 34.7478 35.964C34.7715 35.9766 34.7926 35.9938 34.8097 36.0145L37.3007 39.0416C37.3307 39.0781 37.3471 39.1238 37.3471 39.1711C37.3471 39.2183 37.3307 39.264 37.3007 39.3005L35.8738 41.0271L37.0969 43.1633C37.1147 43.1943 37.1242 43.2295 37.1242 43.2653C37.1242 43.301 37.1147 43.3362 37.0969 43.3672L34.8179 47.6479C34.8011 47.6779 34.7769 47.7032 34.7477 47.7214C34.7185 47.7396 34.6851 47.75 34.6507 47.7518Z" fill="#003D31"/>
<path d="M34.2981 36.1431C34.0168 37.4232 31.695 40.0283 31.695 40.0283C31.695 40.0283 29.3753 37.4232 29.094 36.1431H34.2981Z" fill="#FFC9B0"/>
<path d="M31.695 40.2321C31.6666 40.2321 31.6385 40.2261 31.6125 40.2145C31.5865 40.2029 31.5632 40.186 31.5442 40.1649C31.4463 40.0568 29.1837 37.5047 28.8942 36.1859C28.8878 36.1561 28.8881 36.1253 28.8952 36.0956C28.9022 36.066 28.9158 36.0383 28.935 36.0146C28.9542 35.991 28.9784 35.9719 29.0059 35.9589C29.0334 35.9458 29.0635 35.9391 29.094 35.9392H34.2981C34.3286 35.9391 34.3586 35.9458 34.3862 35.9589C34.4137 35.9719 34.4379 35.991 34.4571 36.0146C34.4759 36.0385 34.4891 36.0662 34.4958 36.0959C34.5025 36.1255 34.5025 36.1562 34.4958 36.1859C34.2064 37.5047 31.9437 40.0589 31.8459 40.1649C31.8268 40.186 31.8035 40.2029 31.7776 40.2145C31.7516 40.2261 31.7235 40.2321 31.695 40.2321ZM29.3631 36.3469C29.7585 37.4191 31.2139 39.164 31.6909 39.7185C32.1679 39.164 33.6254 37.4191 34.0209 36.3469H29.3631Z" fill="#003D31"/>
<path d="M30.3823 36.7586V34.3002H32.9915V36.7586" fill="#FFC9B0"/>
<path d="M32.9915 36.9624C32.9374 36.9624 32.8855 36.9409 32.8473 36.9027C32.8091 36.8645 32.7876 36.8126 32.7876 36.7586V34.5041H30.5861V36.7586C30.5861 36.8126 30.5646 36.8645 30.5264 36.9027C30.4882 36.9409 30.4363 36.9624 30.3823 36.9624C30.3282 36.9624 30.2764 36.9409 30.2381 36.9027C30.1999 36.8645 30.1784 36.8126 30.1784 36.7586V34.3002C30.1784 34.2462 30.1999 34.1943 30.2381 34.1561C30.2764 34.1179 30.3282 34.0964 30.3823 34.0964H32.9915C33.0455 34.0964 33.0974 34.1179 33.1356 34.1561C33.1738 34.1943 33.1953 34.2462 33.1953 34.3002V36.7586C33.1953 36.8126 33.1738 36.8645 33.1356 36.9027C33.0974 36.9409 33.0455 36.9624 32.9915 36.9624Z" fill="#003D31"/>
<path d="M24.2282 29.7057C25.6287 29.7057 26.7641 28.7273 26.7641 27.5205C26.7641 26.3136 25.6287 25.3353 24.2282 25.3353C22.8278 25.3353 21.6924 26.3136 21.6924 27.5205C21.6924 28.7273 22.8278 29.7057 24.2282 29.7057Z" fill="#FFC9B0"/>
<path d="M24.2282 29.9095C22.7177 29.9095 21.4886 28.8373 21.4886 27.5205C21.4886 26.2036 22.7116 25.1314 24.2282 25.1314C25.7448 25.1314 26.9679 26.2036 26.9679 27.5205C26.9679 28.8373 25.7387 29.9095 24.2282 29.9095ZM24.2282 25.5391C22.944 25.5391 21.8963 26.4279 21.8963 27.5205C21.8963 28.6131 22.944 29.5018 24.2282 29.5018C25.5124 29.5018 26.5602 28.6131 26.5602 27.5205C26.5602 26.4279 25.5145 25.5391 24.2282 25.5391Z" fill="#003D31"/>
<path d="M39.0089 29.7057C40.4094 29.7057 41.5447 28.7273 41.5447 27.5205C41.5447 26.3136 40.4094 25.3353 39.0089 25.3353C37.6084 25.3353 36.4731 26.3136 36.4731 27.5205C36.4731 28.7273 37.6084 29.7057 39.0089 29.7057Z" fill="#FFC9B0"/>
<path d="M39.011 29.9095C37.5005 29.9095 36.2713 28.8373 36.2713 27.5205C36.2713 26.2036 37.4944 25.1314 39.011 25.1314C40.5275 25.1314 41.7486 26.2036 41.7486 27.5205C41.7486 28.8373 40.5194 29.9095 39.011 29.9095ZM39.011 25.5391C37.7247 25.5391 36.679 26.4279 36.679 27.5205C36.679 28.6131 37.7247 29.5018 39.011 29.5018C40.2972 29.5018 41.3409 28.6131 41.3409 27.5205C41.3409 26.4279 40.2952 25.5391 39.011 25.5391Z" fill="#003D31"/>
<path d="M36.3365 21.0402L33.8639 17.8705C33.8639 17.8705 33.3074 19.8274 32.965 21.0402H29.0654L28.14 18.1803L27.0596 21.0137H24.0346V27.0047C24.0343 28.009 24.2319 29.0035 24.616 29.9314C25.0002 30.8593 25.5633 31.7024 26.2734 32.4127C26.9834 33.1229 27.8264 33.6863 28.7542 34.0707C29.682 34.4551 30.6765 34.6529 31.6808 34.6529C32.685 34.6529 33.6795 34.4551 34.6073 34.0707C35.5351 33.6863 36.3781 33.1229 37.0881 32.4127C37.7982 31.7024 38.3613 30.8593 38.7455 29.9314C39.1296 29.0035 39.3272 28.009 39.3269 27.0047V21.0484L36.3365 21.0402Z" fill="#FFC9B0"/>
<path d="M31.6869 34.8466C29.6054 34.8439 27.61 34.0157 26.1383 32.5437C24.6667 31.0717 23.839 29.076 23.8369 26.9945V21.0036C23.8371 20.9501 23.8583 20.8989 23.896 20.8609C23.9148 20.8416 23.9374 20.8263 23.9622 20.8158C23.987 20.8053 24.0137 20.7999 24.0407 20.7997H26.9251L27.9565 18.0968C27.9708 18.0574 27.9969 18.0234 28.0311 17.9994C28.0654 17.9754 28.1063 17.9625 28.1481 17.9625C28.19 17.9625 28.2309 17.9754 28.2651 17.9994C28.2994 18.0234 28.3255 18.0574 28.3398 18.0968L29.2142 20.7957H32.8121C33.1545 19.5726 33.6682 17.7727 33.6682 17.7727C33.6788 17.7368 33.699 17.7045 33.7267 17.6793C33.7544 17.6541 33.7884 17.6371 33.8252 17.63C33.8626 17.6218 33.9016 17.6244 33.9377 17.6374C33.9737 17.6503 34.0054 17.6732 34.029 17.7034L36.4364 20.8364H39.3351C39.3891 20.8364 39.441 20.8579 39.4792 20.8961C39.5174 20.9344 39.5389 20.9862 39.5389 21.0403V26.9864C39.5389 29.0696 38.7119 31.0677 37.2396 32.5415C35.7673 34.0154 33.7701 34.8444 31.6869 34.8466ZM24.2445 21.2095V26.9945C24.2213 27.9863 24.3966 28.9726 24.7601 29.8956C25.1236 30.8187 25.6679 31.6597 26.3611 32.3693C27.0543 33.0789 27.8823 33.6428 28.7966 34.0277C29.7108 34.4127 30.6928 34.611 31.6848 34.611C32.6768 34.611 33.6588 34.4127 34.5731 34.0277C35.4873 33.6428 36.3154 33.0789 37.0086 32.3693C37.7018 31.6597 38.2461 30.8187 38.6096 29.8956C38.973 28.9726 39.1483 27.9863 39.1251 26.9945V21.2523H36.3324C36.3015 21.2524 36.2709 21.2456 36.243 21.2321C36.2151 21.2187 36.1906 21.1991 36.1714 21.1748L33.9454 18.321L33.1566 21.1035C33.1442 21.1476 33.1174 21.1862 33.0804 21.2132C33.0435 21.2402 32.9985 21.254 32.9527 21.2523H29.0532C29.01 21.2521 28.9679 21.2382 28.9331 21.2125C28.8983 21.1869 28.8725 21.1508 28.8596 21.1096L28.14 18.7919L27.2655 21.0851C27.251 21.1238 27.2252 21.1572 27.1913 21.1809C27.1575 21.2045 27.1172 21.2173 27.0759 21.2176L24.2445 21.2095Z" fill="#003D31"/>
<path d="M27.875 27.2208C28.2746 27.2208 28.5986 26.8968 28.5986 26.4971C28.5986 26.0975 28.2746 25.7735 27.875 25.7735C27.4753 25.7735 27.1513 26.0975 27.1513 26.4971C27.1513 26.8968 27.4753 27.2208 27.875 27.2208Z" fill="#003D31"/>
<path d="M35.3357 27.2208C35.7353 27.2208 36.0593 26.8968 36.0593 26.4971C36.0593 26.0975 35.7353 25.7735 35.3357 25.7735C34.936 25.7735 34.612 26.0975 34.612 26.4971C34.612 26.8968 34.936 27.2208 35.3357 27.2208Z" fill="#003D31"/>
<path d="M31.6053 29.1328C31.3705 29.131 31.1361 29.1119 30.9041 29.0757C30.8777 29.071 30.8525 29.0612 30.83 29.0468C30.8074 29.0324 30.7879 29.0136 30.7726 28.9917C30.7572 28.9697 30.7464 28.945 30.7406 28.9188C30.7348 28.8926 30.7343 28.8656 30.739 28.8392C30.7437 28.8129 30.7535 28.7877 30.7679 28.7651C30.7823 28.7425 30.801 28.723 30.823 28.7077C30.845 28.6923 30.8697 28.6815 30.8959 28.6757C30.9221 28.67 30.9491 28.6694 30.9755 28.6741C31.338 28.7326 31.7076 28.7326 32.0701 28.6741C32.1333 28.4866 31.8663 27.6916 31.4586 26.9374C31.4454 26.9136 31.437 26.8875 31.4341 26.8605C31.4312 26.8335 31.4336 26.8061 31.4414 26.7801C31.4492 26.7541 31.4621 26.7298 31.4793 26.7089C31.4966 26.6879 31.5179 26.6706 31.5419 26.6579C31.566 26.6453 31.5923 26.6376 31.6194 26.6353C31.6465 26.6329 31.6737 26.6361 31.6996 26.6444C31.7254 26.6528 31.7493 26.6663 31.7699 26.684C31.7905 26.7018 31.8073 26.7235 31.8194 26.7478C32.0232 27.1249 32.6347 28.3908 32.4309 28.8555C32.4079 28.9064 32.3735 28.9512 32.3304 28.9865C32.2872 29.0219 32.2365 29.0468 32.1822 29.0594C31.9936 29.107 31.7999 29.1317 31.6053 29.1328Z" fill="#003D31"/>
<path d="M31.6869 31.5422C30.7284 31.5556 29.7713 31.4633 28.8331 31.267C28.8056 31.2621 28.7795 31.2517 28.7563 31.2364C28.7331 31.221 28.7132 31.2011 28.698 31.1778C28.6828 31.1545 28.6725 31.1283 28.6677 31.1009C28.663 31.0734 28.664 31.0453 28.6705 31.0183C28.6771 30.9912 28.6891 30.9658 28.7059 30.9436C28.7226 30.9213 28.7437 30.9028 28.7679 30.889C28.7921 30.8753 28.8189 30.8666 28.8466 30.8636C28.8743 30.8606 28.9023 30.8633 28.9289 30.8715C29.8356 31.0566 30.7594 31.1448 31.6848 31.1345C32.5538 31.154 33.422 31.0664 34.2696 30.8736C34.2957 30.8646 34.3234 30.861 34.351 30.863C34.3786 30.8651 34.4055 30.8727 34.4301 30.8855C34.4546 30.8983 34.4763 30.9159 34.4938 30.9374C34.5113 30.9588 34.5243 30.9836 34.5319 31.0102C34.5395 31.0368 34.5416 31.0646 34.5381 31.0921C34.5346 31.1195 34.5256 31.146 34.5115 31.1698C34.4975 31.1937 34.4787 31.2144 34.4564 31.2308C34.4341 31.2471 34.4086 31.2587 34.3817 31.2649C34.3429 31.2772 33.3951 31.5422 31.6869 31.5422Z" fill="#003D31"/>
<path d="M29.1082 24.5157H25.7509C25.665 24.5157 25.5825 24.4816 25.5218 24.4208C25.461 24.36 25.4268 24.2776 25.4268 24.1916C25.4268 24.1056 25.461 24.0232 25.5218 23.9624C25.5825 23.9016 25.665 23.8675 25.7509 23.8675H29.1082C29.1942 23.8675 29.2766 23.9016 29.3374 23.9624C29.3982 24.0232 29.4324 24.1056 29.4324 24.1916C29.4324 24.2776 29.3982 24.36 29.3374 24.4208C29.2766 24.4816 29.1942 24.5157 29.1082 24.5157Z" fill="#003D31"/>
<path d="M37.4597 24.5157H34.1024C34.0164 24.5157 33.934 24.4816 33.8732 24.4208C33.8124 24.36 33.7783 24.2776 33.7783 24.1916C33.7783 24.1056 33.8124 24.0232 33.8732 23.9624C33.934 23.9016 34.0164 23.8675 34.1024 23.8675H37.4597C37.5457 23.8675 37.6281 23.9016 37.6889 23.9624C37.7497 24.0232 37.7838 24.1056 37.7838 24.1916C37.7838 24.2776 37.7497 24.36 37.6889 24.4208C37.6281 24.4816 37.5457 24.5157 37.4597 24.5157Z" fill="#003D31"/>
<path d="M30.686 41.3511C30.6572 41.3506 30.6289 41.3439 30.6029 41.3316C30.5769 41.3193 30.5538 41.3017 30.5351 41.2798C28.7332 39.1578 28.7332 39.0885 28.7332 38.9968C28.7335 38.9494 28.7503 38.9037 28.7807 38.8674C28.8111 38.8312 28.8531 38.8066 28.8996 38.7979C28.9461 38.7892 28.9942 38.797 29.0356 38.8199C29.077 38.8428 29.1092 38.8794 29.1266 38.9234C29.2224 39.0783 29.9725 39.9854 30.6941 40.8395L31.5442 39.8855C31.5813 39.8491 31.6309 39.8283 31.6828 39.8272C31.7348 39.8262 31.7852 39.845 31.8237 39.8799C31.8623 39.9148 31.886 39.9631 31.8901 40.0149C31.8942 40.0667 31.8784 40.1181 31.8459 40.1587L30.8266 41.2778C30.8093 41.2988 30.7879 41.3161 30.7637 41.3287C30.7396 41.3413 30.7131 41.3489 30.686 41.3511Z" fill="#003D31"/>
<path d="M32.6245 41.3511C32.5961 41.3511 32.568 41.3451 32.542 41.3335C32.516 41.3219 32.4928 41.305 32.4737 41.2839L31.4545 40.1648C31.4219 40.1242 31.4061 40.0728 31.4102 40.021C31.4143 39.9692 31.4381 39.9209 31.4766 39.886C31.5151 39.8511 31.5655 39.8323 31.6175 39.8333C31.6695 39.8344 31.7191 39.8552 31.7562 39.8916L32.6103 40.8395C33.3319 39.9854 34.082 39.0783 34.1778 38.9234C34.1952 38.8794 34.2274 38.8428 34.2688 38.8199C34.3102 38.797 34.3583 38.7892 34.4048 38.7979C34.4513 38.8066 34.4933 38.8312 34.5237 38.8674C34.5541 38.9037 34.5709 38.9494 34.5712 38.9968C34.5712 39.0885 34.5712 39.1578 32.7693 41.2798C32.7506 41.3017 32.7275 41.3193 32.7015 41.3316C32.6755 41.3439 32.6472 41.3506 32.6184 41.3511H32.6245Z" fill="#003D31"/>
<path d="M31.6869 52.0001C31.6328 52.0001 31.5809 51.9786 31.5427 51.9404C31.5045 51.9021 31.483 51.8503 31.483 51.7962V40.5461C31.483 40.4921 31.5045 40.4402 31.5427 40.402C31.5809 40.3638 31.6328 40.3423 31.6869 40.3423C31.7409 40.3423 31.7928 40.3638 31.831 40.402C31.8692 40.4402 31.8907 40.4921 31.8907 40.5461V51.7962C31.8907 51.8503 31.8692 51.9021 31.831 51.9404C31.7928 51.9786 31.7409 52.0001 31.6869 52.0001Z" fill="#003D31"/>
<path d="M25.5125 47.1485C25.4584 47.1485 25.4065 47.127 25.3683 47.0888C25.3301 47.0505 25.3086 46.9987 25.3086 46.9446V43.2754C25.3086 43.2214 25.3301 43.1695 25.3683 43.1313C25.4065 43.0931 25.4584 43.0716 25.5125 43.0716C25.5665 43.0716 25.6184 43.0931 25.6566 43.1313C25.6948 43.1695 25.7163 43.2214 25.7163 43.2754V46.9446C25.7163 46.9987 25.6948 47.0505 25.6566 47.0888C25.6184 47.127 25.5665 47.1485 25.5125 47.1485Z" fill="#003D31"/>
</svg>
