<svg width="57" height="56" viewBox="0 0 57 56" fill="none" xmlns="http://www.w3.org/2000/svg">
<path d="M55.6105 27.9887C55.6041 31.9766 54.7327 35.9157 53.0564 39.5341C51.3802 43.1526 48.9389 46.3644 45.9011 48.948C42.8633 51.5315 39.3012 53.4254 35.4605 54.4988C31.6198 55.5723 27.592 55.7999 23.6548 55.1658C19.7177 54.5318 15.9649 53.0512 12.6554 50.8263C9.34589 48.6014 6.55841 45.685 4.48525 42.2783C2.41208 38.8717 1.10256 35.0559 0.64703 31.0941C0.191497 27.1323 0.600791 23.1189 1.84667 19.3306C3.89674 13.1511 8.06713 7.89616 13.6196 4.49616C19.172 1.09617 25.7484 -0.229613 32.1845 0.753522C38.6205 1.73666 44.5012 4.96529 48.7854 9.86787C53.0696 14.7705 55.481 21.0308 55.5927 27.5405C55.6105 27.6914 55.6105 27.8379 55.6105 27.9887Z" fill="#5CE4CA"/>
<path d="M28.0296 56C23.5981 56.0008 19.2296 54.9506 15.2826 52.9358C11.3357 50.9209 7.9228 47.9987 5.32415 44.4091C2.7255 40.8195 1.01516 36.6648 0.333516 32.2861C-0.348127 27.9073 0.0183643 23.4293 1.4029 19.2196C1.40483 19.2094 1.40483 19.1988 1.4029 19.1886C2.66473 15.4104 4.71564 11.9438 7.41954 9.01875C10.1234 6.09373 13.4185 3.77721 17.086 2.22289C21.3081 0.433142 25.9048 -0.293368 30.473 0.10708C35.0412 0.507528 39.4415 2.0227 43.2877 4.51972C47.134 7.01674 50.3089 10.4193 52.5339 14.4291C54.759 18.4389 55.9662 22.9333 56.0498 27.5183C56.0498 27.6692 56.0498 27.8201 56.0498 27.9621C56.0527 31.6434 55.3301 35.2892 53.9232 38.6911C52.5163 42.0929 50.4527 45.1842 47.8505 47.7881C45.2482 50.392 42.1583 52.4575 38.7573 53.8666C35.3563 55.2756 31.7109 56.0006 28.0296 56ZM2.29046 19.4415C2.29238 19.4518 2.29238 19.4623 2.29046 19.4726C1.05763 23.2014 0.649101 27.1534 1.09312 31.0555C1.53714 34.9577 2.82311 38.7169 4.86216 42.0734C6.90122 45.4299 9.64474 48.3036 12.9031 50.496C16.1615 52.6884 19.8571 54.1472 23.7345 54.7716C27.6118 55.396 31.5785 55.171 35.3605 54.1123C39.1424 53.0536 42.6494 51.1864 45.639 48.6397C48.6287 46.093 51.0297 42.9275 52.6763 39.362C54.3228 35.7965 55.1755 31.916 55.1756 27.9887C55.1756 27.8422 55.1756 27.7002 55.1756 27.5449C55.0987 23.1035 53.9332 18.7487 51.7814 14.8626C49.6296 10.9764 46.5571 7.67765 42.8334 5.25552C39.1098 2.83338 34.8487 1.3619 30.4239 0.970111C25.9991 0.578326 21.5457 1.27821 17.4544 3.00838C12.1489 5.28698 7.6979 9.18198 4.73568 14.1384C3.73158 15.8126 2.91173 17.5907 2.29046 19.4415Z" fill="#003D31"/>
<path d="M30.3328 42.4914C29.7957 42.4908 29.2618 42.41 28.7485 42.2518C28.1114 42.0782 27.5254 41.7537 27.0403 41.3057C26.5551 40.8576 26.1851 40.2993 25.9616 39.6779C25.9006 39.5131 25.8691 39.3388 25.8684 39.1631C25.8684 38.1513 26.929 37.9205 27.6968 37.7563C27.8787 37.7164 28.0607 37.6764 28.2249 37.6276C29.1124 37.3658 29.6494 36.4605 30.213 35.5063C30.3239 35.3155 30.4349 35.1247 30.5503 34.9427C31.4378 33.5227 33.0266 32.4887 34.3712 33.2475C34.4732 33.3053 34.5481 33.401 34.5798 33.5138C34.6795 33.499 34.7814 33.5186 34.8685 33.5694C34.9556 33.6202 35.0228 33.6992 35.0591 33.7934C35.9999 36.2519 35.6848 39.7001 33.2618 41.5462C32.4141 42.1711 31.3859 42.503 30.3328 42.4914ZM33.4082 33.8821C32.6138 33.8821 31.7485 34.6898 31.3047 35.4131C31.1938 35.5862 31.0872 35.7726 30.9763 35.9546C30.3816 36.9664 29.7071 38.1158 28.4778 38.4797C28.2914 38.5329 28.0873 38.5773 27.8832 38.6217C27.1199 38.7903 26.7604 38.9146 26.756 39.1764C26.7629 39.2521 26.7793 39.3266 26.8048 39.3983C26.9865 39.8861 27.283 40.3231 27.6692 40.6722C28.0554 41.0214 28.52 41.2724 29.0237 41.4042C29.6431 41.6069 30.3014 41.6615 30.9457 41.5636C31.59 41.4657 32.2024 41.2181 32.7337 40.8406C34.8061 39.2607 35.0591 36.2608 34.2381 34.1084C34.2356 34.0967 34.2356 34.0846 34.2381 34.0729C34.1387 34.0884 34.037 34.0696 33.9496 34.0197C33.7847 33.9263 33.5977 33.8788 33.4082 33.8821Z" fill="#003D31"/>
<path d="M26.057 28.3903H25.9106C24.4909 28.3355 23.1427 27.7532 22.1296 26.7572C22.0851 26.7126 22.0507 26.6591 22.0285 26.6002C22.0063 26.5412 21.9969 26.4783 22.0009 26.4155C22.005 26.3533 22.0222 26.2928 22.0512 26.2378C22.0803 26.1827 22.1206 26.1344 22.1695 26.0959C22.7889 25.6118 23.5106 25.2753 24.2796 25.1123C25.0487 24.9493 25.8448 24.9639 26.6073 25.1551C26.721 25.1847 26.8184 25.2581 26.878 25.3593C27.0909 25.3177 27.3113 25.3398 27.5117 25.4226C27.7122 25.5055 27.8838 25.6455 28.0052 25.8252C28.1808 26.0533 28.2857 26.3279 28.307 26.615C28.3283 26.902 28.2651 27.1891 28.1251 27.4406C27.89 27.7622 27.5766 28.0183 27.2146 28.1845C26.8526 28.3507 26.4541 28.4216 26.057 28.3903ZM23.1636 26.482C23.9605 27.1031 24.9321 27.4585 25.9417 27.4983C26.1991 27.4983 27.0644 27.4983 27.3839 26.9746C27.4297 26.8734 27.4469 26.7615 27.4336 26.6512C27.4203 26.5409 27.377 26.4363 27.3085 26.3489C27.233 26.2468 27.1532 26.2069 27.0733 26.2246C26.9795 26.2496 26.8801 26.2432 26.7904 26.2063C26.7006 26.1695 26.6254 26.1042 26.5763 26.0205C26.5191 26.0319 26.4603 26.0319 26.4032 26.0205C25.31 25.7505 24.1544 25.9211 23.1858 26.4953L23.1636 26.482Z" fill="#003D31"/>
<path d="M48.4435 46.978C48.4096 46.9826 48.3753 46.9826 48.3414 46.978C48.2647 46.9597 48.1942 46.9212 48.1373 46.8666C48.0803 46.812 48.039 46.7432 48.0174 46.6673C47.8302 45.9998 47.6952 45.3188 47.6136 44.6304C47.0944 40.0018 49.6683 35.8303 51.9405 32.1513L52.078 31.9294C53.0292 30.3022 54.0955 28.745 55.2688 27.2698C55.3266 27.2014 55.4037 27.152 55.49 27.1283C55.5764 27.1045 55.6679 27.1074 55.7525 27.1366C55.8378 27.1654 55.9124 27.2194 55.9663 27.2915C56.0202 27.3637 56.0509 27.4505 56.0543 27.5405C56.0543 27.6958 56.0543 27.8467 56.0543 27.9842C56.0636 34.9548 53.4642 41.6765 48.7674 46.8271C48.7268 46.8733 48.6771 46.9106 48.6213 46.9366C48.5655 46.9626 48.505 46.9767 48.4435 46.978ZM55.1534 28.8496C54.3147 29.9857 53.5602 31.2016 52.828 32.3998L52.6904 32.6217C50.4937 36.172 48.0041 40.2103 48.4923 44.5372C48.5234 44.8079 48.5766 45.1807 48.6698 45.62C52.6811 40.9333 54.9688 35.0157 55.1534 28.8496Z" fill="#003D31"/>
<path d="M51.4434 25.2993C49.7413 25.2898 48.0699 24.8452 46.5879 24.0079C45.106 23.1706 43.8627 21.9684 42.9761 20.5154C42.8962 20.3823 42.8208 20.2447 42.7453 20.1071C42.5157 19.615 42.195 19.1708 41.8001 18.798C41.2192 18.4122 40.5541 18.1717 39.8608 18.0968C39.0465 18.0001 38.2665 17.7128 37.5842 17.2581C35.8313 15.9001 36.3105 13.3839 36.6966 11.3647L36.7632 11.0274C37.42 7.54376 36.5635 3.83821 34.5798 1.58825C34.5166 1.51671 34.4781 1.42669 34.4701 1.33155C34.4621 1.23642 34.485 1.14124 34.5354 1.06015C34.5854 0.979833 34.6597 0.917574 34.7475 0.882448C34.8353 0.847323 34.932 0.841171 35.0236 0.86489C40.3659 2.22468 45.1856 5.13684 48.8741 9.2337C52.5626 13.3306 54.9546 18.4284 55.748 23.8837C55.7575 23.9737 55.7392 24.0645 55.6955 24.1438C55.6519 24.2231 55.5851 24.2872 55.504 24.3275C54.5577 24.7895 53.5407 25.0896 52.4951 25.215C52.1464 25.263 51.7953 25.2912 51.4434 25.2993ZM36.0531 2.0764C37.6241 4.5305 38.2454 7.95648 37.633 11.1916L37.5709 11.5333C37.2114 13.4061 36.8076 15.5273 38.1256 16.5569C38.7032 16.9209 39.3555 17.15 40.0338 17.227C40.8709 17.3242 41.6703 17.6293 42.3592 18.1146C42.8465 18.5565 43.2417 19.0904 43.5219 19.6855L43.7438 20.0761C44.634 21.5338 45.9188 22.7096 47.4495 23.4675C48.9801 24.2253 50.6941 24.5343 52.3931 24.3585C53.2312 24.2579 54.0495 24.032 54.8205 23.6884C54.0331 18.6884 51.8559 14.0103 48.5375 10.1882C45.2191 6.36601 40.8931 3.55364 36.0531 2.07197V2.0764Z" fill="#003D31"/>
<path d="M6.72825 45.8996C6.6627 45.8992 6.59806 45.8842 6.53898 45.8558C6.47989 45.8274 6.42783 45.7863 6.38654 45.7354C3.39891 42.0855 1.38037 37.7408 0.517769 33.1036C-0.344828 28.4663 -0.0235974 23.6864 1.45172 19.2063C1.4786 19.1141 1.53466 19.0331 1.61148 18.9755C2.46901 18.3158 3.3961 17.7518 4.37622 17.2936L4.45166 17.2537C4.90293 17.1072 5.29808 16.8252 5.5833 16.446C5.92057 15.8247 5.36141 14.9638 4.63361 14.5511C4.49055 14.4677 4.34233 14.3936 4.18983 14.3292C4.13065 14.3049 4.07741 14.2682 4.03376 14.2215C3.9901 14.1748 3.95705 14.1192 3.93688 14.0585C3.91661 13.9978 3.90968 13.9335 3.91657 13.8699C3.92347 13.8064 3.94402 13.745 3.97682 13.6901C7.03312 8.58525 11.62 4.57293 17.086 2.22289C17.151 2.19565 17.2215 2.18426 17.2917 2.18966C17.3619 2.19506 17.4299 2.2171 17.4899 2.25395C20.4762 4.07087 23.3241 6.10596 26.0104 8.3426C27.9009 9.91358 29.7115 11.6931 30.1775 14.054C30.3055 14.7903 30.2662 15.5459 30.0626 16.2649C29.8591 16.9839 29.4964 17.6479 29.0015 18.2078C28.6617 18.6144 28.2303 18.9346 27.7428 19.1421C27.2552 19.3496 26.7254 19.4385 26.1968 19.4016C25.8464 19.3619 25.5004 19.2906 25.1628 19.1885C24.8862 19.109 24.6045 19.0483 24.3196 19.0066C23.9247 18.9752 23.5277 19.0299 23.1561 19.1671C22.7845 19.3042 22.4471 19.5205 22.1673 19.801C21.6993 20.2638 21.3311 20.8176 21.0853 21.4282C20.8396 22.0388 20.7215 22.6932 20.7383 23.3512C20.8094 25.1263 21.6259 26.8526 22.4469 28.5035C22.6688 28.9472 22.8907 29.4132 23.0948 29.8659C23.5075 30.7756 23.8936 31.8451 23.6318 32.8969C23.0771 35.0847 20.3434 35.5596 19.194 35.6882L18.6215 35.7371C17.1615 35.8613 15.6526 35.9945 14.7251 36.9486C14.308 37.3924 14.2814 38.9589 14.2814 40.3568C14.2814 42.4781 14.2814 44.6748 13.0521 45.3316C12.3642 45.7088 11.4456 45.5135 10.2519 44.7369C10.0212 44.5837 9.80038 44.4162 9.59062 44.2354C9.02702 43.7916 8.65425 43.4943 8.25928 43.5875C7.74894 43.7029 7.51817 44.3996 7.29628 45.0786C7.25634 45.2073 7.2164 45.3316 7.17203 45.4558L7.10546 45.6289C7.07786 45.7013 7.03179 45.7651 6.97184 45.8142C6.91189 45.8632 6.84015 45.8957 6.76375 45.9085L6.72825 45.8996ZM8.45011 42.6689C9.13353 42.6689 9.68825 43.1127 10.1897 43.5564C10.3725 43.7164 10.5652 43.8646 10.7666 44.0002C11.6542 44.5683 12.2977 44.7635 12.666 44.5594C13.4204 44.1511 13.4249 42.052 13.4293 40.3612C13.4293 38.5861 13.4293 37.024 14.1038 36.3362C15.2665 35.1468 17.0195 35.0048 18.5416 34.8628L19.1052 34.814C19.8552 34.7386 22.3404 34.3702 22.7664 32.6883C22.9617 31.9072 22.651 31.0508 22.2827 30.2431C22.0786 29.7993 21.8611 29.3555 21.6437 28.9117C20.8005 27.1766 19.9262 25.3837 19.8685 23.4044C19.8451 22.6177 19.9848 21.8345 20.2789 21.1044C20.5729 20.3742 21.0149 19.7129 21.5771 19.1619C21.9465 18.7922 22.3931 18.5086 22.8848 18.3314C23.3765 18.1542 23.9013 18.0877 24.4217 18.1368C24.7554 18.176 25.0851 18.2443 25.4069 18.3409C25.6967 18.429 25.9937 18.4914 26.2945 18.5273C26.6845 18.5511 27.0747 18.4832 27.4338 18.3291C27.7929 18.1749 28.111 17.9389 28.3625 17.6398C28.7631 17.1807 29.0569 16.6385 29.2226 16.0522C29.3884 15.4659 29.422 14.8501 29.321 14.2493C28.9127 12.1635 27.2264 10.5171 25.4602 9.05264C22.862 6.87523 20.1093 4.88928 17.2236 3.11045C12.1552 5.33054 7.87754 9.03272 4.95313 13.7301L5.04189 13.7789C6.12914 14.3913 6.93238 15.7493 6.33772 16.8853C5.97002 17.4431 5.42883 17.8642 4.79781 18.0835L4.72237 18.119C3.84076 18.5303 3.00482 19.033 2.22833 19.619C0.865823 23.8151 0.546551 28.2801 1.29816 32.6273C2.04977 36.9746 3.84961 41.0732 6.54186 44.5683C6.79925 43.7916 7.16315 42.9352 8.06402 42.731C8.18409 42.6966 8.30764 42.6758 8.43236 42.6689H8.45011Z" fill="#003D31"/>
</svg>
