<svg width="148" height="148" viewBox="0 0 148 148" fill="none" xmlns="http://www.w3.org/2000/svg">
<path d="M138.913 42.89C137.749 40.4371 136.435 38.0587 134.978 35.7685C134.507 34.9844 133.994 34.1931 133.438 33.3947C130.755 29.4856 127.681 25.8598 124.263 22.5734C112.445 10.9258 96.9484 3.74437 80.4221 2.25682C78.2835 2.08573 76.1449 2.00019 74.0063 2.00019C66.003 1.98203 58.0527 3.29746 50.4818 5.89242L48.942 6.44845C37.4899 10.6872 27.3061 17.7729 19.3508 27.0375C11.3955 36.302 5.93095 47.44 3.47235 59.4014C1.01376 71.3627 1.64215 83.7531 5.29829 95.4043C8.95443 107.056 15.5178 117.584 24.3696 125.996C32.0438 133.293 41.2389 138.8 51.2945 142.121C52.3851 142.484 53.433 142.826 54.6306 143.147C56.1063 143.554 57.6247 143.917 59.1217 144.238C64.0425 145.286 69.0606 145.809 74.0918 145.799C86.2335 145.785 98.174 142.698 108.801 136.824C119.427 130.951 128.394 122.483 134.865 112.21C141.336 101.936 145.101 90.1917 145.809 78.0707C146.516 65.9497 144.144 53.8469 138.913 42.89V42.89Z" stroke="#003D31" stroke-width="3.20789" stroke-miterlimit="10" stroke-dasharray="14.97 14.97"/>
<path d="M127.001 73.8997C127 81.789 125.238 89.5786 121.842 96.6996C118.446 103.821 113.503 110.093 107.372 115.059C101.242 120.025 94.0802 123.559 86.4094 125.403C78.7387 127.247 70.7529 127.355 63.0353 125.718C61.9232 125.482 60.8967 125.204 59.7419 124.905C62.9604 122.4 65.7177 119.353 67.8899 115.902C68.6879 113.863 68.9885 111.664 68.7667 109.486C68.7667 103.07 67.4622 94.8365 71.8891 93.1256C75.6125 91.4292 79.6458 90.5192 83.7369 90.4524C90.1526 90.7518 92.5906 95.6705 97.3383 101.701C100.375 105.529 101.038 96.0127 102.813 83.395C104.773 69.6624 110.328 56.692 118.917 45.7986C119.994 47.4902 120.966 49.2473 121.825 51.0595C125.229 58.1929 126.997 65.996 127.001 73.8997Z" fill="#FFFAA4" stroke="#003D31" stroke-width="3.20789" stroke-miterlimit="10"/>
<path d="M118.917 45.7986C110.332 56.7128 104.771 69.6939 102.792 83.4378C101.038 96.0341 100.375 105.572 97.3383 101.744C92.5906 95.7133 90.2168 90.7945 83.7369 90.4951C79.6401 90.5523 75.5992 91.4551 71.8677 93.147C67.4408 94.8578 68.6384 103.134 68.7454 109.507C68.9671 111.685 68.6665 113.884 67.8685 115.923C65.6963 119.375 62.939 122.422 59.7205 124.926C58.8864 124.691 58.0524 124.456 57.2397 124.178C49.887 121.734 43.1573 117.712 37.5219 112.394C35.64 94.9648 24.9256 67.2486 35.3833 71.7611C40.1738 73.8997 42.847 75.2684 45.3064 75.4608H46.0335C48.664 75.4608 51.3372 74.0066 56.4271 70.6276C59.9344 68.2966 64.5751 65.0673 71.1406 60.7046C87.3511 50.0116 78.4759 45.0287 69.002 38.2921C63.6341 34.5068 58.0524 30.1227 56.8334 23.8139C62.359 21.91 68.1619 20.9344 74.0063 20.9268C75.5888 20.9268 77.1928 20.9268 78.754 21.1192C90.9207 22.2193 102.328 27.5108 111.025 36.0894C113.546 38.5329 115.81 41.2272 117.783 44.1305C118.19 44.6437 118.575 45.2212 118.917 45.7986Z" fill="#68E1FD" stroke="#003D31" stroke-width="3.20789" stroke-miterlimit="10"/>
<path d="M71.0764 60.6832C64.511 64.9604 59.8702 68.2752 56.3629 70.6062C51.2731 73.9852 48.5998 75.3967 45.9694 75.4395H45.2423C42.7829 75.247 40.1096 73.8569 35.3192 71.7397C24.9043 67.1631 35.6186 94.8792 37.4578 112.373C30.9146 106.173 26.0615 98.407 23.3578 89.8083C20.654 81.2097 20.1892 72.0634 22.0071 63.2349C23.825 54.4064 27.8657 46.1879 33.7466 39.357C39.6275 32.5261 47.1542 27.3088 55.6144 24.1988L56.7479 23.7925C57.9669 30.1013 63.5486 34.4854 68.9165 38.2707C78.4118 45.0073 87.287 49.9902 71.0764 60.6832Z" fill="#FFFAA4" stroke="#003D31" stroke-width="3.20789" stroke-miterlimit="10"/>
<path d="M111.025 36.0251C110.077 37.1614 108.856 38.0373 107.475 38.57C97.5308 42.4195 80.4221 34.9986 78.754 21.1191C90.9124 22.2017 102.318 27.4701 111.025 36.0251Z" fill="#FFFAA4" stroke="#003D31" stroke-width="3.20789" stroke-miterlimit="10"/>
</svg>
