<svg width="36" height="36" viewBox="0 0 36 36" fill="none" xmlns="http://www.w3.org/2000/svg">
<circle cx="18" cy="18" r="18" fill="#003D31"/>
<path d="M11.0761 12.686C11.0761 12.2198 11.2398 11.8352 11.5672 11.5322C11.8947 11.2291 12.3204 11.0776 12.8443 11.0776C13.3588 11.0776 13.7751 11.2268 14.0932 11.5252C14.4207 11.8329 14.5844 12.2338 14.5844 12.728C14.5844 13.1755 14.4254 13.5485 14.1073 13.8469C13.7798 14.1546 13.3495 14.3084 12.8162 14.3084H12.8022C12.2876 14.3084 11.8713 14.1546 11.5532 13.8469C11.2351 13.5392 11.0761 13.1522 11.0761 12.686ZM11.2585 24.9238V15.5811H14.3739V24.9238H11.2585ZM16.1 24.9238H19.2154V19.707C19.2154 19.3807 19.2528 19.1289 19.3276 18.9518C19.4586 18.6347 19.6574 18.3667 19.9241 18.1476C20.1907 17.9284 20.5251 17.8189 20.9274 17.8189C21.9753 17.8189 22.4992 18.5229 22.4992 19.9308V24.9238H25.6145V19.5671C25.6145 18.1872 25.2871 17.1406 24.6322 16.4273C23.9773 15.714 23.1119 15.3574 22.0361 15.3574C20.8292 15.3574 19.889 15.8748 19.2154 16.9098V16.9378H19.2013L19.2154 16.9098V15.5811H16.1C16.1187 15.8795 16.1281 16.8072 16.1281 18.3644C16.1281 19.9215 16.1187 22.1079 16.1 24.9238Z" fill="white"/>
</svg>
