<svg width="28" height="28" viewBox="0 0 28 28" fill="none" xmlns="http://www.w3.org/2000/svg">
<circle cx="14" cy="14" r="14" fill="#FFFAE9"/>
<path d="M12.5865 10.1265C12.0401 10.7876 11.1636 11.8482 10.9721 13.1245C10.8975 13.6211 10.823 14.4987 11.883 14.6973C12.8524 14.8791 13.9533 16.5186 12.6283 18.2571C11.975 19.1143 9.45079 19.7472 8.32208 17.0981C7.68718 15.608 7.5602 11.9324 12.1314 9.15083C12.6211 8.85284 13.3828 8.98529 12.9596 9.64753C12.8822 9.76865 12.7489 9.92991 12.5865 10.1265Z" fill="#F8CD53"/>
<path d="M19.347 10.1265C18.8006 10.7876 17.9241 11.8482 17.7326 13.1245C17.6581 13.6211 17.5836 14.4987 18.6436 14.6973C19.613 14.8791 20.7139 16.5186 19.3889 18.2571C18.7356 19.1143 16.2113 19.7472 15.0826 17.0981C14.4477 15.608 14.3208 11.9324 18.892 9.15083C19.3817 8.85284 20.1434 8.98529 19.7201 9.64753C19.6427 9.76865 19.5095 9.92991 19.347 10.1265Z" fill="#F8CD53"/>
</svg>
