<svg width="36" height="36" viewBox="0 0 36 36" fill="none" xmlns="http://www.w3.org/2000/svg">
<circle cx="18" cy="18" r="18" fill="#003D31"/>
<path d="M26.9999 12.7168C26.3306 12.9948 25.6173 13.1791 24.8737 13.2685C25.6387 12.8361 26.2226 12.1566 26.4971 11.3375C25.7838 11.7401 24.9963 12.0245 24.1571 12.1832C23.4798 11.5005 22.5146 11.0776 21.4616 11.0776C19.4186 11.0776 17.7738 12.6476 17.7738 14.5722C17.7738 14.8491 17.7986 15.1154 17.8593 15.3689C14.7914 15.2272 12.0768 13.8352 10.2532 11.7146C9.93481 12.2375 9.74806 12.8361 9.74806 13.4805C9.74806 14.6904 10.4062 15.763 11.3872 16.3839C10.7943 16.3733 10.2127 16.2103 9.71994 15.9536C9.71994 15.9643 9.71994 15.9781 9.71994 15.992C9.71994 17.6897 10.9991 19.0999 12.6764 19.4247C12.3761 19.5025 12.0487 19.5398 11.7089 19.5398C11.4727 19.5398 11.2342 19.527 11.0103 19.4801C11.4884 20.8637 12.8452 21.8808 14.4584 21.9138C13.2029 22.8437 11.6088 23.4039 9.88306 23.4039C9.58044 23.4039 9.29019 23.3911 8.99994 23.356C10.6346 24.354 12.5718 24.9238 14.6609 24.9238C21.4514 24.9238 25.1639 19.5983 25.1639 14.9823C25.1639 14.8278 25.1583 14.6787 25.1504 14.5307C25.8828 14.0386 26.4982 13.424 26.9999 12.7168Z" fill="white"/>
</svg>
