<svg width="470" height="380" viewBox="0 0 470 380" fill="none" xmlns="http://www.w3.org/2000/svg">
<path d="M426.205 0.892334V322.678L469.108 367.329V0.892334H426.205Z" fill="white"/>
<path d="M469.108 368.221C468.867 368.221 468.636 368.124 468.465 367.954L425.634 323.338C425.476 323.168 425.387 322.946 425.384 322.713V0.892312C425.382 0.775982 425.403 0.660344 425.446 0.55218C425.489 0.444017 425.553 0.345501 425.634 0.2624C425.716 0.179298 425.813 0.113286 425.92 0.0682278C426.027 0.02317 426.143 -2.42139e-05 426.259 1.89688e-08H469.09C469.327 1.89688e-08 469.554 0.0940105 469.721 0.261351C469.888 0.428692 469.982 0.655656 469.982 0.892312V367.347C469.981 367.523 469.928 367.695 469.83 367.841C469.731 367.987 469.592 368.101 469.429 368.168C469.325 368.202 469.217 368.22 469.108 368.221ZM427.098 322.321L468.233 365.152V1.78462H427.098V322.321Z" fill="#003D31"/>
<path d="M426.223 0.892334H43.7963V322.678H426.223V0.892334Z" fill="white"/>
<path d="M426.206 323.57H43.7964C43.5598 323.57 43.3328 323.476 43.1655 323.309C42.9981 323.141 42.9041 322.914 42.9041 322.678V0.892312C42.9041 0.655656 42.9981 0.428692 43.1655 0.261351C43.3328 0.0940104 43.5598 0 43.7964 0H426.206C426.442 0 426.669 0.0940104 426.836 0.261351C427.004 0.428692 427.098 0.655656 427.098 0.892312V322.678C427.098 322.914 427.004 323.141 426.836 323.309C426.669 323.476 426.442 323.57 426.206 323.57ZM44.6709 321.785H425.331V1.78462H44.6709V321.785Z" fill="#003D31"/>
<path d="M226.078 313.951H65.2833C65.048 313.946 64.8237 313.851 64.6573 313.685C64.491 313.518 64.3955 313.294 64.3909 313.059V17.0253C64.3909 16.7887 64.485 16.5617 64.6523 16.3943C64.8196 16.227 65.0466 16.133 65.2833 16.133H226.078C226.314 16.133 226.541 16.227 226.709 16.3943C226.876 16.5617 226.97 16.7887 226.97 17.0253V313.059C226.966 313.294 226.87 313.518 226.704 313.685C226.537 313.851 226.313 313.946 226.078 313.951ZM66.1756 312.166H225.185V17.9176H66.1756V312.166Z" fill="#D1D3D4"/>
<path d="M404.772 313.951H243.924C243.689 313.946 243.464 313.851 243.298 313.685C243.132 313.518 243.036 313.294 243.032 313.059V17.0253C243.032 16.7887 243.126 16.5617 243.293 16.3943C243.46 16.227 243.687 16.133 243.924 16.133H404.718C404.955 16.133 405.182 16.227 405.349 16.3943C405.517 16.5617 405.611 16.7887 405.611 17.0253V313.059C405.607 313.285 405.519 313.502 405.364 313.667C405.209 313.832 404.998 313.933 404.772 313.951ZM244.87 312.166H403.88V17.9176H244.87V312.166Z" fill="#D1D3D4"/>
<path d="M469.108 367.329H0.893936L43.7963 322.678H426.205L469.108 367.329Z" fill="white"/>
<path d="M469.108 368.221H0.89401C0.720356 368.22 0.550794 368.168 0.405333 368.073C0.259872 367.979 0.144585 367.844 0.0730851 367.686C0.00317539 367.526 -0.0171882 367.348 0.0146197 367.177C0.0464277 367.005 0.128946 366.847 0.251545 366.722L43.0825 322.107C43.1633 322.016 43.2623 321.944 43.3731 321.895C43.4838 321.846 43.6038 321.82 43.725 321.821H426.205C426.327 321.82 426.447 321.846 426.557 321.895C426.668 321.944 426.767 322.016 426.848 322.107L469.679 366.722C469.801 366.847 469.884 367.005 469.916 367.177C469.948 367.348 469.927 367.526 469.857 367.686C469.791 367.834 469.687 367.961 469.555 368.055C469.423 368.149 469.269 368.207 469.108 368.221ZM2.99987 366.454H467.002L425.813 323.623H44.1711L2.99987 366.454Z" fill="#003D31"/>
<path d="M0.893936 0.892334V367.329L43.7963 322.678V0.892334H0.893936Z" fill="white"/>
<path d="M0.894028 368.221C0.78177 368.24 0.667203 368.24 0.554945 368.221C0.391992 368.154 0.252499 368.041 0.154048 367.895C0.0555963 367.748 0.00259597 367.577 0.00171661 367.4V0.892312C0.00171661 0.655656 0.0957271 0.428692 0.263068 0.261351C0.430409 0.0940105 0.657372 1.89688e-08 0.894028 1.89688e-08H43.725C43.8413 -2.42139e-05 43.9565 0.02317 44.0638 0.0682278C44.1711 0.113286 44.2683 0.179298 44.3497 0.2624C44.4312 0.345501 44.4952 0.444017 44.5381 0.55218C44.581 0.660344 44.6018 0.775982 44.5994 0.892312V322.678C44.5972 322.91 44.5081 323.133 44.3496 323.302L1.51864 367.918C1.35871 368.098 1.13415 368.207 0.894028 368.221ZM1.76849 1.78462V365.134L42.8148 322.303V1.78462H1.76849Z" fill="#003D31"/>
<path d="M44.5994 233.268C40.8339 233.946 13.9396 233.5 14.475 238.854C15.0104 244.208 28.1095 297.747 31.8216 312.113C35.5336 326.479 45.6167 338.882 55.1644 344.236C64.7122 349.59 93.7123 326.283 100.173 324.605C106.633 322.928 44.5994 233.268 44.5994 233.268Z" fill="#003D31"/>
<path d="M58.6266 345.896C57.2686 345.941 55.922 345.634 54.7183 345.003C45.7952 339.971 35.0875 327.924 30.9471 312.327C27.1816 297.782 14.1181 244.404 13.5828 238.943C13.5511 238.595 13.5918 238.244 13.7024 237.912C13.813 237.581 13.991 237.275 14.2252 237.016C16.8486 233.982 27.7884 233.25 38.7459 232.768C41.3693 232.643 43.618 232.536 44.4567 232.394C44.623 232.367 44.7934 232.388 44.9481 232.455C45.1028 232.521 45.2356 232.63 45.3312 232.768C55.1288 247.045 103.885 318.055 101.404 324.623C101.32 324.845 101.184 325.044 101.007 325.202C100.829 325.361 100.617 325.474 100.387 325.533C98.4773 325.997 94.1228 328.728 89.0723 331.868C79.3461 337.936 66.5861 345.896 58.6266 345.896ZM44.189 234.232C43.0826 234.357 41.2266 234.446 38.8352 234.535C31.5361 234.874 17.9372 235.481 15.6351 238.104C15.5567 238.18 15.4955 238.272 15.4555 238.374C15.4155 238.475 15.3976 238.584 15.4031 238.693C15.9385 243.958 29.0733 297.729 32.7318 311.863C36.6401 326.943 47.0087 338.632 55.6463 343.433C61.714 346.841 77.6329 336.919 88.18 330.334C91.837 327.793 95.7342 325.618 99.8157 323.838C100.672 318.537 66.4254 266.462 44.189 234.232Z" fill="#003D31"/>
<path d="M145.341 200.36C145.341 200.36 20.15 195.274 19.6146 204.197C19.0792 213.12 81.4875 344.664 90.6069 346.592C99.7263 348.519 100.672 339.846 104.17 340.72C107.668 341.595 142.968 330.726 154.14 321.089C165.311 311.452 135.33 238.604 136.632 229.574C137.935 220.544 155.621 201.645 145.341 200.36Z" fill="white"/>
<path d="M93.0876 347.787C92.1928 347.784 91.301 347.683 90.4285 347.484C84.2716 346.199 60.5897 298.799 50.685 278.473C34.9803 246.224 18.4369 209.211 18.7224 204.197C18.8473 202.251 19.0972 197.701 82.6833 198.04C113.7 198.182 145.145 199.467 145.377 199.485C146.107 199.502 146.819 199.709 147.445 200.084C148.07 200.46 148.588 200.991 148.946 201.627C150.57 204.893 147.055 210.907 143.343 217.278C140.648 221.864 137.882 226.629 137.418 229.77C136.972 232.715 140.416 243.922 144.396 256.879C152.373 282.881 162.242 315.236 154.604 321.821C143.36 331.458 107.722 342.523 103.885 341.541C103.099 341.363 102.403 342.077 101.226 343.326C100.304 344.646 99.0901 345.735 97.6786 346.509C96.2671 347.283 94.696 347.72 93.0876 347.787ZM78.8107 199.664C41.6727 199.664 20.739 201.537 20.5784 204.214C20.3286 208.23 34.6056 241.174 52.3625 277.634C74.7596 323.766 87.823 345.182 90.7855 345.753C95.8895 346.824 98.0667 344.397 99.9763 342.184C101.297 340.72 102.528 339.364 104.402 339.828C107.4 340.56 142.361 330.03 153.515 320.465C160.314 314.647 149.749 280.204 142.807 257.414C138.596 243.69 135.276 232.858 135.758 229.502C136.24 226.147 139.149 221.043 141.915 216.296C145.074 210.942 148.661 204.75 147.465 202.341C147.23 201.983 146.91 201.689 146.533 201.486C146.156 201.284 145.734 201.179 145.306 201.181C119.5 200.199 97.1387 199.735 78.7393 199.735L78.8107 199.664Z" fill="#003D31"/>
<path d="M373.238 318.127C373.238 318.127 392.333 317.592 394.814 316.342C397.294 315.093 411.607 296.533 414.962 292.107C418.317 287.681 419.21 282.559 421.512 281.506C423.814 280.454 425.224 278.669 426.098 281.506C426.973 284.344 422.208 304.707 418.96 315.807C415.712 326.907 412.071 341.809 409.412 343.576C406.753 345.342 399.686 343.04 397.741 341.095C395.534 339.308 393.14 337.764 390.602 336.491C390.602 336.491 367.777 336.669 367.402 336.152C367.027 335.634 373.238 318.127 373.238 318.127Z" fill="white"/>
<path d="M406.771 345.182C403.301 345.092 399.948 343.912 397.187 341.809C395.13 340.129 392.898 338.675 390.531 337.472C367.455 337.651 367.17 337.222 366.831 336.723C366.492 336.223 366.242 335.83 372.399 317.913C372.452 317.74 372.558 317.588 372.702 317.479C372.846 317.37 373.021 317.309 373.202 317.306C380.519 317.11 392.726 316.467 394.403 315.628C396.081 314.79 407.11 301.066 414.248 291.661C415.582 289.825 416.702 287.843 417.586 285.754C418.71 283.38 419.602 281.489 421.155 280.775C421.612 280.57 422.053 280.331 422.475 280.061C423.51 279.472 424.474 278.919 425.456 279.293C425.843 279.5 426.179 279.789 426.442 280.141C426.704 280.493 426.885 280.898 426.973 281.328C428.043 284.754 422.422 307.312 419.834 316.146C419.317 317.931 418.781 319.876 418.246 321.803C414.677 334.456 412.25 342.844 409.93 344.396C408.972 344.953 407.877 345.225 406.771 345.182ZM390.709 335.705C390.839 335.678 390.972 335.678 391.102 335.705C393.704 337.019 396.152 338.617 398.401 340.47C400.185 342.255 406.789 344.272 408.948 342.826C411.107 341.38 414.159 329.798 416.55 321.232C417.086 319.305 417.621 317.377 418.139 315.557C421.851 302.565 425.938 284.041 425.277 281.756C425.027 280.971 424.813 280.864 424.813 280.864C424.813 280.864 423.814 281.257 423.368 281.524C422.922 281.792 422.44 282.06 421.904 282.309C420.941 282.738 420.12 284.451 419.227 286.432C418.264 288.624 417.067 290.706 415.658 292.642C414.944 293.588 398.151 315.646 395.189 317.127C392.779 318.323 377.539 318.912 373.773 318.912C371.864 324.498 369.097 332.832 368.419 335.348C371.471 335.58 383.16 335.598 390.566 335.545L390.709 335.705Z" fill="#003D31"/>
<path d="M166.4 345.021C166.4 345.021 263.555 332.689 270.479 332.1C277.403 331.512 375.986 338.989 379.555 338.454C383.125 337.918 384.07 315.646 384.07 315.646C384.07 315.646 288.647 289.948 261.592 291.25C245.941 292 195.204 291.25 195.204 291.25L166.4 345.021Z" fill="#003D31"/>
<path d="M166.4 345.914C166.245 345.918 166.093 345.881 165.957 345.806C165.821 345.732 165.708 345.623 165.628 345.491C165.548 345.358 165.505 345.207 165.503 345.053C165.5 344.898 165.539 344.745 165.615 344.611L194.365 290.822C194.443 290.679 194.56 290.559 194.702 290.478C194.843 290.396 195.005 290.354 195.168 290.358C195.668 290.358 246.048 291.09 261.485 290.358C288.379 289.073 380.341 313.737 384.249 314.79C384.445 314.839 384.618 314.955 384.739 315.118C384.859 315.28 384.919 315.48 384.909 315.682C384.588 322.606 383.41 338.757 379.645 339.346C378.003 339.596 360.228 338.418 331.353 336.509C304.583 334.724 274.245 332.707 270.551 332.939C263.769 333.457 167.489 345.735 166.507 345.86L166.4 345.914ZM195.739 292.143L168.06 343.897C181.498 342.112 264.055 331.672 270.479 331.19C274.209 330.905 303.352 332.832 331.531 334.76C354.303 336.277 377.842 337.847 379.43 337.615C381.019 337.383 382.554 327.532 383.142 316.36C374.434 314.04 287.023 290.947 261.627 292.179C246.958 292.839 201.218 292.214 195.739 292.143Z" fill="#003D31"/>
<path d="M300.264 309.721C300.264 309.721 309.812 325.105 310.865 328.299C311.918 331.494 311.936 340.238 314.042 344.218C316.148 348.198 376.379 347.413 376.129 345.039C375.879 342.665 350.127 332.011 343.363 327.193C336.599 322.374 318.878 296.997 318.878 296.997L300.264 309.721Z" fill="white"/>
<path d="M344.72 347.841C329.639 347.841 314.542 347.038 313.274 344.646C312.007 342.255 311.383 337.829 310.937 334.081C310.783 332.222 310.479 330.377 310.026 328.567C309.205 326.14 302.781 315.486 299.497 310.185C299.375 309.993 299.332 309.76 299.379 309.537C299.425 309.313 299.558 309.117 299.747 308.99L318.325 296.265C318.517 296.133 318.754 296.081 318.984 296.121C319.215 296.161 319.42 296.29 319.556 296.479C319.735 296.729 337.313 321.875 343.881 326.515C349.174 329.702 354.65 332.574 360.281 335.116C373.077 341.327 376.825 343.361 377.003 344.932C377.075 345.574 376.646 346.038 375.718 346.324C373.131 347.127 358.943 347.841 344.72 347.841ZM301.46 309.971C303.388 313.094 310.758 325.14 311.704 328.014C312.201 329.933 312.535 331.891 312.703 333.867C312.895 337.27 313.611 340.623 314.827 343.808C315.791 344.86 325.66 346.074 344.987 346.128C359.817 346.217 371.757 345.467 374.844 344.736C369.893 341.771 364.774 339.096 359.514 336.723C353.789 334.134 348.224 331.208 342.846 327.96C336.599 323.552 321.609 302.494 318.61 298.228L301.46 309.971Z" fill="#003D31"/>
<path d="M127.656 332.689C129.262 333.76 136.275 344.04 166.4 345.093C196.524 346.145 246.137 254.969 246.137 254.969L298.498 316.431L322.537 301.226C322.537 301.226 289.646 209.818 274.798 200.431C259.95 191.044 235.536 197.95 224.828 204.839C214.121 211.728 162.759 282.292 162.759 282.292L127.656 332.689Z" fill="#003D31"/>
<path d="M166.917 345.931H166.364C139.345 344.986 130.672 336.705 127.834 333.992C127.531 333.707 127.317 333.493 127.174 333.385C127.073 333.322 126.986 333.239 126.919 333.141C126.851 333.042 126.804 332.931 126.781 332.814C126.745 332.579 126.796 332.337 126.924 332.136L162.117 281.738C164.241 278.83 213.871 210.943 224.436 204.036C234.376 197.576 259.486 189.652 275.262 199.628C290.217 209.069 322.037 297.122 323.447 300.87C323.515 301.06 323.517 301.267 323.452 301.458C323.387 301.65 323.26 301.813 323.09 301.923L299.033 317.128C298.85 317.239 298.633 317.283 298.42 317.25C298.208 317.218 298.014 317.111 297.873 316.949L246.369 256.486C237.803 271.763 228.457 286.589 218.368 300.905C196.953 330.78 179.678 345.931 166.917 345.931ZM128.851 332.475L129.066 332.672C131.796 335.277 140.077 343.201 166.418 344.129H166.935C196.221 344.129 244.87 255.362 245.369 254.452C245.436 254.326 245.532 254.219 245.651 254.141C245.77 254.063 245.906 254.016 246.048 254.005C246.193 253.986 246.342 254.003 246.479 254.056C246.616 254.109 246.738 254.196 246.833 254.309L298.587 315.164L321.377 300.763C318.343 292.411 288.004 209.747 274.245 201.109C266.803 196.398 244.798 192.846 225.346 205.499C214.995 212.227 164.026 282.024 163.509 282.738L128.851 332.475Z" fill="#003D31"/>
<path d="M153.426 270.228C153.426 269.175 166.507 251.935 169.773 250.329C172.91 248.637 175.954 246.778 178.892 244.761L174.003 233.661C174.003 233.661 170.13 235.213 170.933 231.769C171.736 228.325 164.812 223.506 164.812 223.506C164.812 223.506 155.782 231.537 155.567 240.781C155.389 248.223 135.383 260.144 135.383 260.144L153.426 270.228Z" fill="white"/>
<path d="M153.426 271.049C153.27 271.049 153.117 271.013 152.979 270.942L134.955 260.858C134.817 260.781 134.703 260.668 134.624 260.531C134.544 260.395 134.502 260.24 134.502 260.082C134.502 259.924 134.544 259.769 134.624 259.633C134.703 259.496 134.817 259.384 134.955 259.306C140.309 256.058 154.586 246.385 154.693 240.692C154.925 231.18 163.866 223.096 164.24 222.846C164.399 222.724 164.594 222.659 164.794 222.659C164.994 222.659 165.188 222.724 165.347 222.846C166.096 223.363 172.717 228.111 171.807 232.037C171.647 232.715 171.807 233.018 171.807 233.09C171.807 233.161 173.021 233.09 173.592 232.911C173.805 232.827 174.043 232.828 174.256 232.914C174.469 233.001 174.64 233.166 174.734 233.375L179.624 244.476C179.707 244.664 179.722 244.876 179.667 245.074C179.611 245.272 179.489 245.446 179.321 245.564C176.35 247.611 173.27 249.494 170.094 251.204C167.149 252.649 154.889 268.8 154.229 270.442C154.209 270.571 154.16 270.695 154.086 270.803C154.012 270.911 153.914 271.001 153.8 271.066C153.676 271.089 153.548 271.083 153.426 271.049ZM137.15 260.037L153.069 268.961C155.603 264.553 166.489 250.9 169.398 249.49C172.276 247.938 175.07 246.234 177.768 244.386L173.503 234.696C173.029 234.854 172.526 234.903 172.032 234.838C171.537 234.773 171.063 234.596 170.647 234.321C170.296 233.957 170.054 233.5 169.95 233.005C169.846 232.509 169.883 231.994 170.058 231.519C170.504 229.592 167.328 226.433 164.883 224.595C163.009 226.379 156.62 233.268 156.46 240.746C156.299 247.545 141.897 257.093 137.15 260.037Z" fill="#003D31"/>
<path d="M127.924 134.596C110.291 112.913 81.0058 123.889 72.4396 147.356C69.0488 156.69 65.7829 165.203 59.4654 172.948C53.8259 179.926 45.0099 186.083 44.6708 195.898C44.4388 202.751 49.0075 209.086 54.8967 212.584C60.786 216.082 67.7817 217.189 74.5276 217.563C89.7872 218.402 105.053 216.031 119.339 210.603C125.157 208.39 131.957 204.857 135.026 199.075C138.792 192.025 134.669 186.672 133.099 179.444C131.814 173.465 133.759 167.362 135.044 161.383C137.221 151.497 134.241 142.431 127.924 134.596Z" fill="white"/>
<path d="M80.4703 218.616C78.4894 218.616 76.4906 218.616 74.5096 218.456C68.5668 218.117 60.9287 217.242 54.3791 213.352C47.8295 209.461 43.4929 202.501 43.6714 195.862C44.0461 188.135 49.1502 182.781 54.1471 177.427C55.7889 175.643 57.3416 174.072 58.7157 172.359C64.7834 164.864 67.9958 156.779 71.5472 147.017C76.2407 134.15 87.3232 124.495 99.7799 122.407C110.755 120.623 120.981 124.674 128.548 133.99C135.544 142.591 138.042 151.836 135.954 161.58C135.74 162.561 135.508 163.561 135.276 164.542C134.152 169.414 132.974 174.465 134.009 179.248C134.446 181.097 134.988 182.921 135.633 184.709C137.239 189.473 138.756 193.989 135.847 199.45C133.277 204.268 127.852 208.283 119.696 211.389C107.165 216.147 93.8748 218.596 80.4703 218.616ZM104.83 123.781C103.233 123.787 101.64 123.924 100.065 124.192C88.2334 126.173 77.6863 135.382 73.2961 147.66C69.7268 157.582 66.4075 165.792 60.1791 173.519C58.7514 175.304 57.0917 177.088 55.5034 178.694C50.7385 183.709 45.8129 188.885 45.5809 195.934C45.3667 201.93 49.1501 208.158 55.3606 211.835C61.5711 215.511 68.9416 216.368 74.6881 216.671C89.7764 217.466 104.865 215.121 119 209.782C126.728 206.838 131.85 203.09 134.205 198.664C136.757 193.881 135.419 189.92 133.866 185.333C133.2 183.482 132.646 181.593 132.206 179.676C131.082 174.5 132.296 169.254 133.474 164.203C133.706 163.222 133.938 162.24 134.152 161.259C136.115 152.103 133.741 143.412 127.102 135.15C121.124 127.725 113.325 123.781 104.83 123.781Z" fill="#003D31"/>
<path d="M62.4101 200.36C55.2716 209.568 56.5743 252.346 73.5461 274.618C90.5179 296.89 99.3696 325.908 137.917 340.756L168.417 278.508C168.417 278.508 143.218 256.236 142.201 249.151C141.183 242.066 146.073 231.305 142.557 221.918C127.656 182.585 69.495 191.169 62.4101 200.36Z" fill="#68E1FD"/>
<path d="M110.863 191.008L110.773 208.301C110.773 208.301 112.183 215.44 100.637 212.727C89.0901 210.014 83.9504 195.791 83.9504 195.791L84.9855 170.521C84.9855 170.521 103.046 160.848 100.476 142.27C102.753 146.565 106.297 150.054 110.627 152.264C114.957 154.473 119.862 155.296 124.675 154.62C124.675 154.62 124.961 171.217 123.587 180.158C122.213 189.099 110.863 191.008 110.863 191.008Z" fill="white"/>
<path d="M105.259 214.244C103.632 214.216 102.015 213.994 100.44 213.584C88.5547 210.764 83.3258 196.701 83.1117 196.094C83.093 195.982 83.093 195.868 83.1117 195.755L84.1467 170.485C84.1525 170.328 84.2003 170.176 84.285 170.044C84.3698 169.912 84.4885 169.806 84.6286 169.736C84.7892 169.646 102.1 160.116 99.6373 142.395C99.6113 142.187 99.6597 141.976 99.7739 141.799C99.8882 141.623 100.061 141.493 100.262 141.431C100.464 141.362 100.685 141.369 100.882 141.451C101.079 141.534 101.24 141.685 101.333 141.878C103.499 146.011 106.893 149.372 111.047 151.497C115.202 153.622 119.913 154.408 124.533 153.745C124.657 153.73 124.784 153.741 124.904 153.778C125.024 153.815 125.134 153.877 125.229 153.959C125.325 154.041 125.404 154.142 125.459 154.256C125.514 154.369 125.545 154.493 125.55 154.62C125.55 155.298 125.818 171.377 124.461 180.283C123.212 188.492 114.378 191.133 111.737 191.74L111.648 208.301C111.766 209.081 111.701 209.878 111.456 210.628C111.211 211.378 110.794 212.06 110.238 212.62C108.858 213.797 107.068 214.381 105.259 214.244ZM84.8427 195.648C85.4495 197.183 90.5357 209.408 100.904 211.87C104.902 212.816 107.739 212.638 109.078 211.335C109.43 210.953 109.692 210.496 109.843 209.998C109.994 209.501 110.032 208.976 109.952 208.462V191.008C109.957 190.798 110.035 190.597 110.171 190.437C110.308 190.278 110.495 190.171 110.702 190.134C110.809 190.134 121.41 188.206 122.695 180.015C123.566 171.914 123.93 163.766 123.783 155.619C119.535 156.066 115.244 155.382 111.345 153.636C107.447 151.89 104.079 149.145 101.582 145.679C101.69 160.795 88.4655 169.468 85.8421 171.038L84.8427 195.648Z" fill="#003D31"/>
<path d="M90.4464 169.575C89.8415 167.622 88.5845 165.936 86.8855 164.799C85.1865 163.662 83.1487 163.143 81.1128 163.329C76.098 164.114 76.1694 169.789 77.7399 173.447C78.2204 174.557 78.9162 175.561 79.7869 176.401C80.6576 177.24 81.686 177.899 82.8127 178.338C83.9394 178.778 85.1421 178.99 86.3513 178.962C87.5604 178.935 88.7521 178.668 89.8575 178.177" fill="white"/>
<path d="M86.1277 179.854C84.1668 179.858 82.2481 179.285 80.6107 178.206C78.9732 177.127 77.6894 175.59 76.919 173.787C76.2924 172.46 75.9541 171.015 75.9264 169.548C75.8987 168.08 76.1823 166.624 76.7584 165.274C77.1912 164.504 77.8 163.847 78.5351 163.357C79.2701 162.867 80.1106 162.558 80.988 162.454C83.2415 162.23 85.5029 162.797 87.3847 164.057C89.2666 165.317 90.6518 167.192 91.3031 169.361C91.3312 169.478 91.336 169.6 91.3171 169.719C91.2983 169.838 91.2561 169.952 91.1932 170.054C91.1302 170.157 91.0476 170.247 90.9501 170.317C90.8526 170.388 90.7421 170.439 90.6249 170.467C90.5077 170.495 90.3862 170.5 90.2672 170.481C90.1481 170.462 90.034 170.42 89.9312 170.357C89.8285 170.294 89.7392 170.212 89.6683 170.114C89.5975 170.017 89.5466 169.906 89.5185 169.789C88.9504 168.062 87.8218 166.575 86.3119 165.563C84.802 164.551 82.9973 164.072 81.1843 164.203C80.5772 164.265 79.9939 164.472 79.4843 164.808C78.9746 165.143 78.5537 165.597 78.2575 166.131C77.8056 167.242 77.5927 168.436 77.6326 169.635C77.6726 170.834 77.9646 172.012 78.4895 173.091C78.9196 174.096 79.5458 175.005 80.3313 175.765C81.1168 176.525 82.0459 177.121 83.0644 177.519C84.083 177.916 85.1704 178.106 86.2632 178.078C87.356 178.05 88.4323 177.805 89.4292 177.356C89.6452 177.264 89.8883 177.259 90.1078 177.342C90.3273 177.425 90.5061 177.59 90.6071 177.802C90.6543 177.91 90.6798 178.026 90.6821 178.143C90.6843 178.261 90.6633 178.378 90.6201 178.487C90.577 178.597 90.5127 178.697 90.4308 178.781C90.3489 178.866 90.2511 178.933 90.1431 178.98C88.8784 179.542 87.5118 179.84 86.1277 179.854Z" fill="#003D31"/>
<path d="M113.647 163.561C113.647 163.561 120.036 172.341 118.661 173.965C117.287 175.589 113.307 174.715 113.307 174.715" fill="white"/>
<path d="M115.52 175.839C114.682 175.829 113.846 175.746 113.022 175.589C112.785 175.539 112.578 175.398 112.446 175.195C112.314 174.993 112.267 174.746 112.317 174.509C112.367 174.273 112.508 174.066 112.711 173.933C112.913 173.801 113.16 173.755 113.397 173.804C114.557 174.054 117.198 174.268 117.965 173.358C118.251 172.537 115.895 168.165 112.915 164.043C112.843 163.95 112.792 163.844 112.763 163.731C112.734 163.618 112.729 163.5 112.747 163.384C112.765 163.269 112.807 163.159 112.87 163.06C112.932 162.962 113.015 162.877 113.111 162.811C113.301 162.677 113.537 162.622 113.767 162.659C113.997 162.695 114.203 162.82 114.342 163.007C117.448 167.273 120.838 172.734 119.322 174.5C118.819 174.981 118.221 175.349 117.565 175.579C116.91 175.81 116.213 175.899 115.52 175.839Z" fill="#003D31"/>
<path d="M108.589 162.163C109.368 162.141 109.956 160.66 109.903 158.858C109.85 157.055 109.176 155.612 108.398 155.634C107.62 155.657 107.031 157.137 107.084 158.94C107.137 160.743 107.811 162.186 108.589 162.163Z" fill="#003D31"/>
<path d="M120.6 163.56C121.378 163.537 121.966 162.057 121.913 160.254C121.86 158.451 121.187 157.008 120.408 157.031C119.63 157.054 119.042 158.534 119.095 160.337C119.148 162.139 119.821 163.582 120.6 163.56Z" fill="#003D31"/>
<path d="M110.862 191.008C110.862 191.008 104.295 192.204 96.4784 187.082C96.4784 187.082 99.3695 199.235 110.755 200.36L110.862 191.008Z" fill="#003D31"/>
<path d="M110.809 201.252C98.852 200.074 95.7289 187.403 95.6933 187.278C95.6488 187.106 95.6593 186.924 95.7233 186.757C95.7873 186.591 95.9015 186.449 96.0502 186.35C96.1977 186.251 96.3718 186.197 96.5499 186.197C96.728 186.197 96.902 186.251 97.0496 186.35C101.025 189.212 105.892 190.56 110.773 190.152C110.902 190.133 111.034 190.141 111.159 190.175C111.285 190.209 111.403 190.267 111.505 190.348C111.607 190.433 111.689 190.539 111.744 190.66C111.8 190.78 111.828 190.911 111.826 191.044V200.395C111.827 200.516 111.802 200.636 111.752 200.747C111.703 200.858 111.631 200.957 111.541 201.038C111.441 201.124 111.325 201.188 111.198 201.225C111.072 201.262 110.939 201.271 110.809 201.252ZM98.0846 189.063C99.4053 192.329 102.743 198.182 109.935 199.36V192.008C105.789 192.137 101.688 191.118 98.0846 189.063Z" fill="#003D31"/>
<path d="M103.67 169.575C103.67 169.575 103.67 187.118 119.072 181.46L103.67 169.575Z" fill="white"/>
<path d="M113.504 183.477C111.558 183.523 109.647 182.955 108.043 181.853C102.85 178.284 102.689 169.932 102.689 169.575C102.693 169.34 102.789 169.115 102.955 168.949C103.122 168.783 103.346 168.687 103.581 168.683C103.818 168.683 104.045 168.777 104.212 168.944C104.38 169.111 104.474 169.338 104.474 169.575C104.474 169.575 104.474 177.302 108.971 180.39C111.344 182.049 114.61 182.174 118.679 180.622C118.9 180.549 119.14 180.565 119.349 180.667C119.558 180.768 119.719 180.947 119.798 181.166C119.877 181.384 119.868 181.625 119.772 181.836C119.676 182.048 119.502 182.214 119.286 182.299C117.441 183.023 115.485 183.422 113.504 183.477Z" fill="#003D31"/>
<path d="M209.802 254.898C209.017 254.63 188.85 249.544 188.85 249.544C188.85 249.544 222.544 196.237 223.329 196.005C224.115 195.773 252.24 190.116 252.24 190.116L209.802 254.898Z" fill="white"/>
<path d="M209.802 255.79H209.517C208.91 255.576 196.685 252.506 188.636 250.436C188.5 250.401 188.374 250.335 188.269 250.242C188.163 250.15 188.081 250.033 188.029 249.903C187.976 249.773 187.956 249.632 187.968 249.492C187.981 249.352 188.026 249.217 188.101 249.098C222.009 195.559 222.669 195.291 223.044 195.149C223.865 194.881 247.368 190.187 252.08 189.241C252.253 189.208 252.432 189.226 252.595 189.295C252.757 189.363 252.896 189.478 252.994 189.625C253.091 189.772 253.143 189.944 253.142 190.121C253.141 190.297 253.088 190.469 252.99 190.616L210.552 255.397C210.467 255.518 210.355 255.616 210.224 255.684C210.094 255.752 209.949 255.789 209.802 255.79ZM190.26 249.026C194.365 250.061 206.322 253.077 209.409 253.881L250.349 191.419C239.819 193.525 225.774 196.362 223.811 196.773C221.795 199.378 203.056 228.789 190.26 249.026Z" fill="#003D31"/>
<path d="M188.851 249.597L164.812 236.534L197.345 189.384L223.329 196.023L188.851 249.597Z" fill="white"/>
<path d="M188.851 250.49C188.701 250.488 188.555 250.452 188.422 250.383L164.383 237.319C164.276 237.259 164.182 237.178 164.108 237.079C164.035 236.981 163.982 236.868 163.955 236.748C163.921 236.627 163.915 236.5 163.936 236.377C163.958 236.253 164.007 236.136 164.08 236.034L196.614 188.884C196.715 188.734 196.86 188.619 197.03 188.555C197.199 188.492 197.384 188.482 197.56 188.528L223.544 195.148C223.683 195.181 223.813 195.247 223.921 195.34C224.03 195.433 224.115 195.551 224.168 195.684C224.215 195.819 224.231 195.962 224.216 196.104C224.201 196.246 224.154 196.383 224.079 196.505L189.6 250.043C189.523 250.175 189.413 250.284 189.282 250.362C189.151 250.44 189.003 250.484 188.851 250.49ZM166.114 236.213L188.601 248.419L221.973 196.576L197.774 190.401L166.114 236.213Z" fill="#003D31"/>
<path d="M90.4464 262.589C90.4464 262.589 114.218 301.851 132.974 308.99C151.73 316.128 205.126 261.304 205.126 261.304C205.126 261.304 211.658 264.303 218.386 255.469C222.495 250.002 225.761 243.95 228.076 237.515C228.076 237.515 231.557 230.377 230.236 226.076C229.112 222.346 225.56 229.645 225.56 229.645C225.56 229.645 219.582 238.943 216.03 238.069C212.479 237.194 215.513 227.718 214.442 224.934C213.371 222.15 208.124 232.072 206.893 236.302C205.662 240.531 199.112 248.33 196.275 250.793C193.437 253.256 151.124 282.22 147.554 281.953C143.985 281.685 118.269 250.4 118.269 250.4L90.4464 262.589Z" fill="white"/>
<path d="M136.686 310.435C135.311 310.457 133.944 310.227 132.653 309.757C113.843 302.619 90.6606 264.677 89.679 263.053C89.6262 262.939 89.5988 262.814 89.5988 262.688C89.5988 262.561 89.6262 262.436 89.679 262.322C89.7177 262.204 89.7806 262.095 89.8635 262.003C89.9465 261.911 90.0478 261.837 90.1609 261.786L117.894 249.58C118.073 249.503 118.272 249.486 118.462 249.531C118.651 249.576 118.821 249.681 118.947 249.829C131.261 264.909 145.359 280.721 147.608 281.078C151.177 281.078 192.081 253.47 195.793 250.258C198.666 247.741 205.001 240.085 206.144 236.177C207 233.197 211.265 223.792 213.942 223.685C214.27 223.67 214.592 223.769 214.855 223.964C215.118 224.159 215.306 224.438 215.388 224.755C215.763 226.578 215.793 228.454 215.477 230.288C215.227 233.107 214.888 236.962 216.369 237.337C218.35 237.801 222.58 232.929 224.918 229.288C225.828 227.397 227.72 224.042 229.54 224.184C230.075 224.184 230.789 224.559 231.182 225.862C232.592 230.52 229.129 237.658 228.969 237.962C226.653 244.458 223.355 250.561 219.189 256.058C213.228 263.91 207.339 262.964 205.465 262.393C200.379 267.426 157.352 310.435 136.686 310.435ZM91.7492 263.089C95.3184 268.871 116.573 301.869 133.277 308.187C140.63 310.953 155.228 303.707 175.502 287.199C190.974 274.6 204.341 260.965 204.484 260.823C204.611 260.693 204.776 260.606 204.955 260.574C205.134 260.542 205.319 260.566 205.483 260.644C205.733 260.751 211.497 263.196 217.672 255.076C221.716 249.679 224.939 243.713 227.238 237.373C227.238 237.194 230.575 230.466 229.379 226.469C229.349 226.298 229.275 226.139 229.165 226.005C227.987 227.243 227.038 228.681 226.363 230.252C225.257 232.037 219.778 240.121 215.816 239.175C212.872 238.443 213.264 234.089 213.603 230.252C213.807 228.749 213.836 227.229 213.692 225.719C212.229 226.826 208.803 233.125 207.732 236.784C206.447 241.21 199.862 249.062 196.863 251.703C194.526 253.756 152.248 282.952 147.483 282.952C143.753 282.684 124.515 259.556 118.001 251.596L91.7492 263.089Z" fill="#003D31"/>
<path d="M118.179 251.275C118.012 251.275 117.848 251.229 117.706 251.14C117.564 251.052 117.45 250.925 117.376 250.775L103.528 222.043C103.426 221.832 103.412 221.59 103.489 221.369C103.566 221.148 103.728 220.967 103.938 220.865C104.149 220.763 104.391 220.749 104.612 220.826C104.833 220.903 105.014 221.065 105.116 221.275L118.983 250.008C119.034 250.112 119.064 250.225 119.071 250.341C119.078 250.457 119.062 250.573 119.024 250.683C118.986 250.792 118.926 250.893 118.849 250.98C118.771 251.066 118.677 251.136 118.572 251.186C118.451 251.249 118.316 251.28 118.179 251.275Z" fill="#003D31"/>
<path d="M90.4463 263.482C90.2791 263.482 90.1151 263.435 89.9731 263.347C89.8311 263.259 89.7168 263.132 89.6433 262.982C89.4826 262.625 72.4038 227.432 68.9595 223.078C68.8136 222.893 68.7467 222.658 68.7735 222.424C68.8002 222.19 68.9184 221.976 69.1022 221.829C69.1928 221.754 69.2975 221.699 69.41 221.665C69.5225 221.632 69.6406 221.622 69.7571 221.635C69.8737 221.648 69.9864 221.685 70.0885 221.743C70.1906 221.801 70.28 221.878 70.3515 221.971C73.9207 226.487 90.5356 260.751 91.2494 262.215C91.3484 262.426 91.3609 262.667 91.2842 262.887C91.2075 263.107 91.0477 263.289 90.839 263.393C90.7181 263.456 90.5827 263.487 90.4463 263.482Z" fill="#003D31"/>
<path d="M170.933 345.182C170.696 345.217 170.455 345.157 170.263 345.015C170.07 344.873 169.942 344.66 169.907 344.423C169.871 344.187 169.931 343.946 170.073 343.753C170.216 343.561 170.428 343.433 170.665 343.397C191.474 336.598 222.633 291.5 222.955 291.036C223.091 290.846 223.296 290.718 223.526 290.678C223.757 290.638 223.994 290.689 224.186 290.822C224.283 290.887 224.367 290.97 224.431 291.068C224.496 291.165 224.54 291.274 224.562 291.389C224.583 291.504 224.582 291.622 224.557 291.736C224.532 291.85 224.485 291.958 224.418 292.054C223.133 293.927 192.598 338.097 171.218 345.093L170.933 345.182Z" fill="white"/>
<path d="M164.812 223.435C167.027 221.808 169.422 220.443 171.95 219.366C177.786 216.796 185.567 217.421 183.622 219.937C181.676 222.453 168.488 227.932 168.488 227.932C168.488 227.932 169.63 233.946 162.742 236.605" fill="white"/>
<path d="M162.67 237.498C162.434 237.54 162.19 237.487 161.992 237.35C161.795 237.213 161.66 237.003 161.617 236.766C161.575 236.529 161.628 236.285 161.765 236.088C161.902 235.891 162.112 235.756 162.349 235.713C168.434 233.375 167.596 228.253 167.542 228.039C167.51 227.839 167.544 227.634 167.641 227.457C167.738 227.279 167.892 227.138 168.078 227.058C173.289 224.898 181.516 221.043 182.836 219.348C182.89 219.285 182.932 219.212 182.961 219.134C182.462 218.384 177.09 217.992 172.254 220.115C169.858 221.172 167.579 222.476 165.454 224.006C165.285 224.165 165.062 224.254 164.83 224.254C164.597 224.254 164.374 224.165 164.205 224.006C164.043 223.842 163.951 223.621 163.951 223.39C163.951 223.16 164.043 222.938 164.205 222.775C166.469 221.063 168.932 219.63 171.54 218.509C176.376 216.386 182.872 216.189 184.389 218.117C184.649 218.455 184.779 218.874 184.756 219.3C184.733 219.725 184.558 220.129 184.264 220.437C182.479 222.846 172.2 227.272 169.38 228.467C169.463 230.452 168.881 232.407 167.727 234.023C166.573 235.639 164.913 236.824 163.009 237.391C162.903 237.446 162.789 237.482 162.67 237.498Z" fill="#003D31"/>
<path d="M90.6071 330.762C90.417 330.761 90.2321 330.699 90.0785 330.587C89.9248 330.475 89.8101 330.318 89.7505 330.137C79.7388 298.639 31.5539 211.906 31.0364 211.032C30.9528 210.829 30.9467 210.603 31.0194 210.396C31.092 210.189 31.2383 210.016 31.4302 209.91C31.6222 209.804 31.8464 209.773 32.0602 209.822C32.2739 209.87 32.4621 209.996 32.589 210.175C33.0887 211.05 81.3628 297.943 91.4816 329.602C91.5486 329.827 91.5243 330.069 91.4141 330.276C91.3039 330.483 91.1165 330.639 90.8926 330.709C90.8021 330.746 90.7049 330.764 90.6071 330.762Z" fill="#D1D3D4"/>
<path d="M469.126 367.347H0.893936V378.965H469.126V367.347Z" fill="white"/>
<path d="M469.108 379.839H0.894028C0.657372 379.839 0.430409 379.745 0.263068 379.578C0.0957271 379.411 0.00171661 379.184 0.00171661 378.947V367.347C0.00171661 367.11 0.0957271 366.883 0.263068 366.716C0.430409 366.549 0.657372 366.455 0.894028 366.455H469.108C469.344 366.455 469.571 366.549 469.739 366.716C469.906 366.883 470 367.11 470 367.347V378.947C470 379.184 469.906 379.411 469.739 379.578C469.571 379.745 469.344 379.839 469.108 379.839ZM1.76849 378.055H468.233V368.221H1.76849V378.055Z" fill="#003D31"/>
<path d="M140.701 81.8071C140.569 81.8074 140.438 81.7788 140.318 81.7233C140.198 81.6678 140.091 81.5868 140.005 81.4858C139.857 81.3031 139.788 81.0695 139.811 80.8355C139.834 80.6016 139.949 80.3864 140.13 80.2366L180.213 47.1497C180.38 46.9862 180.604 46.8946 180.838 46.8946C181.071 46.8946 181.295 46.9862 181.462 47.1497C181.61 47.3324 181.68 47.5661 181.657 47.8C181.633 48.0339 181.518 48.2491 181.337 48.3989L141.272 81.6108C141.111 81.7406 140.909 81.81 140.701 81.8071Z" fill="#D1D3D4"/>
<path d="M288.718 103.223C288.536 103.221 288.36 103.164 288.211 103.059C288.063 102.954 287.95 102.806 287.888 102.635C287.826 102.465 287.818 102.279 287.864 102.103C287.91 101.928 288.009 101.77 288.147 101.652L339.259 58.8212C339.442 58.6701 339.677 58.5968 339.914 58.6168C340.151 58.6368 340.37 58.7486 340.526 58.9283C340.677 59.1117 340.75 59.3469 340.73 59.5836C340.71 59.8204 340.598 60.0399 340.419 60.1954L289.289 103.026C289.126 103.154 288.925 103.223 288.718 103.223Z" fill="#D1D3D4"/>
<path d="M160.743 129.867C160.613 129.867 160.485 129.838 160.367 129.783C160.25 129.727 160.147 129.646 160.065 129.546C159.913 129.362 159.84 129.127 159.86 128.89C159.88 128.654 159.992 128.434 160.172 128.279L191.777 101.652C191.868 101.576 191.972 101.518 192.084 101.482C192.197 101.447 192.315 101.433 192.433 101.443C192.551 101.453 192.665 101.486 192.77 101.54C192.875 101.595 192.968 101.669 193.044 101.759C193.121 101.849 193.178 101.954 193.214 102.066C193.25 102.179 193.263 102.297 193.253 102.415C193.243 102.533 193.21 102.647 193.156 102.752C193.102 102.857 193.028 102.95 192.937 103.026L161.314 129.653C161.155 129.79 160.953 129.866 160.743 129.867Z" fill="#D1D3D4"/>
<path d="M366.331 253.131C366.203 253.13 366.077 253.102 365.961 253.05C365.844 252.998 365.739 252.922 365.653 252.828C365.5 252.646 365.424 252.413 365.44 252.176C365.457 251.939 365.565 251.718 365.742 251.56L385.944 233.946C386.031 233.863 386.134 233.798 386.247 233.755C386.359 233.713 386.479 233.693 386.6 233.698C386.72 233.703 386.838 233.733 386.947 233.785C387.056 233.836 387.153 233.91 387.232 234C387.312 234.091 387.372 234.196 387.41 234.311C387.448 234.425 387.462 234.546 387.451 234.666C387.441 234.786 387.407 234.903 387.35 235.009C387.294 235.115 387.216 235.209 387.122 235.285L366.92 252.917C366.755 253.054 366.546 253.13 366.331 253.131Z" fill="#D1D3D4"/>
<path d="M300.675 192.115C300.489 192.117 300.307 192.062 300.154 191.956C300.001 191.85 299.885 191.699 299.823 191.524C299.76 191.349 299.753 191.159 299.803 190.98C299.854 190.801 299.959 190.643 300.104 190.526L357.605 142.681C357.693 142.604 357.796 142.546 357.907 142.51C358.018 142.474 358.135 142.46 358.252 142.47C358.368 142.48 358.482 142.514 358.585 142.568C358.688 142.623 358.78 142.697 358.854 142.788C359.005 142.971 359.078 143.206 359.058 143.443C359.038 143.68 358.926 143.899 358.747 144.055L301.246 191.901C301.086 192.035 300.884 192.111 300.675 192.115Z" fill="#D1D3D4"/>
</svg>
