<svg width="68" height="72" viewBox="0 0 68 72" fill="none" xmlns="http://www.w3.org/2000/svg">
<path d="M31.63 52.3999L20.15 62.6299V54.5499C20.15 53.7861 19.8466 53.0536 19.3065 52.5134C18.7664 51.9733 18.0338 51.6699 17.27 51.6699H6.69C6.44295 51.6614 6.20783 51.5616 6.03 51.3899C5.94228 51.3058 5.87231 51.2049 5.82422 51.0932C5.77613 50.9816 5.75089 50.8615 5.75 50.7399V7.58991C5.76664 7.34704 5.87129 7.11858 6.04435 6.94737C6.2174 6.77616 6.44697 6.67395 6.69 6.65991H43.35V0.909912H6.69C4.92306 0.928087 3.23348 1.63739 1.98307 2.88594C0.732652 4.13448 0.0208181 5.823 0 7.58991V50.7399C0.00791003 52.5108 0.715604 54.2069 1.9688 55.4582C3.22199 56.7095 4.91905 57.4146 6.69 57.4199H14.4V69.0699C14.4056 69.6352 14.5781 70.1862 14.8957 70.6538C15.2133 71.1214 15.6619 71.4848 16.1853 71.6984C16.7087 71.9121 17.2835 71.9664 17.8376 71.8546C18.3917 71.7427 18.9004 71.4698 19.3 71.0699L34.62 57.4199H61.32C63.0892 57.412 64.7837 56.7057 66.0348 55.4547C67.2858 54.2036 67.9921 52.5091 68 50.7399V44.8999H62.27V50.7399C62.2713 50.8624 62.2482 50.9839 62.2019 51.0974C62.1557 51.2108 62.0872 51.3139 62.0006 51.4005C61.914 51.4871 61.8109 51.5556 61.6975 51.6018C61.584 51.6481 61.4625 51.6712 61.34 51.6699H33.54C32.8356 51.6724 32.1564 51.932 31.63 52.3999Z" fill="#2ABCA0"/>
<path fill-rule="evenodd" clip-rule="evenodd" d="M29.6 15.2399L20.36 43.1499H27.64L29.15 38.0699H38.8L40.35 43.1499H47.67L38.43 15.2399H29.6ZM34 20.8099L37.16 32.2399H30.79L34 20.8099Z" fill="#2ABCA0"/>
</svg>
