<svg width="69" height="71" viewBox="0 0 69 71" fill="none" xmlns="http://www.w3.org/2000/svg">
<path d="M30.6821 10.6221C30.5527 10.7515 30.48 10.927 30.48 11.11V13.35H21.78L21.81 13.31C21.627 13.31 21.4515 13.3827 21.3221 13.5121C21.1927 13.6415 21.12 13.817 21.12 14V18.5C21.1226 18.6813 21.1965 18.8542 21.3256 18.9815C21.4547 19.1087 21.6287 19.18 21.81 19.18H38.81C38.633 20.0043 38.4127 20.8188 38.15 21.6199C37.8229 22.6214 37.4149 23.5946 36.93 24.5299C36.4724 25.3803 35.9683 26.2049 35.4201 26.9999L34.15 28.7C33.9532 28.4216 33.7629 28.1391 33.5792 27.8526C32.2933 25.8473 31.3311 23.6495 30.73 21.34C30.7285 21.3346 30.7269 21.3293 30.7253 21.3239C30.7006 21.2439 30.6614 21.1691 30.6095 21.1033C30.6026 21.0945 30.5954 21.0859 30.5881 21.0775C30.5368 21.0187 30.4757 20.969 30.4075 20.9308C30.3977 20.9253 30.3878 20.9201 30.3779 20.9152C30.3079 20.8805 30.2325 20.858 30.1548 20.8489C30.1437 20.8476 30.1326 20.8465 30.1215 20.8458C30.0436 20.8405 29.9653 20.8487 29.8901 20.87L25.62 22.06C25.5339 22.0842 25.4535 22.1252 25.3833 22.1805C25.3131 22.2359 25.2545 22.3045 25.2108 22.3825C25.1672 22.4606 25.1393 22.5464 25.1289 22.6352C25.1184 22.724 25.1256 22.814 25.15 22.9C25.6927 24.8882 26.4471 26.8126 27.4 28.64C28.2357 30.1761 29.1606 31.662 30.17 33.09C28.96 34.25 27.84 35.25 26.68 36.25C25.32 37.34 23.98 38.39 22.32 39.53C22.2401 39.582 22.1719 39.6499 22.1195 39.7295C22.0672 39.8092 22.032 39.8988 22.016 39.9928C22 40.0867 22.0037 40.183 22.0267 40.2754C22.0498 40.3679 22.0918 40.4545 22.15 40.5299L24.68 44.19C24.7319 44.2699 24.7999 44.3381 24.8795 44.3904C24.9591 44.4427 25.0488 44.478 25.1427 44.494C25.2366 44.51 25.333 44.5063 25.4254 44.4833C25.4312 44.4818 25.437 44.4803 25.4427 44.4787C25.5287 44.4549 25.6093 44.4146 25.68 44.36C25.785 44.2875 25.889 44.2153 25.9921 44.1434C27.5385 43.0648 28.875 42.05 30.15 41C30.2355 40.9257 30.3209 40.851 30.4064 40.7759C30.9195 40.3254 31.4345 39.861 31.963 39.3826C32.051 39.3029 32.1395 39.2228 32.2283 39.1423C32.289 39.0874 32.3498 39.0323 32.4108 38.977C32.8381 38.5902 33.2758 38.1945 33.73 37.79C34.9671 39.2473 36.3037 40.6173 37.73 41.89C39.4848 43.3884 41.3501 44.7523 43.31 45.97C43.3873 46.0269 43.4756 46.067 43.5693 46.0878C43.663 46.1086 43.76 46.1096 43.8542 46.0908C43.86 46.0896 43.8659 46.0883 43.8717 46.087C43.9594 46.0671 44.0423 46.0302 44.1159 45.9785C44.1257 45.9716 44.1353 45.9644 44.1448 45.957C44.2107 45.9053 44.2667 45.8419 44.31 45.77L46.7 42.04C46.706 42.0306 46.7118 42.021 46.7173 42.0113C46.756 41.9434 46.7827 41.8693 46.7962 41.7922C46.7982 41.7812 46.7998 41.7701 46.8012 41.759C46.8109 41.6815 46.8072 41.6028 46.7901 41.5264C46.7889 41.521 46.7876 41.5155 46.7863 41.5101C46.766 41.4288 46.7308 41.3519 46.6826 41.2833C46.6761 41.2741 46.6695 41.2652 46.6626 41.2564C46.6145 41.1948 46.5562 41.1419 46.49 41.1C46.3782 41.0303 46.2667 40.9601 46.1555 40.8893C44.4883 39.8279 42.8991 38.6485 41.4 37.36C41.235 37.212 41.0714 37.0626 40.9093 36.9116C39.7742 35.8549 38.7088 34.7253 37.72 33.53C37.8187 33.4137 37.9167 33.298 38.0139 33.1824C38.6939 32.3734 39.3337 31.575 39.92 30.7C40.018 30.5628 40.115 30.4249 40.2108 30.2862C40.8817 29.3154 41.499 28.3085 42.06 27.27C42.1473 27.1037 42.2328 26.9364 42.3165 26.7683C42.9022 25.5916 43.3981 24.372 43.8 23.12V23.06C43.8501 22.9014 43.8988 22.7424 43.9458 22.583C44.2755 21.467 44.5308 20.3302 44.71 19.18L46.26 19.18C46.4403 19.18 46.6133 19.1084 46.7408 18.9808C46.7568 18.9649 46.7719 18.9482 46.786 18.931C46.8852 18.81 46.94 18.6578 46.94 18.5V14.04C46.9401 14.0344 46.9401 14.0287 46.94 14.0231C46.9392 13.9387 46.9226 13.8551 46.8911 13.7767C46.889 13.7715 46.8869 13.7663 46.8847 13.7611C46.8513 13.6836 46.8037 13.6129 46.7444 13.5527C46.7365 13.5447 46.7284 13.5368 46.7201 13.5292C46.6622 13.476 46.5953 13.4331 46.5226 13.4027C46.5122 13.3984 46.5017 13.3943 46.4911 13.3904C46.4171 13.3637 46.3389 13.35 46.26 13.35H36.5V11.11C36.5001 11.1044 36.5001 11.0987 36.5 11.0931C36.4992 11.0087 36.4826 10.9251 36.4511 10.8467C36.449 10.8415 36.4469 10.8363 36.4447 10.8311C36.4113 10.7536 36.3637 10.6829 36.3044 10.6227C36.2965 10.6147 36.2884 10.6068 36.2801 10.5992C36.2222 10.546 36.1553 10.5031 36.0826 10.4727C36.0722 10.4684 36.0617 10.4643 36.0511 10.4604C35.9771 10.4337 35.8989 10.42 35.82 10.42H31.17C30.987 10.42 30.8115 10.4927 30.6821 10.6221Z" fill="#2ABCA0"/>
<path fill-rule="evenodd" clip-rule="evenodd" d="M33.41 56.51L48.78 70.17L48.73 70.13C49.1309 70.5285 49.6402 70.8002 50.1944 70.9112C50.7486 71.0223 51.3233 70.9678 51.8468 70.7546C52.3702 70.5414 52.8194 70.1788 53.1383 69.7121C53.4572 69.2454 53.6316 68.6952 53.64 68.13V56.51H61.34C63.1093 56.4995 64.8034 55.7927 66.0555 54.5425C67.3075 53.2923 68.0169 51.5993 68.03 49.83V6.71C68.0187 5.03563 67.38 3.42636 66.24 2.2L66.05 2C64.8071 0.73552 63.113 0.0161717 61.34 0H6.69C5.02217 0.0142996 3.42022 0.652939 2.2 1.79L2 1.97C0.734932 3.21663 0.0157166 4.91398 0 6.69V49.83C0.0131149 51.5993 0.722477 53.2923 1.97455 54.5425C3.22662 55.7927 4.92066 56.4995 6.69 56.51H33.41ZM47.88 61.72L36.41 51.49C35.885 51.0196 35.2049 50.7597 34.5 50.76H6.69C6.5675 50.7613 6.44596 50.7382 6.33253 50.6919C6.21909 50.6457 6.11604 50.5772 6.02941 50.4906C5.94278 50.404 5.87433 50.3009 5.82807 50.1875C5.7818 50.074 5.75866 49.9525 5.76 49.83V6.65C5.76145 6.52854 5.78694 6.40856 5.835 6.297C5.88305 6.18544 5.95273 6.08449 6.04 6H6.15C6.29255 5.84571 6.48266 5.74362 6.69 5.71H61.34C61.5849 5.72368 61.8162 5.82689 61.99 6L62.06 6.11C62.193 6.27513 62.27 6.47823 62.28 6.69V49.83C62.2778 49.9523 62.251 50.0728 62.2012 50.1845C62.1514 50.2962 62.0795 50.3967 61.99 50.48C61.9055 50.5673 61.8046 50.6369 61.693 50.685C61.5814 50.7331 61.4615 50.7585 61.34 50.76H50.76C49.9962 50.76 49.2636 51.0634 48.7235 51.6035C48.1834 52.1436 47.88 52.8762 47.88 53.64V61.72Z" fill="#2ABCA0"/>
</svg>
