<svg width="64" height="64" viewBox="0 0 64 64" fill="none" xmlns="http://www.w3.org/2000/svg">
<circle cx="32" cy="32" r="32" fill="#FFFAE9"/>
<path d="M31.5658 12.3084C31.9233 12.2532 32.2844 12.2252 32.6461 12.2245C35.1633 12.2245 37.5819 12.4007 39.6166 13.9865C41.5254 15.4737 42.9409 17.5025 43.6776 19.8075C43.1313 19.6283 42.6059 19.3906 42.1107 19.0985C42.5994 19.3858 43.3294 23.7133 41.9009 28.24L22.3362 28.0093C22.2208 27.6065 22.4012 27.1324 22.418 26.7318C22.4075 26.2855 22.3413 25.8422 22.2208 25.4124C21.9828 24.298 21.8487 23.1639 21.8202 22.0247C21.795 20.206 22.2397 18.4797 22.9172 16.8141C23.3221 15.824 23.8003 14.8004 24.673 14.1837C25.5456 13.567 26.93 13.5544 27.553 14.4165C28.618 13.2859 30.0305 12.5438 31.5658 12.3084Z" fill="#725858"/>
<path d="M41.8988 28.4434L22.3362 28.219C22.2909 28.2184 22.247 28.2032 22.2111 28.1756C22.1751 28.148 22.1491 28.1095 22.1369 28.0658C22.0738 27.7572 22.0802 27.4383 22.1558 27.1324C22.1835 26.994 22.2017 26.8538 22.2103 26.7129C22.21 26.3827 22.1663 26.0541 22.0803 25.7354C22.0593 25.6389 22.0362 25.5403 22.0173 25.4417C21.7764 24.3149 21.6408 23.1682 21.6125 22.0162C21.5894 20.3381 21.9523 18.6055 22.7242 16.7239C23.1249 15.7506 23.6283 14.6556 24.5555 13.997C25.4218 13.3844 26.8083 13.3005 27.5656 14.0872C28.641 13.0175 30.0287 12.3175 31.528 12.0881C31.896 12.0318 32.2676 12.0024 32.6398 12C35.0668 12 37.6133 12.1489 39.7403 13.8061C41.6839 15.3234 43.1259 17.3903 43.879 19.7382C43.8906 19.7751 43.8919 19.8145 43.8825 19.852C43.8732 19.8896 43.8537 19.9238 43.8261 19.9509C43.7985 19.9781 43.764 19.997 43.7263 20.0058C43.6886 20.0145 43.6493 20.0127 43.6126 20.0004C43.2634 19.8826 42.9222 19.7425 42.591 19.5809C43.0546 21.0744 43.2203 24.7201 42.1002 28.2903C42.0878 28.3343 42.0615 28.373 42.0252 28.4006C41.9888 28.4283 41.9444 28.4433 41.8988 28.4434ZM22.5145 27.8015L41.7457 28.0113C43.0882 23.6272 42.3959 19.5935 42.0016 19.2599C41.9547 19.2312 41.9209 19.1852 41.9076 19.1319C41.8942 19.0785 41.9024 19.0221 41.9303 18.9747C41.9586 18.9268 42.0048 18.8922 42.0587 18.8784C42.1126 18.8647 42.1698 18.8729 42.2176 18.9012C42.5771 19.1131 42.9531 19.2955 43.342 19.4466C42.5791 17.3516 41.2414 15.5138 39.4823 14.1438C37.4602 12.5685 34.9933 12.4321 32.6398 12.4258H32.6251C32.2795 12.427 31.9345 12.4543 31.5931 12.5076C30.1041 12.7375 28.7358 13.4615 27.7082 14.5633C27.687 14.5862 27.661 14.6042 27.632 14.6157C27.603 14.6273 27.5718 14.6323 27.5407 14.6303C27.5095 14.6283 27.4792 14.6193 27.4519 14.6041C27.4247 14.5889 27.4012 14.5678 27.3831 14.5423C26.8209 13.7557 25.5686 13.8145 24.7967 14.3598C23.9576 14.9493 23.5067 15.9373 23.1186 16.898C22.3676 18.725 22.0152 20.4032 22.0383 22.0246C22.0667 23.1532 22.1994 24.2767 22.4348 25.3809C22.4536 25.4774 22.4746 25.5717 22.4956 25.6661C22.5909 26.0197 22.6382 26.3845 22.6361 26.7506C22.6262 26.9063 22.6059 27.0612 22.5753 27.2142C22.5327 27.407 22.5123 27.6041 22.5145 27.8015Z" fill="#003D31"/>
<path d="M42.9875 44.2114V48.0312C41.969 48.8572 40.8573 49.5611 39.6753 50.1289C39.2795 50.3205 38.8754 50.4953 38.4629 50.6533C37.7204 50.9426 36.9576 51.1768 36.1806 51.3539C35.9541 51.4084 35.7275 51.4546 35.4968 51.4944C35.0227 51.5853 34.541 51.6553 34.0515 51.7042C33.632 51.7482 33.1915 51.7713 32.7531 51.7797C32.6356 51.7797 32.5202 51.7797 32.4028 51.7797C32.2853 51.7797 32.1552 51.7797 32.0336 51.7797C31.6015 51.7713 31.175 51.7462 30.754 51.7042C30.266 51.658 29.7842 51.5881 29.3087 51.4944C29.078 51.4546 28.8515 51.4084 28.6249 51.3539C27.8487 51.1774 27.0866 50.9439 26.3448 50.6554C25.9336 50.496 25.5295 50.3212 25.1323 50.131C23.9503 49.5632 22.8387 48.8593 21.8202 48.0333V44.2114C21.8202 39.498 25.0254 35.674 28.9815 35.674H35.824C39.7823 35.674 42.9875 39.498 42.9875 44.2114Z" fill="#FF7D7D"/>
<path d="M32.4049 51.9916C32.279 51.9916 32.1531 51.9916 32.0294 51.9916C31.6099 51.9916 31.1672 51.958 30.7351 51.9139C30.2506 51.8678 29.7576 51.7986 29.2668 51.7042C29.0214 51.6601 28.7948 51.614 28.5725 51.5615C27.7871 51.3816 27.0159 51.1447 26.2651 50.8525C25.8455 50.6868 25.426 50.5085 25.0379 50.3218C23.8401 49.7462 22.7137 49.0323 21.6817 48.1948C21.6576 48.1753 21.6382 48.1507 21.6248 48.1228C21.6114 48.0948 21.6043 48.0643 21.6041 48.0333V44.2114C21.6041 39.3868 24.91 35.4642 28.9752 35.4642H35.8177C39.883 35.4642 43.1888 39.3889 43.1888 44.2114V48.0312C43.1886 48.0622 43.1816 48.0927 43.1681 48.1207C43.1547 48.1486 43.1353 48.1732 43.1112 48.1927C42.0793 49.0302 40.9529 49.7441 39.755 50.3197C39.3711 50.5064 38.9579 50.6847 38.5279 50.8504C37.7771 51.1428 37.0059 51.3797 36.2205 51.5594C36.0002 51.6119 35.7737 51.658 35.5262 51.7021C35.0416 51.7923 34.5487 51.8615 34.0578 51.9119C33.6383 51.9559 33.202 51.9811 32.7447 51.9895C32.6419 51.9895 32.5244 51.9916 32.4049 51.9916ZM22.032 47.9305C23.0175 48.7196 24.0892 49.3945 25.2267 49.9422C25.6022 50.1226 26.005 50.2967 26.4245 50.4603C27.156 50.7454 27.9076 50.9761 28.6732 51.1504C28.8829 51.2008 29.1074 51.2469 29.3465 51.2889C29.8227 51.377 30.303 51.4462 30.7771 51.4986C31.1966 51.5427 31.6161 51.5678 32.0357 51.5741C32.2727 51.5741 32.5076 51.5741 32.7447 51.5741C33.1936 51.5741 33.6236 51.5406 34.0263 51.4986C34.5025 51.4546 34.9829 51.3853 35.4569 51.2889C35.6982 51.2469 35.9184 51.2008 36.1303 51.1504C36.8966 50.9763 37.6489 50.7457 38.381 50.4603C38.8006 50.2967 39.2033 50.1226 39.5788 49.9422C40.7163 49.3945 41.788 48.7196 42.7735 47.9305V44.2114C42.7735 39.6197 39.6543 35.8838 35.8219 35.8838H28.9836C25.1512 35.8838 22.032 39.6197 22.032 44.2114V47.9305Z" fill="#003D31"/>
<path d="M31.3561 47.4817C31.3258 47.4817 31.2958 47.4751 31.2683 47.4624C31.2408 47.4497 31.2163 47.4313 31.1966 47.4082L26.5944 42.0089C26.559 41.9674 26.5412 41.9137 26.5447 41.8593C26.5483 41.8049 26.5729 41.7539 26.6133 41.7173L28.5977 39.8924L26.3637 39.0785C26.3324 39.0671 26.3043 39.0484 26.2817 39.0239C26.2591 38.9995 26.2426 38.97 26.2336 38.938C26.2247 38.9061 26.2235 38.8725 26.2301 38.8401C26.2366 38.8076 26.2508 38.7772 26.2714 38.7513L28.8389 35.5398C28.8738 35.4969 28.9242 35.4695 28.9792 35.4636C29.0342 35.4577 29.0893 35.4738 29.1326 35.5083C29.1758 35.5429 29.2036 35.5932 29.2099 35.6482C29.2161 35.7032 29.2004 35.7585 29.1661 35.802L26.7895 38.7806L29.0738 39.6197C29.1074 39.6322 29.1371 39.6531 29.1603 39.6804C29.1835 39.7077 29.1993 39.7404 29.2062 39.7755C29.2131 39.8106 29.211 39.8469 29.1999 39.881C29.1889 39.915 29.1693 39.9457 29.143 39.97L27.0454 41.8914L31.5155 47.1355C31.5415 47.166 31.5583 47.2033 31.5638 47.243C31.5694 47.2828 31.5634 47.3232 31.5466 47.3596C31.5298 47.3961 31.503 47.4269 31.4692 47.4485C31.4354 47.4702 31.3962 47.4817 31.3561 47.4817Z" fill="#003D31"/>
<path d="M33.4537 47.4817C33.4136 47.4817 33.3743 47.4702 33.3406 47.4485C33.3068 47.4269 33.2799 47.3961 33.2632 47.3596C33.2464 47.3232 33.2404 47.2828 33.2459 47.243C33.2514 47.2033 33.2682 47.166 33.2943 47.1355L37.7644 41.8914L35.6667 39.97C35.6405 39.9457 35.6209 39.915 35.6098 39.881C35.5988 39.8469 35.5966 39.8106 35.6036 39.7755C35.6105 39.7404 35.6263 39.7077 35.6495 39.6804C35.6727 39.6531 35.7024 39.6322 35.7359 39.6197L38.0203 38.7806L35.6436 35.802C35.6093 35.7585 35.5936 35.7032 35.5999 35.6482C35.6062 35.5932 35.634 35.5429 35.6772 35.5083C35.7204 35.4738 35.7755 35.4577 35.8305 35.4636C35.8855 35.4695 35.936 35.4969 35.9709 35.5398L38.53 38.7471C38.5506 38.773 38.5647 38.8034 38.5713 38.8359C38.5779 38.8683 38.5766 38.9019 38.5678 38.9338C38.5588 38.9658 38.5423 38.9953 38.5197 39.0197C38.4971 39.0442 38.469 39.0629 38.4377 39.0743L36.2037 39.8882L38.1881 41.7131C38.2285 41.7497 38.2531 41.8007 38.2566 41.8551C38.2602 41.9095 38.2423 41.9632 38.207 42.0047L33.6047 47.404C33.5864 47.4268 33.5634 47.4454 33.5374 47.4588C33.5114 47.4722 33.4829 47.48 33.4537 47.4817Z" fill="#003D31"/>
<path d="M30.8757 35.6698V33.998H33.7789V35.6698" fill="#FFC9B0"/>
<path d="M33.7789 35.8796C33.7232 35.8796 33.6699 35.8575 33.6305 35.8181C33.5912 35.7788 33.5691 35.7254 33.5691 35.6698V34.2014H31.0855V35.6698C31.0855 35.7254 31.0634 35.7788 31.024 35.8181C30.9847 35.8575 30.9314 35.8796 30.8757 35.8796C30.8201 35.8796 30.7667 35.8575 30.7274 35.8181C30.6881 35.7788 30.666 35.7254 30.666 35.6698V33.9917C30.666 33.9361 30.6881 33.8827 30.7274 33.8434C30.7667 33.804 30.8201 33.7819 30.8757 33.7819H33.7789C33.8345 33.7819 33.8878 33.804 33.9272 33.8434C33.9665 33.8827 33.9886 33.9361 33.9886 33.9917V35.6698C33.9886 35.7254 33.9665 35.7788 33.9272 35.8181C33.8878 35.8575 33.8345 35.8796 33.7789 35.8796Z" fill="#003D31"/>
<path d="M24.0311 28.8881C25.5893 28.8881 26.8524 27.7996 26.8524 26.4569C26.8524 25.1142 25.5893 24.0258 24.0311 24.0258C22.4729 24.0258 21.2098 25.1142 21.2098 26.4569C21.2098 27.7996 22.4729 28.8881 24.0311 28.8881Z" fill="#FFC9B0"/>
<path d="M24.0311 29.0979C22.353 29.0979 21 27.9127 21 26.4569C21 25.0012 22.3593 23.8181 24.0311 23.8181C25.7029 23.8181 27.0601 25.0012 27.0601 26.4569C27.0601 27.9127 25.6924 29.0979 24.0311 29.0979ZM24.0311 24.2376C22.59 24.2376 21.4195 25.234 21.4195 26.4569C21.4195 27.6799 22.59 28.6784 24.0311 28.6784C25.4722 28.6784 26.6406 27.682 26.6406 26.4569C26.6406 25.2319 25.4701 24.2376 24.0311 24.2376Z" fill="#003D31"/>
<path d="M40.4745 28.8881C42.0327 28.8881 43.2958 27.7996 43.2958 26.4569C43.2958 25.1142 42.0327 24.0258 40.4745 24.0258C38.9163 24.0258 37.6532 25.1142 37.6532 26.4569C37.6532 27.7996 38.9163 28.8881 40.4745 28.8881Z" fill="#FFC9B0"/>
<path d="M40.4745 29.0979C38.7964 29.0979 37.4434 27.9127 37.4434 26.4569C37.4434 25.0012 38.8027 23.8181 40.4745 23.8181C42.1463 23.8181 43.5035 25.0012 43.5035 26.4569C43.5035 27.9127 42.1442 29.0979 40.4745 29.0979ZM40.4745 24.2376C39.0334 24.2376 37.8629 25.234 37.8629 26.4569C37.8629 27.6799 39.0334 28.6784 40.4745 28.6784C41.9156 28.6784 43.084 27.682 43.084 26.4569C43.084 25.2319 41.9135 24.2376 40.4745 24.2376Z" fill="#003D31"/>
<path d="M32.3273 34.3797C30.0708 34.3797 27.9067 33.4834 26.3112 31.8878C24.7156 30.2922 23.8192 28.1282 23.8192 25.8717V22.7798C23.8194 22.2742 23.9258 21.7743 24.1315 21.3126C24.3373 20.8508 24.6378 20.4374 25.0136 20.0992C25.3893 19.761 25.832 19.5055 26.3128 19.3494C26.7937 19.1932 27.302 19.1399 27.8047 19.1928C29.5835 19.3858 30.0408 20.4787 33.009 20.5311C34.234 20.5521 35.3877 19.1509 36.4114 18.9621C36.918 18.8693 37.4386 18.8861 37.9382 19.0113C38.4378 19.1365 38.9049 19.3673 39.3079 19.688C39.7109 20.0087 40.0405 20.412 40.2747 20.8708C40.5088 21.3296 40.6421 21.8331 40.6654 22.3477L40.8248 25.8717C40.8254 28.1265 39.9306 30.2893 38.3372 31.8847C36.7438 33.4801 34.5821 34.3775 32.3273 34.3797Z" fill="#FFC9B0"/>
<path d="M32.3272 34.5895C30.016 34.5867 27.8002 33.6674 26.1659 32.0331C24.5316 30.3988 23.6122 28.183 23.6094 25.8717V22.7798C23.6093 22.2439 23.722 21.714 23.9402 21.2246C24.1584 20.7352 24.4773 20.2973 24.876 19.9393C25.2748 19.5813 25.7445 19.3113 26.2545 19.1469C26.7645 18.9825 27.3034 18.9274 27.8362 18.9851C28.4781 19.0677 29.1011 19.26 29.6779 19.5536C30.7166 20.0711 31.8633 20.3342 33.0237 20.3213C33.6529 20.3381 34.2822 19.9018 34.9115 19.5033C35.4213 19.1634 35.9037 18.8446 36.3904 18.7565C36.9263 18.6583 37.4771 18.676 38.0057 18.8084C38.5342 18.9408 39.0283 19.1848 39.4548 19.524C39.8812 19.8632 40.2301 20.2897 40.478 20.775C40.7259 21.2602 40.867 21.7929 40.8919 22.3372L41.0513 25.8633C41.0508 28.1771 40.1315 30.396 38.4956 32.0323C36.8597 33.6686 34.641 34.5884 32.3272 34.5895ZM27.4271 19.3879C26.5261 19.3884 25.662 19.7466 25.0249 20.3838C24.3877 21.021 24.0295 21.885 24.029 22.7861V25.878C24.0115 26.9787 24.2131 28.0719 24.6223 29.0939C25.0314 30.1159 25.6398 31.0463 26.412 31.8309C27.1842 32.6154 28.1048 33.2385 29.1201 33.6639C30.1355 34.0892 31.2253 34.3082 32.3262 34.3082C33.427 34.3082 34.5169 34.0892 35.5322 33.6639C36.5476 33.2385 37.4682 32.6154 38.2404 31.8309C39.0126 31.0463 39.621 30.1159 40.0301 29.0939C40.4392 28.0719 40.6409 26.9787 40.6234 25.878L40.464 22.3624C40.4414 21.8781 40.3155 21.4044 40.0947 20.9728C39.8739 20.5413 39.5633 20.162 39.1838 19.8604C38.8043 19.5588 38.3647 19.3419 37.8945 19.2242C37.4243 19.1065 36.9343 19.0908 36.4575 19.1781C36.0548 19.2536 35.6184 19.5494 35.1339 19.862C34.4647 20.3067 33.7704 20.766 33.0153 20.7514C31.798 20.762 30.5953 20.4868 29.5038 19.948C28.9685 19.6679 28.3886 19.4826 27.79 19.4005C27.6694 19.3901 27.5482 19.3859 27.4271 19.3879Z" fill="#003D31"/>
<path d="M35.3982 35.6699L33.9298 46.3805L33.8354 46.8147L32.7552 51.7714C32.6377 51.7714 32.5223 51.7714 32.4049 51.7714C32.2874 51.7714 32.1573 51.7714 32.0357 51.7714L30.9491 46.7874L30.861 46.3826L29.3926 35.672L35.3982 35.6699Z" fill="white"/>
<path d="M32.4049 51.9915C32.279 51.9915 32.1532 51.9915 32.0294 51.9915C31.9806 51.9926 31.933 51.9766 31.8947 51.9464C31.8564 51.9161 31.8299 51.8735 31.8196 51.8258L30.7331 46.8418C30.734 46.8376 30.734 46.8333 30.7331 46.8292L30.6471 46.4348L29.1787 35.7096V35.6802C29.1787 35.6246 29.2008 35.5712 29.2401 35.5319C29.2795 35.4926 29.3328 35.4705 29.3885 35.4705H35.3919C35.4476 35.4705 35.5009 35.4926 35.5403 35.5319C35.5796 35.5712 35.6017 35.6246 35.6017 35.6802C35.6017 35.6907 35.6017 35.6991 35.6017 35.7096L34.1333 46.4181L34.041 46.867L32.9608 51.8216C32.9505 51.8693 32.924 51.9119 32.8857 51.9422C32.8474 51.9724 32.7998 51.9884 32.751 51.9873C32.6419 51.9894 32.5245 51.9915 32.4049 51.9915ZM32.2056 51.572C32.3315 51.572 32.4594 51.572 32.5853 51.572L33.7264 46.3404L35.157 35.8816H29.6339L31.0687 46.3572L31.1547 46.7474C31.1547 46.7474 31.1547 46.7474 31.1547 46.76L32.2056 51.572Z" fill="#003D31"/>
<path d="M33.9299 46.3846L33.8355 46.8189L32.7552 51.7756C32.6377 51.7756 32.5224 51.7756 32.4049 51.7756C32.2874 51.7756 32.1574 51.7756 32.0357 51.7756L30.9491 46.7916L30.861 46.3867L31.8092 38.1178L32.0756 35.8104L32.0902 35.6846H32.7007L32.7153 35.8104L32.9817 38.1178L33.9299 46.3846Z" fill="#5CE4CA"/>
<path d="M32.4049 51.9916C32.279 51.9916 32.1532 51.9916 32.0294 51.9916C31.9806 51.9927 31.933 51.9767 31.8947 51.9465C31.8564 51.9162 31.8299 51.8736 31.8197 51.8259L30.7331 46.8419C30.7341 46.8377 30.7341 46.8334 30.7331 46.8293L30.6471 46.4349C30.6439 46.4119 30.6439 46.3887 30.6471 46.3657L31.8763 35.6677C31.8805 35.615 31.9045 35.5659 31.9434 35.5301C31.9822 35.4943 32.0332 35.4746 32.086 35.4747H32.6965C32.7521 35.4747 32.8055 35.4968 32.8448 35.5362C32.8841 35.5755 32.9062 35.6289 32.9062 35.6845L32.9209 35.7894L34.1354 46.3741C34.1386 46.3971 34.1386 46.4203 34.1354 46.4433L32.9608 51.8342C32.9505 51.882 32.924 51.9246 32.8857 51.9548C32.8474 51.9851 32.7998 52.001 32.751 52C32.6419 51.9895 32.5245 51.9916 32.4049 51.9916ZM32.2056 51.572C32.3315 51.572 32.4594 51.572 32.5853 51.572L33.718 46.3762L32.514 35.888H32.2769L31.0729 46.3762L31.1547 46.7475C31.1547 46.7475 31.1547 46.7475 31.1547 46.7601L32.2056 51.572Z" fill="#003D31"/>
<path d="M25.1344 50.3407C25.0788 50.3407 25.0255 50.3186 24.9861 50.2793C24.9468 50.2399 24.9247 50.1866 24.9247 50.1309V42.2522C24.9247 42.1966 24.9468 42.1432 24.9861 42.1039C25.0255 42.0645 25.0788 42.0424 25.1344 42.0424C25.1901 42.0424 25.2434 42.0645 25.2828 42.1039C25.3221 42.1432 25.3442 42.1966 25.3442 42.2522V50.1267C25.3448 50.1546 25.3398 50.1824 25.3295 50.2083C25.3192 50.2342 25.3038 50.2579 25.2843 50.2778C25.2647 50.2977 25.2414 50.3135 25.2157 50.3243C25.19 50.3351 25.1624 50.3407 25.1344 50.3407Z" fill="#003D31"/>
<path d="M39.6753 50.3407C39.6197 50.3407 39.5663 50.3186 39.527 50.2793C39.4876 50.2399 39.4655 50.1866 39.4655 50.1309V42.2522C39.4655 42.1966 39.4876 42.1432 39.527 42.1039C39.5663 42.0645 39.6197 42.0424 39.6753 42.0424C39.7309 42.0424 39.7843 42.0645 39.8236 42.1039C39.863 42.1432 39.8851 42.1966 39.8851 42.2522V50.1267C39.8856 50.1546 39.8806 50.1824 39.8703 50.2083C39.86 50.2342 39.8447 50.2579 39.8251 50.2778C39.8056 50.2977 39.7823 50.3135 39.7566 50.3243C39.7308 50.3351 39.7032 50.3407 39.6753 50.3407Z" fill="#003D31"/>
<path d="M32.9838 35.7999H31.7651C31.428 35.7999 31.1547 36.0732 31.1547 36.4103V37.5053C31.1547 37.8424 31.428 38.1157 31.7651 38.1157H32.9838C33.321 38.1157 33.5943 37.8424 33.5943 37.5053V36.4103C33.5943 36.0732 33.321 35.7999 32.9838 35.7999Z" fill="#5CE4CA"/>
<path d="M32.9859 38.3254H31.763C31.5462 38.3249 31.3384 38.2385 31.1851 38.0852C31.0318 37.9319 30.9455 37.7241 30.9449 37.5073V36.4082C30.9455 36.1914 31.0318 35.9836 31.1851 35.8303C31.3384 35.677 31.5462 35.5906 31.763 35.5901H32.9859C33.2027 35.5906 33.4105 35.677 33.5638 35.8303C33.7171 35.9836 33.8035 36.1914 33.804 36.4082V37.5073C33.8035 37.7241 33.7171 37.9319 33.5638 38.0852C33.4105 38.2385 33.2027 38.3249 32.9859 38.3254ZM31.763 36.018C31.6573 36.018 31.5559 36.06 31.4812 36.1347C31.4064 36.2095 31.3644 36.3109 31.3644 36.4166V37.5157C31.3644 37.5681 31.3748 37.6199 31.3948 37.6682C31.4148 37.7166 31.4442 37.7605 31.4812 37.7975C31.5182 37.8346 31.5621 37.8639 31.6105 37.8839C31.6588 37.904 31.7107 37.9143 31.763 37.9143H32.9859C33.0383 37.9143 33.0901 37.904 33.1384 37.8839C33.1868 37.8639 33.2307 37.8346 33.2677 37.7975C33.3048 37.7605 33.3341 37.7166 33.3541 37.6682C33.3742 37.6199 33.3845 37.5681 33.3845 37.5157V36.4166C33.3845 36.3109 33.3425 36.2095 33.2677 36.1347C33.193 36.06 33.0916 36.018 32.9859 36.018H31.763Z" fill="#003D31"/>
<path d="M28.5662 26.2829C28.9775 26.2829 29.3109 25.9495 29.3109 25.5382C29.3109 25.127 28.9775 24.7936 28.5662 24.7936C28.1549 24.7936 27.8215 25.127 27.8215 25.5382C27.8215 25.9495 28.1549 26.2829 28.5662 26.2829Z" fill="#003D31"/>
<path d="M36.2436 26.2829C36.6548 26.2829 36.9882 25.9495 36.9882 25.5382C36.9882 25.127 36.6548 24.7936 36.2436 24.7936C35.8323 24.7936 35.4989 25.127 35.4989 25.5382C35.4989 25.9495 35.8323 26.2829 36.2436 26.2829Z" fill="#003D31"/>
<path d="M32.4049 28.2505C32.1632 28.2487 31.922 28.2291 31.6833 28.1918C31.6562 28.187 31.6302 28.1769 31.607 28.162C31.5838 28.1472 31.5637 28.1279 31.5479 28.1053C31.5321 28.0827 31.521 28.0572 31.515 28.0303C31.5091 28.0034 31.5085 27.9756 31.5134 27.9484C31.5182 27.9213 31.5283 27.8954 31.5431 27.8722C31.558 27.8489 31.5772 27.8288 31.5998 27.8131C31.6224 27.7973 31.6479 27.7861 31.6748 27.7802C31.7018 27.7743 31.7296 27.7737 31.7567 27.7785C32.1298 27.8387 32.5101 27.8387 32.8831 27.7785C32.9482 27.5856 32.6734 26.7675 32.2538 25.9913C32.2403 25.9669 32.2317 25.94 32.2287 25.9122C32.2256 25.8844 32.2282 25.8563 32.2362 25.8295C32.2442 25.8027 32.2575 25.7778 32.2752 25.7562C32.293 25.7346 32.3149 25.7168 32.3396 25.7038C32.3644 25.6908 32.3915 25.6828 32.4194 25.6804C32.4472 25.6781 32.4753 25.6813 32.5019 25.6899C32.5285 25.6985 32.5531 25.7124 32.5742 25.7306C32.5954 25.7489 32.6127 25.7712 32.6251 25.7963C32.8349 26.1843 33.4642 27.487 33.2544 27.9652C33.2308 28.0175 33.1954 28.0636 33.151 28.1C33.1066 28.1364 33.0544 28.162 32.9985 28.175C32.8044 28.224 32.6051 28.2494 32.4049 28.2505Z" fill="#003D31"/>
<path d="M35.2052 30.453H29.6045C29.5489 30.453 29.4956 30.4309 29.4562 30.3915C29.4169 30.3522 29.3948 30.2988 29.3948 30.2432C29.3948 30.1876 29.4169 30.1342 29.4562 30.0949C29.4956 30.0555 29.5489 30.0334 29.6045 30.0334H35.2052C35.2609 30.0334 35.3142 30.0555 35.3536 30.0949C35.3929 30.1342 35.415 30.1876 35.415 30.2432C35.415 30.2988 35.3929 30.3522 35.3536 30.3915C35.3142 30.4309 35.2609 30.453 35.2052 30.453Z" fill="#003D31"/>
<path d="M29.8353 23.4993H26.3805C26.292 23.4993 26.2072 23.4641 26.1446 23.4016C26.0821 23.339 26.0469 23.2542 26.0469 23.1657C26.0469 23.0773 26.0821 22.9924 26.1446 22.9299C26.2072 22.8674 26.292 22.8322 26.3805 22.8322H29.8353C29.9237 22.8322 30.0086 22.8674 30.0711 22.9299C30.1337 22.9924 30.1688 23.0773 30.1688 23.1657C30.1688 23.2542 30.1337 23.339 30.0711 23.4016C30.0086 23.4641 29.9237 23.4993 29.8353 23.4993Z" fill="#003D31"/>
<path d="M38.4293 23.4993H34.9745C34.8861 23.4993 34.8012 23.4641 34.7387 23.4016C34.6761 23.339 34.641 23.2542 34.641 23.1657C34.641 23.0773 34.6761 22.9924 34.7387 22.9299C34.8012 22.8674 34.8861 22.8322 34.9745 22.8322H38.4293C38.5178 22.8322 38.6026 22.8674 38.6652 22.9299C38.7277 22.9924 38.7629 23.0773 38.7629 23.1657C38.7629 23.2542 38.7277 23.339 38.6652 23.4016C38.6026 23.4641 38.5178 23.4993 38.4293 23.4993Z" fill="#003D31"/>
<path d="M29.2416 28.0658H27.6642C27.1236 28.0653 26.6053 27.8503 26.2231 27.468C25.8408 27.0858 25.6258 26.5675 25.6253 26.0269V25.0347C25.6258 24.7957 25.721 24.5666 25.8901 24.3975C26.0591 24.2285 26.2882 24.1333 26.5273 24.1328H30.3806C30.6195 24.1333 30.8484 24.2286 31.0171 24.3977C31.1858 24.5668 31.2805 24.7959 31.2805 25.0347V26.0269C31.28 26.5675 31.065 27.0858 30.6827 27.468C30.3005 27.8503 29.7822 28.0653 29.2416 28.0658ZM26.5315 24.5523C26.4035 24.5523 26.2808 24.6031 26.1903 24.6936C26.0998 24.7841 26.049 24.9068 26.049 25.0347V26.0269C26.049 26.4564 26.2196 26.8683 26.5233 27.172C26.827 27.4757 27.2389 27.6463 27.6684 27.6463H29.2458C29.6753 27.6463 30.0872 27.4757 30.3909 27.172C30.6946 26.8683 30.8652 26.4564 30.8652 26.0269V25.0347C30.8652 24.9071 30.8146 24.7847 30.7246 24.6943C30.6346 24.6039 30.5124 24.5528 30.3848 24.5523H26.5315Z" fill="#003D31"/>
<path d="M36.726 28.0658H35.1486C34.608 28.0653 34.0897 27.8503 33.7075 27.468C33.3252 27.0858 33.1102 26.5675 33.1097 26.0269V25.0347C33.1097 24.7959 33.2044 24.5668 33.3731 24.3977C33.5418 24.2286 33.7707 24.1333 34.0096 24.1328H37.8587C38.0978 24.1333 38.3269 24.2285 38.4959 24.3975C38.665 24.5666 38.7602 24.7957 38.7607 25.0347V26.0269C38.7602 26.5668 38.5458 27.0844 38.1644 27.4666C37.7831 27.8487 37.2659 28.0642 36.726 28.0658ZM34.0096 24.5523C33.882 24.5528 33.7598 24.6039 33.6698 24.6943C33.5798 24.7847 33.5292 24.9071 33.5292 25.0347V26.0269C33.5292 26.4564 33.6998 26.8683 34.0035 27.172C34.3072 27.4757 34.7191 27.6463 35.1486 27.6463H36.726C37.1555 27.6463 37.5674 27.4757 37.8711 27.172C38.1748 26.8683 38.3454 26.4564 38.3454 26.0269V25.0347C38.3454 24.9068 38.2946 24.7841 38.2041 24.6936C38.1136 24.6031 37.9909 24.5523 37.8629 24.5523H34.0096Z" fill="#003D31"/>
<path d="M33.1768 25.748C33.1268 25.748 33.0785 25.7301 33.0405 25.6976C32.1888 24.9655 31.3414 25.6682 31.3036 25.6976C31.2615 25.7331 31.207 25.7506 31.1521 25.7463C31.0971 25.742 31.0461 25.7162 31.01 25.6745C30.992 25.6536 30.9784 25.6293 30.9699 25.6032C30.9614 25.577 30.9581 25.5493 30.9602 25.5219C30.9624 25.4944 30.9699 25.4676 30.9824 25.4431C30.9949 25.4185 31.0121 25.3967 31.033 25.3788C31.349 25.1033 31.7539 24.9515 32.1731 24.9515C32.5923 24.9515 32.9972 25.1033 33.3132 25.3788C33.3458 25.4066 33.369 25.4438 33.3798 25.4853C33.3906 25.5268 33.3885 25.5706 33.3736 25.6109C33.3588 25.6511 33.3319 25.6858 33.2967 25.7103C33.2616 25.7348 33.2197 25.748 33.1768 25.748Z" fill="#003D31"/>
<path d="M25.8351 25.2445C25.8038 25.2444 25.773 25.2372 25.7449 25.2236L23.385 24.1055C23.3347 24.0816 23.2959 24.0387 23.2772 23.9861C23.2585 23.9336 23.2615 23.8758 23.2854 23.8255C23.3093 23.7751 23.3523 23.7364 23.4048 23.7177C23.4573 23.699 23.5151 23.7019 23.5654 23.7258L25.9253 24.8418C25.9679 24.8624 26.0023 24.8969 26.0229 24.9396C26.0434 24.9823 26.0489 25.0307 26.0384 25.0769C26.028 25.1231 26.0022 25.1644 25.9653 25.1941C25.9283 25.2238 25.8824 25.2401 25.8351 25.2403V25.2445Z" fill="#003D31"/>
<path d="M38.6538 25.2446C38.6144 25.2446 38.5759 25.2337 38.5425 25.2129C38.5091 25.1921 38.4823 25.1624 38.465 25.1271C38.4402 25.0773 38.4363 25.0197 38.454 24.967C38.4717 24.9143 38.5096 24.8708 38.5594 24.846L40.4472 23.9147C40.4973 23.8902 40.5551 23.8866 40.6078 23.9047C40.6605 23.9228 40.7039 23.9611 40.7283 24.0112C40.7528 24.0612 40.7564 24.119 40.7383 24.1717C40.7202 24.2244 40.6819 24.2678 40.6318 24.2922L38.744 25.2236C38.7158 25.2372 38.685 25.2444 38.6538 25.2446Z" fill="#003D31"/>
<path d="M38.6496 45.8266H35.2787V47.8655H38.6496V45.8266Z" fill="#FFFAA4"/>
<path d="M38.6517 48.0752H35.2786C35.223 48.0752 35.1697 48.0531 35.1303 48.0138C35.091 47.9744 35.0689 47.9211 35.0689 47.8655V45.8182C35.0689 45.7625 35.091 45.7092 35.1303 45.6698C35.1697 45.6305 35.223 45.6084 35.2786 45.6084H38.6517C38.7073 45.6084 38.7606 45.6305 38.8 45.6698C38.8393 45.7092 38.8614 45.7625 38.8614 45.8182V47.8571C38.8625 47.8853 38.858 47.9135 38.8479 47.9399C38.8379 47.9663 38.8226 47.9905 38.803 48.0109C38.7834 48.0312 38.7599 48.0474 38.7339 48.0585C38.7079 48.0696 38.6799 48.0752 38.6517 48.0752ZM35.4884 47.6557H38.4419V46.0279H35.4884V47.6557Z" fill="#003D31"/>
<path d="M36.9652 46.4643C36.9095 46.4643 36.8562 46.4422 36.8168 46.4029C36.7775 46.3636 36.7554 46.3102 36.7554 46.2546V45.3987C36.7554 45.3431 36.7775 45.2897 36.8168 45.2504C36.8562 45.2111 36.9095 45.189 36.9652 45.189C37.0208 45.189 37.0742 45.2111 37.1135 45.2504C37.1528 45.2897 37.1749 45.3431 37.1749 45.3987V46.2525C37.1752 46.2802 37.17 46.3077 37.1596 46.3334C37.1491 46.3591 37.1337 46.3825 37.1142 46.4022C37.0947 46.4219 37.0715 46.4375 37.0459 46.4482C37.0203 46.4588 36.9929 46.4643 36.9652 46.4643Z" fill="#003D31"/>
</svg>
