<svg width="141" height="181" viewBox="0 0 141 181" fill="none" xmlns="http://www.w3.org/2000/svg">
<path d="M82.8509 156.49C82.1231 156.489 81.419 156.231 80.8617 155.763C80.3043 155.295 79.9292 154.646 79.8018 153.93C75.1467 127.691 57.4806 113.407 57.3022 113.268C56.6561 112.753 56.2408 112.003 56.1477 111.183C56.0546 110.362 56.2912 109.538 56.8057 108.892C57.3201 108.246 58.0701 107.831 58.8907 107.737C59.7113 107.644 60.5353 107.881 61.1814 108.395C61.9573 109.032 80.8414 124.184 85.9388 152.844C86.0833 153.653 85.9006 154.487 85.4307 155.162C84.9608 155.837 84.2422 156.298 83.4328 156.444C83.2405 156.476 83.0458 156.492 82.8509 156.49Z" fill="#003D31"/>
<path d="M42.9645 156.669C42.334 156.668 41.7186 156.476 41.2002 156.117C40.6818 155.758 40.2851 155.249 40.0629 154.659C31.8311 132.842 39.7448 112.763 40.0629 111.91C40.3715 111.147 40.9708 110.537 41.7288 110.216C42.4869 109.894 43.3416 109.887 44.105 110.195C44.8684 110.504 45.4779 111.103 45.7995 111.861C46.1211 112.619 46.1283 113.474 45.8197 114.238C45.7343 114.463 38.5034 133.013 45.8197 152.479C46.1091 153.249 46.0814 154.102 45.7424 154.851C45.4035 155.6 44.7811 156.184 44.0119 156.475C43.6772 156.601 43.3225 156.667 42.9645 156.669Z" fill="#003D31"/>
<path d="M85.2328 133.052C84.6779 133.049 84.1264 132.966 83.5957 132.804C76.2019 130.585 74.2855 112.36 73.82 104.625C73.7696 103.802 74.0482 102.992 74.5946 102.375C75.1409 101.757 75.9103 101.382 76.7333 101.331C77.5564 101.281 78.3658 101.559 78.9835 102.106C79.6011 102.652 79.9764 103.422 80.0268 104.245C80.6785 114.742 83.1302 125.192 85.2328 126.744C86.2879 125.906 88.9413 121.507 91.2766 108.613L91.362 108.139C91.437 107.736 91.5913 107.352 91.8157 107.009C92.0402 106.666 92.3304 106.37 92.6696 106.14C93.0089 105.91 93.3904 105.749 93.7922 105.667C94.1939 105.585 94.608 105.583 95.0103 105.662C95.4127 105.741 95.7955 105.899 96.1365 106.127C96.4775 106.354 96.77 106.648 96.997 106.989C97.2241 107.33 97.3813 107.713 97.4594 108.116C97.5376 108.519 97.5352 108.933 97.4524 109.334L97.3826 109.714C93.9533 128.684 89.7094 131.291 88.3129 132.144C87.3915 132.729 86.3242 133.044 85.2328 133.052Z" fill="#003D31"/>
<path d="M25.539 132.749C24.1812 132.749 22.2804 132.136 20.6589 129.359C17.9977 124.812 16.3995 115.161 15.678 109.807C13.7306 95.2913 15.0185 94.0655 15.8719 93.2586C16.385 92.7718 17.0489 92.4748 17.7537 92.4169C18.4586 92.359 19.1621 92.5435 19.7477 92.94C20.3334 93.3364 20.766 93.921 20.9741 94.597C21.1821 95.2729 21.153 95.9996 20.8917 96.6568C20.752 98.2085 21.0856 104.415 22.2649 111.964C23.4054 119.218 24.6468 123.323 25.539 125.324C27.4243 120.848 29.6587 107.891 30.5742 91.8388C30.6205 91.0157 30.9919 90.2447 31.6066 89.6955C32.2214 89.1462 33.0291 88.8636 33.8522 88.9099C34.6753 88.9562 35.4462 89.3276 35.9955 89.9423C36.5448 90.5571 36.8273 91.3648 36.781 92.1879C36.781 92.5603 36.2457 101.366 35.0276 110.552C32.7854 127.419 30.1475 131.547 26.8734 132.555C26.441 132.687 25.9911 132.753 25.539 132.749Z" fill="#003D31"/>
<path d="M65.6581 180.223C88.8951 180.223 107.732 177.58 107.732 174.319C107.732 171.058 88.8951 168.415 65.6581 168.415C42.4212 168.415 23.5839 171.058 23.5839 174.319C23.5839 177.58 42.4212 180.223 65.6581 180.223Z" fill="#E6E7E8"/>
<path d="M60.8556 118.939C88.9002 118.939 111.635 96.2045 111.635 68.1599C111.635 40.1153 88.9002 17.3806 60.8556 17.3806C32.811 17.3806 10.0763 40.1153 10.0763 68.1599C10.0763 96.2045 32.811 118.939 60.8556 118.939Z" fill="#FF7D7D"/>
<path d="M60.8556 17.3806C70.8988 17.3806 80.7165 20.3587 89.0671 25.9384C97.4177 31.5181 103.926 39.4488 107.77 48.7275C111.613 58.0062 112.619 68.2162 110.659 78.0664C108.7 87.9166 103.864 96.9646 96.762 104.066C89.6604 111.168 80.6124 116.004 70.7622 117.963C60.912 119.923 50.7019 118.917 41.4232 115.074C32.1445 111.23 24.2139 104.722 18.6342 96.3713C13.0545 88.0207 10.0763 78.2031 10.0763 68.1599C10.0763 54.6924 15.4263 41.7765 24.9492 32.2535C34.4722 22.7305 47.3881 17.3806 60.8556 17.3806ZM60.8556 16.6047C50.6544 16.6047 40.6822 19.6298 32.2002 25.2973C23.7182 30.9648 17.1072 39.0202 13.2034 48.4449C9.29954 57.8697 8.27811 68.2404 10.2683 78.2456C12.2584 88.2508 17.1708 97.4412 24.3842 104.655C31.5976 111.868 40.7879 116.78 50.7932 118.77C60.7984 120.761 71.1691 119.739 80.5938 115.835C90.0186 111.932 98.074 105.321 103.742 96.8386C109.409 88.3565 112.434 78.3844 112.434 68.1831C112.42 54.5081 106.981 41.3973 97.3112 31.7276C87.6415 22.0579 74.5307 16.6191 60.8556 16.6047Z" fill="#003D31"/>
<path d="M37.0894 57.0961C37.8738 55.0748 35.932 52.4359 32.7523 51.2019C29.5725 49.968 26.3589 50.6062 25.5745 52.6275C24.7901 54.6488 26.7319 57.2877 29.9116 58.5217C33.0914 59.7556 36.305 59.1174 37.0894 57.0961Z" fill="white"/>
<path d="M103.207 75.4821C103.991 73.4608 102.05 70.8219 98.8698 69.5879C95.6901 68.3539 92.4765 68.9922 91.6921 71.0135C90.9077 73.0348 92.8495 75.6737 96.0292 76.9076C99.2089 78.1416 102.423 77.5034 103.207 75.4821Z" fill="white"/>
<path d="M88.887 46.6844L89.3137 46.2887C90.2377 45.4522 91.3771 44.8906 92.6033 44.6672C93.7746 44.4714 94.9777 44.6297 96.0586 45.1218C97.1395 45.6138 98.0489 46.4173 98.6704 47.4292C99.2996 48.4671 99.5721 49.6823 99.4463 50.8895C99.3556 51.666 99.1733 52.4291 98.9032 53.1627C98.6602 53.8858 98.3293 54.5763 97.9179 55.2187C97.2501 56.2137 96.3934 57.0678 95.3964 57.7325C94.3746 58.4121 93.3123 59.0287 92.2154 59.579C90.3301 60.5721 88.4447 61.5574 86.5672 62.5582C86.0086 62.8531 85.4733 63.1712 84.9224 63.4815L84.8293 63.5358C84.7362 63.4039 84.6508 63.2798 84.5733 63.1479C83.4095 61.3634 82.1759 59.6255 80.9345 57.8954C80.1587 56.7627 79.313 55.6377 78.607 54.4429C78.0649 53.5901 77.6322 52.6726 77.3191 51.7119C77.0032 50.6884 76.8899 49.6132 76.9855 48.5464C77.0472 47.7585 77.1876 46.9788 77.4044 46.2189C77.7004 45.1022 78.3326 44.1036 79.2152 43.3583C80.0979 42.6131 81.1884 42.1572 82.3388 42.0526C83.4885 41.9222 84.6512 42.132 85.6828 42.6561C86.7144 43.1801 87.5695 43.9954 88.1422 45.0008C88.4457 45.4874 88.6905 46.0083 88.8715 46.5525C88.8715 46.5525 88.8715 46.6378 88.887 46.6844Z" fill="#003D31"/>
<path d="M55.1298 36.3036L55.5876 35.9467C56.5818 35.1924 57.7667 34.7302 59.0091 34.6122C59.9706 34.5269 60.9383 34.6815 61.8254 35.0622C63.1366 35.5969 64.2015 36.601 64.8124 37.8785C65.3466 38.9679 65.5127 40.2012 65.2857 41.3931C65.1168 42.1611 64.8563 42.9061 64.5098 43.612C64.2244 44.3242 63.849 44.9969 63.3926 45.6137C62.6457 46.5601 61.7205 47.3508 60.6694 47.9413C59.5957 48.5267 58.4867 49.045 57.3488 49.493L51.4678 51.9834C50.8937 52.2317 50.3273 52.5033 49.761 52.7593L49.6523 52.8058L49.4351 52.3946C48.4265 50.5171 47.3481 48.6783 46.2541 46.8473C45.5481 45.6525 44.8266 44.4655 44.2059 43.2164C43.7427 42.3178 43.3884 41.3671 43.1507 40.3845C42.9246 39.3382 42.9035 38.2579 43.0887 37.2035C43.2153 36.4085 43.4233 35.6285 43.7093 34.876C44.099 33.789 44.8134 32.848 45.7557 32.1805C46.6979 31.513 47.8226 31.1512 48.9774 31.1442C50.1338 31.1118 51.2743 31.4195 52.2576 32.029C53.2409 32.6386 54.0238 33.5233 54.5092 34.5734C54.7733 35.0931 54.9739 35.6428 55.1066 36.2104C55.1127 36.2419 55.1205 36.2729 55.1298 36.3036Z" fill="#003D31"/>
<path d="M5.46779 30.6244L5.63848 30.3916C5.99735 29.9106 6.48383 29.5397 7.04276 29.321C7.47697 29.1527 7.94598 29.094 8.40826 29.1503C9.04647 29.2132 9.64257 29.4974 10.0932 29.9537C10.5438 30.41 10.8206 31.0096 10.8755 31.6485C10.9065 32.024 10.8908 32.4019 10.8289 32.7735C10.7843 33.1405 10.6931 33.5003 10.5574 33.8442C10.3365 34.3806 10.0122 34.8683 9.60306 35.2795C9.18491 35.6989 8.74188 36.0927 8.27636 36.4588L5.87899 38.4139L5.18848 39.0036L5.03331 38.8406C4.31177 38.0648 3.5592 37.3976 2.80663 36.6915C2.31785 36.2338 1.8213 35.776 1.36355 35.2873C1.02565 34.9303 0.731346 34.5344 0.486838 34.108C0.241928 33.6529 0.0865416 33.1552 0.0290907 32.6416C-0.0096969 32.2572 -0.0096969 31.87 0.0290907 31.4856C0.0624743 30.9273 0.267451 30.3929 0.616008 29.9554C0.964566 29.518 1.4397 29.1989 1.97647 29.0417C2.50933 28.8696 3.08102 28.8581 3.6204 29.0084C4.15977 29.1588 4.64303 29.4644 5.01004 29.8873C5.20373 30.093 5.37057 30.3224 5.50658 30.5701C5.49885 30.5914 5.48544 30.6102 5.46779 30.6244Z" fill="#E6E7E8"/>
<path d="M132.816 56.8557L133.196 56.6385C134.022 56.1708 134.962 55.9424 135.911 55.979C136.811 56.0303 137.676 56.3484 138.394 56.8928C139.113 57.4372 139.653 58.1833 139.946 59.0359C140.237 59.9123 140.237 60.8594 139.946 61.7358C139.747 62.281 139.487 62.8017 139.17 63.2875C138.873 63.7843 138.513 64.2407 138.099 64.6453C137.44 65.2758 136.662 65.769 135.81 66.0961C134.94 66.4317 134.052 66.7167 133.149 66.9495L128.494 68.2219C128.036 68.3461 127.586 68.4935 127.129 68.6331H127.043C127.004 68.5167 126.966 68.4081 126.919 68.2995C126.353 66.7866 125.732 65.2892 125.096 63.7996C124.685 62.822 124.266 61.8522 123.932 60.8514C123.671 60.1279 123.502 59.3747 123.428 58.6092C123.361 57.7969 123.456 56.9794 123.707 56.204C123.886 55.627 124.12 55.0685 124.405 54.5359C124.81 53.7571 125.445 53.1219 126.224 52.7166C127.003 52.3112 127.888 52.1555 128.758 52.2705C129.633 52.3631 130.462 52.7111 131.14 53.2712C131.819 53.8313 132.318 54.5788 132.575 55.4204C132.718 55.8375 132.811 56.2697 132.854 56.7083C132.831 56.754 132.817 56.8043 132.816 56.8557Z" fill="#E6E7E8"/>
<path d="M126.679 18.9634C126.857 18.8548 127.012 18.7461 127.183 18.653C128.27 18.0024 129.516 17.6667 130.783 17.6832C131.985 17.709 133.151 18.0916 134.135 18.7824C135.119 19.4732 135.875 20.4409 136.307 21.5625C136.725 22.7211 136.758 23.9837 136.4 25.1624C136.163 25.9221 135.832 26.6492 135.415 27.327C135.037 28.0028 134.575 28.6284 134.041 29.1891C133.177 30.0714 132.146 30.7729 131.008 31.2528C129.86 31.7369 128.683 32.1515 127.486 32.4942L121.279 34.3872C120.666 34.5734 120.068 34.7907 119.463 34.9924H119.355C119.293 34.8372 119.23 34.6976 119.176 34.5502C118.354 32.5485 117.462 30.5701 116.554 28.6072C115.964 27.3193 115.367 26.0391 114.87 24.7279C114.492 23.7699 114.232 22.7695 114.094 21.7487C113.977 20.6649 114.072 19.5687 114.374 18.5211C114.588 17.7417 114.879 16.9854 115.243 16.2634C115.752 15.2055 116.575 14.3298 117.599 13.7553C118.624 13.1807 119.8 12.935 120.968 13.0514C122.141 13.143 123.261 13.5761 124.191 14.2972C125.12 15.0183 125.818 15.9959 126.198 17.1091C126.409 17.6639 126.552 18.2422 126.624 18.8315C126.638 18.8771 126.656 18.9213 126.679 18.9634Z" fill="#E6E7E8"/>
<path d="M19.8365 7.82222C19.9529 7.73688 20.0615 7.64378 20.1779 7.56619C20.9051 7.01069 21.773 6.66942 22.6839 6.58086C23.3913 6.51924 24.103 6.63386 24.7554 6.91448C25.7196 7.30658 26.5045 8.04174 26.9588 8.97824C27.3492 9.78255 27.469 10.6916 27.3002 11.5696C27.1849 12.1324 27.0026 12.6794 26.7571 13.1989C26.533 13.7115 26.2492 14.1959 25.9114 14.6419C25.3714 15.3271 24.7018 15.8992 23.9407 16.3255C23.1507 16.7632 22.3346 17.1519 21.4968 17.4893L17.1753 19.3203C16.7486 19.5065 16.3374 19.7082 15.9185 19.8944H15.8409L15.6779 19.5918C14.9409 18.2108 14.1263 16.8609 13.3504 15.5109C12.8306 14.6342 12.303 13.7575 11.8453 12.842C11.5026 12.1832 11.242 11.4849 11.0694 10.7627C10.9048 9.99701 10.889 9.2068 11.0229 8.43515C11.117 7.85796 11.2677 7.29144 11.4728 6.7438C11.7614 5.94448 12.2878 5.25274 12.9814 4.7617C13.675 4.27066 14.5023 4.00389 15.3521 3.99729C16.2021 3.97361 17.0404 4.1999 17.7631 4.64812C18.4858 5.09633 19.061 5.74677 19.4175 6.5188C19.6159 6.89823 19.7621 7.30275 19.852 7.72136L19.8365 7.82222Z" fill="#E6E7E8"/>
<path d="M92.0913 2.76366L92.3318 2.56969C92.8582 2.17295 93.4836 1.9287 94.1395 1.86367C94.6484 1.81777 95.1606 1.90047 95.6291 2.10418C96.2731 2.36725 96.8067 2.84417 97.1402 3.45464C97.4737 4.0651 97.5867 4.77184 97.4601 5.45585C97.3779 5.8604 97.2476 6.25369 97.0722 6.62738C96.9105 6.99735 96.7047 7.34642 96.4593 7.66702C96.0642 8.16307 95.5735 8.57466 95.0162 8.87734C94.4495 9.19235 93.8639 9.47218 93.2628 9.71526L90.1594 11.0342L89.2594 11.4454H89.2051C89.1592 11.3757 89.1177 11.3031 89.081 11.2282C88.5534 10.2351 87.9793 9.26527 87.4051 8.29546C87.0327 7.66702 86.6293 7.03858 86.3189 6.37911C86.0713 5.9024 85.8836 5.39683 85.7603 4.87396C85.6517 4.31802 85.6517 3.74632 85.7603 3.19037C85.8306 2.77504 85.9397 2.36722 86.0862 1.97229C86.2951 1.39811 86.6747 0.901573 87.1739 0.549322C87.6732 0.19707 88.2683 0.00595844 88.8792 0.00163377C89.4915 -0.0182388 90.096 0.143554 90.6165 0.466627C91.137 0.789699 91.5503 1.2596 91.8042 1.81712C91.9419 2.09067 92.0461 2.37982 92.1145 2.67831C92.1104 2.70763 92.1026 2.73631 92.0913 2.76366Z" fill="#E6E7E8"/>
<path d="M95.1171 85.8881L27.6648 64.9402C27.6648 64.9402 19.1305 90.388 50.1179 101.343C81.1053 112.298 95.1171 85.8881 95.1171 85.8881Z" fill="#003D31"/>
<path d="M30.4191 108.884C30.4191 108.884 30.7372 99.9465 25.9812 96.1836C21.2253 92.4207 14.6305 90.613 14.6305 90.613C14.6305 90.613 12.6676 78.8434 9.1996 78.2692C5.73156 77.6951 3.19453 85.9114 4.12555 91.707C5.05657 97.5025 13.8935 104.71 13.8935 104.71L30.4191 108.884Z" fill="white"/>
<path d="M30.4191 109.28H30.3182L13.8082 105.083C13.7516 105.068 13.6987 105.041 13.653 105.005C13.2883 104.703 4.68417 97.6345 3.73764 91.7536C3.00834 87.1683 4.38935 81.1322 6.70914 78.8357C7.02276 78.475 7.42042 78.1971 7.86697 78.0266C8.31353 77.8561 8.79521 77.7982 9.26943 77.8581C12.7297 78.4323 14.6305 88.2623 14.9797 90.2717C16.2443 90.6441 21.9623 92.4596 26.2295 95.8656C31.0863 99.706 30.8303 108.512 30.8148 108.884C30.8142 108.944 30.7999 109.004 30.773 109.057C30.7461 109.111 30.7073 109.158 30.6596 109.195C30.5913 109.249 30.5066 109.28 30.4191 109.28ZM14.1263 104.315L30.0544 108.365C30.0544 106.456 29.6743 99.5897 25.7717 96.494C21.1166 92.8243 14.6306 90.9933 14.5607 90.9777C14.4869 90.9588 14.4203 90.9185 14.3693 90.8619C14.3182 90.8054 14.285 90.735 14.2737 90.6596C13.7383 87.4632 11.7832 79.0762 9.17634 78.6418C8.82593 78.6061 8.47215 78.6583 8.14703 78.7938C7.8219 78.9293 7.53569 79.1437 7.3143 79.4176C5.18847 81.5279 3.87729 87.3545 4.56779 91.645C5.38244 96.9363 13.2728 103.64 14.0875 104.315H14.1263Z" fill="#003D31"/>
<path d="M11.595 110.384L32.2721 109.264C33.9792 109.172 35.2882 107.713 35.1958 106.006L35.1735 105.595C35.0811 103.888 33.6222 102.579 31.915 102.671L11.2379 103.791C9.53073 103.884 8.22175 105.342 8.3142 107.05L8.33644 107.46C8.4289 109.167 9.88779 110.476 11.595 110.384Z" fill="white"/>
<path d="M11.4185 110.785C10.5587 110.788 9.72867 110.47 9.091 109.893C8.7488 109.587 8.4705 109.216 8.27211 108.802C8.07372 108.388 7.95915 107.939 7.93499 107.48V107.069C7.88631 106.144 8.20599 105.238 8.82402 104.549C9.44204 103.86 10.308 103.443 11.2323 103.391L31.9009 102.251C32.8249 102.204 33.7299 102.525 34.4187 103.142C35.1075 103.76 35.5244 104.625 35.5785 105.548V105.967C35.6051 106.425 35.5407 106.884 35.3888 107.316C35.237 107.749 35.0008 108.148 34.694 108.489C34.0741 109.178 33.2066 109.593 32.2811 109.645L11.6125 110.785H11.4185ZM11.2556 104.19C10.5426 104.228 9.87399 104.548 9.39675 105.079C8.91951 105.61 8.67279 106.309 8.71084 107.022V107.433C8.74892 108.146 9.06866 108.815 9.59973 109.292C10.1308 109.77 10.8297 110.016 11.5427 109.978L32.2346 108.861C32.9462 108.821 33.6128 108.5 34.0884 107.97C34.564 107.439 34.8097 106.741 34.7716 106.029V105.61C34.7295 104.899 34.4086 104.232 33.8784 103.756C33.3483 103.28 32.6517 103.032 31.9397 103.065L11.2556 104.19Z" fill="#003D31"/>
<path d="M85.8069 118.481C85.8069 118.481 85.4888 109.551 90.237 105.789C94.9852 102.026 101.588 100.195 101.588 100.195C101.588 100.195 103.558 88.4251 107.019 87.8432C110.479 87.2613 113.016 95.4853 112.085 101.281C111.154 107.077 102.301 114.284 102.301 114.284L85.8069 118.481Z" fill="white"/>
<path d="M85.8069 118.885C85.7208 118.884 85.6369 118.857 85.5664 118.807C85.5181 118.771 85.4784 118.724 85.4502 118.67C85.4221 118.617 85.4061 118.558 85.4035 118.497C85.4035 118.125 85.132 109.319 89.9888 105.471C94.2947 102.065 99.9817 100.257 101.239 99.8767C101.595 97.8518 103.489 88.0295 106.949 87.4632C107.422 87.4016 107.904 87.4579 108.351 87.6271C108.797 87.7963 109.195 88.0731 109.509 88.433C111.837 90.7605 113.218 96.7733 112.481 101.351C111.534 107.232 102.938 114.308 102.573 114.602C102.527 114.639 102.474 114.665 102.418 114.68L85.9 118.877L85.8069 118.885ZM107.36 88.2157C107.267 88.2081 107.174 88.2081 107.081 88.2157C104.474 88.6502 102.519 97.0449 101.983 100.241C101.969 100.316 101.935 100.385 101.885 100.441C101.834 100.497 101.769 100.538 101.696 100.559C101.634 100.559 95.1171 102.406 90.4853 106.076C86.6061 109.179 86.2259 116.038 86.2026 117.946L102.131 113.889C102.945 113.214 110.836 106.502 111.689 101.188C112.38 96.8975 111.069 91.1019 108.951 88.9605C108.538 88.5141 107.967 88.2468 107.36 88.2157Z" fill="#003D31"/>
<path d="M103.386 114.453L82.7085 113.333C81.0013 113.24 79.5424 114.549 79.45 116.257L79.4277 116.667C79.3353 118.374 80.6443 119.833 82.3514 119.926L103.029 121.046C104.736 121.138 106.195 119.829 106.287 118.122L106.309 117.711C106.402 116.004 105.093 114.545 103.386 114.453Z" fill="white"/>
<path d="M103.209 121.453H103.015L82.3311 120.336C81.4054 120.286 80.5374 119.87 79.9177 119.181C79.298 118.491 78.9773 117.584 79.0259 116.658V116.239C79.08 115.316 79.4969 114.451 80.1857 113.833C80.8745 113.216 81.7795 112.895 82.7035 112.942L103.395 114.059C104.319 114.113 105.184 114.53 105.801 115.219C106.419 115.908 106.739 116.813 106.693 117.737V118.156C106.641 119.046 106.252 119.882 105.605 120.495C104.957 121.108 104.101 121.451 103.209 121.453ZM82.5405 113.733C81.8519 113.734 81.1896 113.998 80.6891 114.471C80.1887 114.944 79.8879 115.591 79.8483 116.278V116.689C79.8259 117.043 79.8747 117.398 79.992 117.732C80.1093 118.067 80.2926 118.374 80.5311 118.637C80.766 118.9 81.0508 119.115 81.3691 119.268C81.6873 119.421 82.0327 119.51 82.3854 119.529L103.077 120.646C103.79 120.682 104.487 120.435 105.018 119.958C105.549 119.481 105.869 118.814 105.909 118.101V117.69C105.947 116.977 105.7 116.278 105.223 115.747C104.746 115.216 104.077 114.896 103.364 114.858L82.6802 113.733H82.5405Z" fill="#003D31"/>
<path d="M72.6873 149.096C72.6873 149.096 88.1112 137.552 89.1974 139.406C90.2836 141.26 97.049 157.382 97.049 157.382C97.049 157.382 120.79 158.469 118.517 161.145C116.243 163.822 85.1552 174.335 85.1552 174.335L72.6873 149.096Z" fill="white"/>
<path d="M85.1862 174.723C85.1118 174.722 85.039 174.7 84.976 174.661C84.913 174.621 84.8623 174.565 84.8293 174.498L72.3227 149.275C72.2827 149.191 72.2733 149.095 72.2959 149.005C72.3186 148.914 72.3719 148.834 72.4468 148.778C73.8744 147.708 86.4742 138.328 88.9957 138.832C89.1093 138.849 89.2177 138.892 89.313 138.956C89.4083 139.021 89.488 139.106 89.5465 139.205C90.5706 140.958 96.4516 154.931 97.305 156.995C101.301 157.189 117.966 158.112 118.982 160.455C119.049 160.613 119.068 160.787 119.036 160.955C119.004 161.124 118.924 161.279 118.804 161.402C116.476 164.133 86.575 174.273 85.3026 174.7C85.2652 174.713 85.226 174.721 85.1862 174.723ZM73.1916 149.221L85.3957 173.831C94.2326 170.828 116.43 162.969 118.206 160.882C118.253 160.827 118.268 160.796 118.261 160.773C117.702 159.485 107.026 158.244 97.0335 157.786C96.9565 157.783 96.8819 157.758 96.8187 157.714C96.7555 157.67 96.7061 157.609 96.6766 157.538C96.6145 157.383 89.9189 141.416 88.856 139.608C87.9095 139.049 80.0346 144.147 73.1916 149.221Z" fill="#003D31"/>
<path d="M50.436 144.659C50.436 144.659 31.3501 141.982 31.288 144.123C31.226 146.265 33.0725 163.659 33.0725 163.659C33.0725 163.659 12.7918 176.073 16.0736 177.299C19.3555 178.524 51.6308 172.791 51.6308 172.791L50.436 144.659Z" fill="white"/>
<path d="M17.7883 177.857C17.1643 177.891 16.5388 177.828 15.934 177.671C15.7651 177.619 15.6159 177.517 15.5064 177.379C15.3969 177.24 15.3323 177.071 15.3211 176.895C15.2745 176.406 15.1582 175.103 24.0882 168.982C27.8666 166.39 31.7148 164.001 32.6225 163.419C32.382 161.192 30.7993 146.117 30.8613 144.085C30.8639 143.969 30.8925 143.855 30.9448 143.751C30.9972 143.648 31.0721 143.558 31.1639 143.487C33.1035 141.85 48.6903 143.984 50.4593 144.263C50.5513 144.277 50.6356 144.323 50.6978 144.392C50.76 144.461 50.7963 144.55 50.8006 144.643L51.9954 172.775C51.9991 172.872 51.9682 172.966 51.9085 173.041C51.8487 173.117 51.764 173.168 51.6696 173.187C50.5136 173.396 25.3761 177.857 17.7883 177.857ZM34.8957 143.72C33.0725 143.72 31.8777 143.86 31.6837 144.193C31.6294 146.265 33.4527 163.481 33.4759 163.651C33.4833 163.727 33.469 163.803 33.4346 163.87C33.4002 163.937 33.3473 163.993 33.282 164.032C24.7476 169.253 15.9883 175.483 16.1202 176.88C16.1202 176.88 16.1202 176.926 16.2211 176.949C18.7891 177.935 42.018 174.118 51.2118 172.488L50.0481 145.039C45.0281 144.293 39.9686 143.842 34.8957 143.689V143.72Z" fill="#003D31"/>
</svg>
