<svg width="42" height="56" viewBox="0 0 42 56" fill="none" xmlns="http://www.w3.org/2000/svg">
<path d="M38.9321 6.36401H2.19942C1.14167 6.36401 0.284195 7.22149 0.284195 8.27924V53.7887C0.284195 54.8465 1.14167 55.704 2.19942 55.704H38.9321C39.9898 55.704 40.8473 54.8465 40.8473 53.7887V8.27924C40.8473 7.22149 39.9898 6.36401 38.9321 6.36401Z" fill="#5CE4CA"/>
<path d="M38.9172 56H2.21124C1.62502 55.9993 1.06304 55.766 0.648524 55.3515C0.234006 54.937 0.00078319 54.375 0 53.7888V8.27929C0.00078319 7.69308 0.234006 7.13109 0.648524 6.71658C1.06304 6.30206 1.62502 6.06884 2.21124 6.06805H38.9172C39.5034 6.06884 40.0654 6.30206 40.48 6.71658C40.8945 7.13109 41.1277 7.69308 41.1285 8.27929V53.7888C41.1277 54.375 40.8945 54.937 40.48 55.3515C40.0654 55.766 39.5034 55.9993 38.9172 56ZM2.21124 6.66009C1.7818 6.66009 1.36995 6.83068 1.06629 7.13434C0.762627 7.438 0.592032 7.84985 0.592032 8.27929V53.7888C0.592032 54.2182 0.762627 54.6301 1.06629 54.9338C1.36995 55.2374 1.7818 55.408 2.21124 55.408H38.9172C39.3467 55.408 39.7585 55.2374 40.0622 54.9338C40.3658 54.6301 40.5364 54.2182 40.5364 53.7888V8.27929C40.5364 7.84985 40.3658 7.438 40.0622 7.13434C39.7585 6.83068 39.3467 6.66009 38.9172 6.66009H2.21124Z" fill="#003D31"/>
<path d="M37.3987 8.84473H3.72684V52.6285H37.3987V8.84473Z" fill="white"/>
<path d="M37.4016 52.9274H3.72685C3.64834 52.9274 3.57305 52.8962 3.51753 52.8407C3.46202 52.7852 3.43083 52.7099 3.43083 52.6314V8.84466C3.43083 8.76615 3.46202 8.69086 3.51753 8.63535C3.57305 8.57983 3.64834 8.54865 3.72685 8.54865H37.4016C37.4802 8.54865 37.5554 8.57983 37.611 8.63535C37.6665 8.69086 37.6977 8.76615 37.6977 8.84466V52.6314C37.6977 52.7099 37.6665 52.7852 37.611 52.8407C37.5554 52.8962 37.4802 52.9274 37.4016 52.9274ZM4.02286 52.3353H37.1056V9.14068H4.02286V52.3353Z" fill="#003D31"/>
<path d="M13.895 23.3641H8.56671C8.4882 23.3641 8.41291 23.333 8.35739 23.2774C8.30188 23.2219 8.27069 23.1466 8.27069 23.0681V18.4C8.27069 18.3215 8.30188 18.2462 8.35739 18.1906C8.41291 18.1351 8.4882 18.1039 8.56671 18.1039H13.895C13.9735 18.1039 14.0488 18.1351 14.1043 18.1906C14.1598 18.2462 14.191 18.3215 14.191 18.4V23.0681C14.191 23.1466 14.1598 23.2219 14.1043 23.2774C14.0488 23.333 13.9735 23.3641 13.895 23.3641ZM8.86272 22.7721H13.599V18.696H8.86272V22.7721Z" fill="#DFEAEF"/>
<path d="M31.6204 19.8475H22.8406C22.3191 19.8475 21.8963 20.2702 21.8963 20.7918C21.8963 21.3133 22.3191 21.7361 22.8406 21.7361H31.6204C32.142 21.7361 32.5647 21.3133 32.5647 20.7918C32.5647 20.2702 32.142 19.8475 31.6204 19.8475Z" fill="#DFEAEF"/>
<path d="M13.895 35.2552H8.56671C8.4882 35.2552 8.41291 35.224 8.35739 35.1685C8.30188 35.113 8.27069 35.0377 8.27069 34.9592V30.291C8.27069 30.2125 8.30188 30.1372 8.35739 30.0817C8.41291 30.0262 8.4882 29.995 8.56671 29.995H13.895C13.9735 29.995 14.0488 30.0262 14.1043 30.0817C14.1598 30.1372 14.191 30.2125 14.191 30.291V34.9592C14.191 35.0377 14.1598 35.113 14.1043 35.1685C14.0488 35.224 13.9735 35.2552 13.895 35.2552ZM8.86272 34.6632H13.599V30.587H8.86272V34.6632Z" fill="#DFEAEF"/>
<path d="M31.6204 31.7355H22.8406C22.3191 31.7355 21.8963 32.1583 21.8963 32.6798C21.8963 33.2013 22.3191 33.6241 22.8406 33.6241H31.6204C32.142 33.6241 32.5647 33.2013 32.5647 32.6798C32.5647 32.1583 32.142 31.7355 31.6204 31.7355Z" fill="#DFEAEF"/>
<path d="M13.895 47.1461H8.56671C8.4882 47.1461 8.41291 47.1149 8.35739 47.0594C8.30188 47.0039 8.27069 46.9286 8.27069 46.8501V42.1819C8.27069 42.1034 8.30188 42.0281 8.35739 41.9726C8.41291 41.9171 8.4882 41.8859 8.56671 41.8859H13.895C13.9735 41.8859 14.0488 41.9171 14.1043 41.9726C14.1598 42.0281 14.191 42.1034 14.191 42.1819V46.8501C14.191 46.9286 14.1598 47.0039 14.1043 47.0594C14.0488 47.1149 13.9735 47.1461 13.895 47.1461ZM8.86272 46.5541H13.599V42.478H8.86272V46.5541Z" fill="#DFEAEF"/>
<path d="M31.6204 43.6266H22.8406C22.3191 43.6266 21.8963 44.0494 21.8963 44.5709C21.8963 45.0924 22.3191 45.5152 22.8406 45.5152H31.6204C32.142 45.5152 32.5647 45.0924 32.5647 44.5709C32.5647 44.0494 32.142 43.6266 31.6204 43.6266Z" fill="#DFEAEF"/>
<path d="M7.59578 31.0429L11.8229 35.2227L18.1843 29.1632L16.6509 27.6299L11.8229 32.227L9.12914 29.5806L7.59578 31.0429Z" fill="#5CE4CA"/>
<path d="M11.8229 35.5187C11.7452 35.5184 11.6708 35.4875 11.6157 35.4329L7.38561 31.2472C7.35782 31.2192 7.33591 31.1859 7.32117 31.1493C7.30642 31.1127 7.29915 31.0735 7.29976 31.0341C7.30031 30.9947 7.30871 30.9558 7.32447 30.9197C7.34022 30.8836 7.36302 30.8511 7.39153 30.8239L8.92489 29.3616C8.98009 29.3082 9.05386 29.2784 9.13062 29.2784C9.20739 29.2784 9.28116 29.3082 9.33636 29.3616L11.8258 31.8067L16.4467 27.4079C16.502 27.3536 16.5764 27.3232 16.6539 27.3232C16.7314 27.3232 16.8058 27.3536 16.8611 27.4079L18.3915 28.9383C18.4198 28.966 18.4423 28.9992 18.4575 29.0358C18.4728 29.0724 18.4805 29.1117 18.4803 29.1514C18.4797 29.1908 18.4713 29.2296 18.4556 29.2657C18.4398 29.3018 18.417 29.3344 18.3885 29.3616L12.0271 35.421C11.9747 35.4794 11.9012 35.5145 11.8229 35.5187ZM8.01908 31.0459L11.8258 34.7994L17.761 29.1455L16.645 28.0325L12.0271 32.4313C11.9719 32.4846 11.8982 32.5144 11.8214 32.5144C11.7446 32.5144 11.6709 32.4846 11.6157 32.4313L9.12618 29.9832L8.01908 31.0459Z" fill="#003D31"/>
<path d="M7.59578 19.1045L11.8229 23.2843L18.1843 17.2248L16.6509 15.6915L11.8229 20.2886L9.12914 17.6422L7.59578 19.1045Z" fill="#5CE4CA"/>
<path d="M11.8229 23.5802C11.7452 23.5799 11.6708 23.5491 11.6157 23.4944L7.38561 19.3146C7.35782 19.2866 7.33591 19.2533 7.32117 19.2167C7.30642 19.1801 7.29915 19.141 7.29976 19.1015C7.29992 19.0616 7.30812 19.0222 7.32389 18.9856C7.33966 18.9489 7.36267 18.9159 7.39153 18.8884L8.92489 17.429C8.98009 17.3757 9.05386 17.3458 9.13062 17.3458C9.20739 17.3458 9.28116 17.3757 9.33636 17.429L11.8258 19.8741L16.4467 15.4753C16.502 15.4211 16.5764 15.3907 16.6539 15.3907C16.7314 15.3907 16.8058 15.4211 16.8611 15.4753L18.3915 17.0057C18.4198 17.0335 18.4423 17.0666 18.4575 17.1033C18.4728 17.1399 18.4805 17.1792 18.4803 17.2188C18.4797 17.2582 18.4713 17.2971 18.4556 17.3332C18.4398 17.3693 18.417 17.4018 18.3885 17.429L12.0271 23.4885C11.9737 23.5446 11.9004 23.5776 11.8229 23.5802ZM8.01908 19.1104L11.8258 22.8757L17.761 17.2218L16.645 16.1088L12.0271 20.5076C11.9719 20.5609 11.8982 20.5908 11.8214 20.5908C11.7446 20.5908 11.6709 20.5609 11.6157 20.5076L9.12618 18.0595L8.01908 19.1104Z" fill="#003D31"/>
<path d="M30.9544 3.89223H24.3147C24.2878 2.94883 23.8941 2.05311 23.2172 1.39535C22.5404 0.737591 21.6338 0.369629 20.69 0.369629C19.7462 0.369629 18.8396 0.737591 18.1628 1.39535C17.486 2.05311 17.0923 2.94883 17.0653 3.89223H10.1741C9.93853 3.89223 9.71266 3.98579 9.54612 4.15233C9.37958 4.31888 9.28601 4.54475 9.28601 4.78028V9.78295C9.28679 10.5765 9.60175 11.3374 10.162 11.8993C10.7223 12.4613 11.4823 12.7785 12.2758 12.7816H28.8527C29.6477 12.7808 30.41 12.4646 30.9722 11.9024C31.5344 11.3403 31.8505 10.578 31.8513 9.78295V4.78324C31.8517 4.66562 31.8287 4.54909 31.7837 4.44042C31.7387 4.33175 31.6726 4.23311 31.5891 4.15021C31.5057 4.06732 31.4066 4.00183 31.2976 3.95754C31.1887 3.91325 31.072 3.89105 30.9544 3.89223ZM20.6915 2.44175C21.0773 2.44174 21.4475 2.59418 21.7214 2.86586C21.9953 3.13754 22.1507 3.50645 22.1538 3.89223C22.1369 4.26907 21.9753 4.62485 21.7026 4.88552C21.4299 5.14619 21.0672 5.29167 20.69 5.29167C20.3128 5.29167 19.9501 5.14619 19.6775 4.88552C19.4048 4.62485 19.2432 4.26907 19.2262 3.89223C19.2294 3.50594 19.3852 3.13658 19.6597 2.86482C19.9343 2.59305 20.3052 2.44096 20.6915 2.44175Z" fill="#5CE4CA"/>
<path d="M28.8527 13.0777H12.2758C11.4038 13.0745 10.5685 12.7261 9.95273 12.1087C9.33695 11.4912 8.9908 10.655 8.99002 9.78301V4.7833C8.99002 4.46926 9.11477 4.16809 9.33683 3.94604C9.55888 3.72398 9.86005 3.59923 10.1741 3.59923H16.7782C16.8593 2.61825 17.3062 1.70361 18.0303 1.03686C18.7544 0.370108 19.7028 0 20.6871 0C21.6714 0 22.6198 0.370108 23.3439 1.03686C24.068 1.70361 24.5149 2.61825 24.596 3.59923H30.9515C31.2655 3.59923 31.5667 3.72398 31.7887 3.94604C32.0108 4.16809 32.1355 4.46926 32.1355 4.7833V9.78301C32.134 10.6543 31.788 11.4896 31.173 12.1068C30.558 12.724 29.724 13.073 28.8527 13.0777ZM10.183 4.19719C10.0259 4.19719 9.87537 4.25956 9.76434 4.37059C9.65331 4.48162 9.59093 4.6322 9.59093 4.78922V9.78301C9.59169 10.4965 9.87425 11.1808 10.3771 11.687C10.8799 12.1931 11.5623 12.4802 12.2758 12.4856H28.8527C29.5695 12.4849 30.2568 12.2 30.7639 11.6934C31.2711 11.1868 31.5567 10.4998 31.5583 9.78301V4.7833C31.5583 4.62628 31.4959 4.47569 31.3849 4.36467C31.2739 4.25364 31.1233 4.19127 30.9663 4.19127H24.3148C24.2363 4.19127 24.161 4.16008 24.1055 4.10456C24.0499 4.04905 24.0188 3.97376 24.0188 3.89525C24.0188 3.01203 23.6679 2.16499 23.0434 1.54046C22.4188 0.915926 21.5718 0.565068 20.6886 0.565068C19.8054 0.565068 18.9583 0.915926 18.3338 1.54046C17.7093 2.16499 17.3584 3.01203 17.3584 3.89525C17.3584 3.97376 17.3272 4.04905 17.2717 4.10456C17.2162 4.16008 17.1409 4.19127 17.0624 4.19127L10.183 4.19719ZM20.6975 5.67727C20.3512 5.67375 20.0137 5.56809 19.7273 5.37354C19.4409 5.17899 19.2183 4.90421 19.0874 4.58365C18.9565 4.26309 18.9232 3.91103 18.9916 3.57161C19.0601 3.23219 19.2271 2.92052 19.472 2.67569C19.7168 2.43086 20.0285 2.26376 20.3679 2.19535C20.7073 2.12694 21.0594 2.16026 21.3799 2.29114C21.7005 2.42201 21.9753 2.64462 22.1698 2.93104C22.3644 3.21746 22.47 3.55494 22.4736 3.90117C22.474 4.13459 22.4279 4.36575 22.3381 4.58118C22.2482 4.79661 22.1164 4.99199 21.9502 5.15594C21.7841 5.31988 21.5869 5.44911 21.3703 5.53607C21.1537 5.62304 20.922 5.666 20.6886 5.66247L20.6975 5.67727ZM20.6975 2.75263C20.4676 2.75613 20.2439 2.82749 20.0544 2.95776C19.865 3.08802 19.7182 3.27138 19.6327 3.48478C19.5471 3.69817 19.5265 3.9321 19.5735 4.15716C19.6205 4.38222 19.733 4.58837 19.8968 4.74971C20.0606 4.91104 20.2684 5.02037 20.4941 5.06395C20.7199 5.10753 20.9535 5.08342 21.1656 4.99465C21.3776 4.90588 21.5587 4.7564 21.6861 4.56501C21.8135 4.37362 21.8815 4.14884 21.8815 3.91893C21.8836 3.76226 21.854 3.60679 21.7946 3.46179C21.7352 3.3168 21.6472 3.18526 21.5359 3.07502C21.4246 2.96478 21.2921 2.87811 21.1466 2.82017C21.001 2.76224 20.8452 2.73423 20.6886 2.73783L20.6975 2.75263Z" fill="#003D31"/>
</svg>
