<svg width="470" height="424" viewBox="0 0 470 424" fill="none" xmlns="http://www.w3.org/2000/svg">
<path d="M462.225 302.153H7.7746V397.903H462.225V302.153Z" fill="white"/>
<path d="M462.225 398.74H7.77462C7.55757 398.74 7.34941 398.653 7.19593 398.5C7.04245 398.346 6.95624 398.138 6.95624 397.921V302.242C6.95624 302.134 6.97741 302.028 7.01854 301.929C7.05967 301.829 7.11994 301.739 7.19593 301.663C7.27192 301.587 7.36215 301.527 7.46144 301.486C7.56073 301.445 7.66715 301.423 7.77462 301.423H462.225C462.333 301.423 462.439 301.445 462.539 301.486C462.638 301.527 462.728 301.587 462.804 301.663C462.88 301.739 462.94 301.829 462.981 301.929C463.023 302.028 463.044 302.134 463.044 302.242V398.01C463.022 398.211 462.926 398.397 462.775 398.532C462.624 398.667 462.428 398.741 462.225 398.74ZM8.55742 397.103H461.407V302.971H8.593L8.55742 397.103Z" fill="#D1D3D4"/>
<path d="M462.136 302.153H7.86355C3.9726 302.153 0.818359 305.307 0.818359 309.198V310.55C0.818359 314.441 3.9726 317.595 7.86355 317.595H462.136C466.027 317.595 469.182 314.441 469.182 310.55V309.198C469.182 305.307 466.027 302.153 462.136 302.153Z" fill="white"/>
<path d="M462.136 318.414H7.86357C5.77802 318.414 3.77789 317.585 2.30319 316.11C0.828479 314.636 0 312.636 0 310.55V309.216C-5.31769e-06 307.129 0.827902 305.127 2.3021 303.649C3.7763 302.171 5.77639 301.339 7.86357 301.334H462.136C464.224 301.339 466.224 302.171 467.698 303.649C469.172 305.127 470 307.129 470 309.216V310.55C470 311.583 469.797 312.605 469.401 313.559C469.006 314.513 468.427 315.38 467.697 316.11C466.967 316.841 466.1 317.42 465.146 317.815C464.192 318.21 463.169 318.414 462.136 318.414ZM7.86357 302.971C6.21049 302.976 4.62671 303.636 3.45946 304.806C2.29222 305.977 1.63675 307.563 1.63676 309.216V310.55C1.63676 312.201 2.29279 313.785 3.46055 314.953C4.6283 316.121 6.21212 316.777 7.86357 316.777H462.136C463.788 316.777 465.372 316.121 466.539 314.953C467.707 313.785 468.363 312.201 468.363 310.55V309.216C468.363 307.563 467.708 305.977 466.541 304.806C465.373 303.636 463.79 302.976 462.136 302.971H7.86357Z" fill="#D1D3D4"/>
<path d="M181.787 277.53H39.478V301.316H181.787V277.53Z" fill="#003D31"/>
<path d="M181.787 302.099H39.4602C39.2526 302.099 39.0535 302.017 38.9067 301.87C38.7599 301.723 38.6774 301.524 38.6774 301.317V277.53C38.6774 277.323 38.7599 277.123 38.9067 276.977C39.0535 276.83 39.2526 276.747 39.4602 276.747H181.787C181.995 276.747 182.194 276.83 182.341 276.977C182.488 277.123 182.57 277.323 182.57 277.53V301.317C182.57 301.524 182.488 301.723 182.341 301.87C182.194 302.017 181.995 302.099 181.787 302.099ZM40.2608 300.463H181.005V278.313H40.2608V300.463Z" fill="#003D31"/>
<path d="M181.77 277.53H104.219V301.316H181.77V277.53Z" fill="white"/>
<path d="M181.787 302.135H104.219C104.005 302.13 103.802 302.042 103.652 301.889C103.502 301.736 103.418 301.531 103.418 301.317V277.53C103.418 277.318 103.503 277.114 103.653 276.964C103.803 276.814 104.007 276.729 104.219 276.729H181.787C182 276.729 182.203 276.814 182.354 276.964C182.504 277.114 182.588 277.318 182.588 277.53V301.317C182.588 301.531 182.504 301.736 182.355 301.889C182.205 302.042 182.001 302.13 181.787 302.135ZM105.126 300.463H181.058V278.348H105.126V300.463Z" fill="#003D31"/>
<path d="M179.724 260.308H64.492V277.939H179.724V260.308Z" fill="#003D31"/>
<path d="M179.724 278.722H64.492C64.2844 278.722 64.0853 278.64 63.9385 278.493C63.7917 278.346 63.7092 278.147 63.7092 277.939V260.308C63.7092 260.101 63.7917 259.902 63.9385 259.755C64.0853 259.608 64.2844 259.526 64.492 259.526H179.724C179.933 259.526 180.134 259.607 180.284 259.754C180.433 259.9 180.52 260.099 180.524 260.308V277.939C180.524 278.044 180.503 278.147 180.463 278.243C180.423 278.339 180.363 278.426 180.289 278.499C180.214 278.572 180.126 278.629 180.029 278.668C179.932 278.706 179.828 278.724 179.724 278.722ZM65.2748 277.156H178.941V261.145H65.2748V277.156Z" fill="#003D31"/>
<path d="M179.724 260.308H130.532V277.939H179.724V260.308Z" fill="white"/>
<path d="M179.724 278.758H130.532C130.315 278.758 130.107 278.671 129.953 278.518C129.8 278.364 129.713 278.156 129.713 277.939V260.308C129.718 260.093 129.806 259.887 129.958 259.735C130.111 259.582 130.316 259.495 130.532 259.49H179.724C179.941 259.49 180.149 259.576 180.302 259.73C180.456 259.883 180.542 260.091 180.542 260.308V277.939C180.544 278.047 180.525 278.155 180.485 278.255C180.444 278.356 180.384 278.447 180.308 278.523C180.231 278.6 180.14 278.66 180.04 278.7C179.939 278.74 179.832 278.76 179.724 278.758ZM131.35 277.139H178.923V261.127H131.35V277.139Z" fill="#003D31"/>
<path d="M163.463 243.176H48.2311V260.807H163.463V243.176Z" fill="#003D31"/>
<path d="M163.481 261.589H48.1955C47.9879 261.589 47.7888 261.507 47.642 261.36C47.4952 261.213 47.4127 261.014 47.4127 260.807V243.176C47.4127 242.968 47.4952 242.769 47.642 242.622C47.7888 242.476 47.9879 242.393 48.1955 242.393H163.481C163.688 242.393 163.887 242.476 164.034 242.622C164.181 242.769 164.263 242.968 164.263 243.176V260.807C164.263 261.014 164.181 261.213 164.034 261.36C163.887 261.507 163.688 261.589 163.481 261.589ZM49.0139 260.024H162.698V244.012H49.0139V260.024Z" fill="#003D31"/>
<path d="M163.463 243.176H114.271V260.807H163.463V243.176Z" fill="white"/>
<path d="M163.481 261.625H114.271C114.164 261.625 114.059 261.604 113.96 261.562C113.862 261.521 113.773 261.46 113.698 261.384C113.624 261.308 113.565 261.218 113.526 261.118C113.487 261.019 113.468 260.913 113.47 260.807V243.176C113.47 242.962 113.554 242.756 113.704 242.603C113.853 242.45 114.057 242.362 114.271 242.357H163.481C163.695 242.362 163.898 242.45 164.048 242.603C164.197 242.756 164.281 242.962 164.281 243.176V260.807C164.284 260.913 164.265 261.019 164.225 261.118C164.186 261.218 164.128 261.308 164.053 261.384C163.978 261.46 163.889 261.521 163.791 261.562C163.693 261.604 163.587 261.625 163.481 261.625ZM115.089 260.006H162.662V243.994H115.089V260.006Z" fill="#003D31"/>
<path d="M105.5 255.879C107.554 255.879 109.218 254.214 109.218 252.16C109.218 250.107 107.554 248.442 105.5 248.442C103.446 248.442 101.782 250.107 101.782 252.16C101.782 254.214 103.446 255.879 105.5 255.879Z" fill="white"/>
<path d="M105.5 256.697C104.603 256.697 103.726 256.431 102.98 255.932C102.234 255.434 101.652 254.725 101.309 253.896C100.965 253.067 100.875 252.155 101.051 251.275C101.226 250.395 101.658 249.587 102.292 248.952C102.927 248.318 103.735 247.886 104.615 247.711C105.495 247.536 106.407 247.626 107.236 247.969C108.065 248.312 108.774 248.894 109.272 249.64C109.771 250.386 110.037 251.263 110.037 252.16C110.037 253.363 109.559 254.517 108.708 255.368C107.857 256.219 106.703 256.697 105.5 256.697ZM105.5 249.26C104.926 249.26 104.366 249.43 103.889 249.749C103.412 250.068 103.04 250.521 102.821 251.05C102.601 251.58 102.544 252.163 102.656 252.726C102.768 253.288 103.044 253.805 103.449 254.211C103.855 254.616 104.372 254.893 104.934 255.004C105.497 255.116 106.08 255.059 106.61 254.839C107.14 254.62 107.593 254.248 107.911 253.771C108.23 253.294 108.4 252.734 108.4 252.16C108.395 251.393 108.088 250.658 107.545 250.115C107.003 249.572 106.268 249.265 105.5 249.26Z" fill="#003D31"/>
<path d="M75.7359 275.769C75.5202 275.764 75.3147 275.677 75.1622 275.524C75.0097 275.372 74.922 275.166 74.9175 274.95V263.102C74.9175 262.994 74.9387 262.888 74.9798 262.788C75.0209 262.689 75.0812 262.599 75.1572 262.523C75.2332 262.447 75.3234 262.387 75.4227 262.346C75.522 262.304 75.6284 262.283 75.7359 262.283C75.844 262.281 75.9515 262.3 76.0519 262.341C76.1523 262.381 76.2435 262.441 76.32 262.518C76.3964 262.594 76.4566 262.685 76.4969 262.786C76.5372 262.886 76.5567 262.994 76.5543 263.102V275.039C76.5322 275.241 76.4364 275.427 76.2852 275.561C76.1341 275.696 75.9384 275.77 75.7359 275.769Z" fill="white"/>
<path d="M91.1606 299.342C91.0531 299.342 90.9467 299.321 90.8474 299.279C90.7481 299.238 90.6579 299.178 90.5819 299.102C90.5059 299.026 90.4456 298.936 90.4045 298.837C90.3634 298.737 90.3422 298.631 90.3422 298.523V279.896C90.3714 279.698 90.471 279.516 90.6229 279.385C90.7748 279.254 90.9688 279.182 91.1695 279.182C91.3702 279.182 91.5642 279.254 91.716 279.385C91.8679 279.516 91.9676 279.698 91.9967 279.896V298.523C91.9968 298.632 91.975 298.74 91.9328 298.841C91.8906 298.941 91.8287 299.032 91.7508 299.108C91.6729 299.185 91.5806 299.245 91.4792 299.285C91.3779 299.325 91.2695 299.344 91.1606 299.342Z" fill="white"/>
<path d="M112.883 35.0935L119.092 30.2899L145.263 41.1957L198.44 23.2269L203.243 30.5746L147.611 62.4737L112.883 35.0935Z" fill="#E6E7E8"/>
<path d="M132.364 120.65L110.908 32.8162L145.103 47.5293L206.837 25.1661L222.724 113.872L165.847 133.477L132.364 120.65Z" fill="white"/>
<path d="M165.847 134.296C165.753 134.313 165.656 134.313 165.562 134.296L132.08 121.468C131.958 121.419 131.849 121.342 131.762 121.243C131.676 121.144 131.614 121.026 131.581 120.899L110.108 33.012C110.073 32.8669 110.08 32.7151 110.127 32.5737C110.174 32.4322 110.26 32.3068 110.375 32.2114C110.489 32.1092 110.631 32.043 110.783 32.0208C110.935 31.9987 111.09 32.0216 111.229 32.0869L145.031 46.6576L206.535 24.4012C206.641 24.353 206.756 24.3281 206.873 24.3281C206.989 24.3281 207.104 24.353 207.211 24.4012C207.314 24.4608 207.403 24.5429 207.471 24.6415C207.539 24.74 207.583 24.8524 207.602 24.9705L223.525 113.658C223.561 113.848 223.526 114.045 223.428 114.212C223.33 114.379 223.175 114.504 222.991 114.565L166.06 134.135L165.847 134.296ZM133.058 120.063L165.865 132.641L221.817 113.356L206.214 26.287L145.369 48.3122C145.18 48.3831 144.972 48.3831 144.782 48.3122L112.083 34.2573L133.058 120.063Z" fill="#003D31"/>
<path d="M160.883 129.67C160.695 129.666 160.514 129.599 160.369 129.48C160.223 129.36 160.123 129.195 160.083 129.012L144.266 47.6717C144.246 47.5676 144.246 47.4606 144.267 47.3566C144.288 47.2527 144.33 47.154 144.39 47.0663C144.449 46.9786 144.526 46.9036 144.614 46.8456C144.703 46.7877 144.803 46.7479 144.907 46.7288C145.011 46.7082 145.118 46.7084 145.222 46.7295C145.326 46.7507 145.425 46.7922 145.512 46.8518C145.6 46.9114 145.675 46.9878 145.733 47.0767C145.791 47.1655 145.831 47.2649 145.85 47.3692L161.648 128.691C161.669 128.795 161.668 128.903 161.647 129.006C161.626 129.11 161.585 129.209 161.525 129.297C161.465 129.385 161.389 129.46 161.3 129.518C161.211 129.575 161.112 129.615 161.008 129.634L160.883 129.67Z" fill="#003D31"/>
<path d="M183.602 149.24C183.602 149.24 177.34 139.384 178.265 136.786C178.985 134.214 179.473 131.582 179.724 128.923L173.034 130.524C173.034 130.524 166.131 113.267 165.438 107.271C164.744 101.276 151.863 106.809 151.401 111.416C150.938 116.024 150.707 127.998 154.389 134.9C158.072 141.803 168.426 158.367 168.426 158.367" fill="white"/>
<path d="M168.409 159.256C168.27 159.254 168.133 159.217 168.012 159.148C167.891 159.08 167.789 158.983 167.715 158.865C167.608 158.705 157.307 142.195 153.66 135.345C150.013 128.496 150.102 116.7 150.564 111.416C150.938 107.734 157.467 103.944 161.879 103.909C162.382 103.839 162.893 103.871 163.383 104.002C163.872 104.134 164.331 104.362 164.73 104.674C165.13 104.986 165.463 105.375 165.71 105.818C165.957 106.261 166.112 106.749 166.167 107.253C166.772 112.413 172.198 126.45 173.461 129.634L179.475 128.211C179.598 128.177 179.729 128.176 179.854 128.207C179.978 128.238 180.093 128.301 180.186 128.389C180.283 128.475 180.359 128.583 180.409 128.703C180.458 128.823 180.479 128.953 180.471 129.083C180.202 131.808 179.696 134.505 178.959 137.142C178.478 138.459 181.325 144.258 184.296 148.795C184.381 148.975 184.397 149.18 184.342 149.372C184.286 149.563 184.163 149.728 183.995 149.835C183.827 149.942 183.626 149.984 183.429 149.953C183.232 149.922 183.053 149.82 182.926 149.667C181.841 147.977 176.503 139.348 177.5 136.573C178.128 134.447 178.557 132.267 178.781 130.061L173.212 131.396C173.022 131.435 172.823 131.407 172.651 131.316C172.479 131.225 172.344 131.077 172.269 130.897C171.985 130.186 165.331 113.462 164.619 107.431C164.619 106.969 164.406 105.545 161.968 105.545C158.054 105.545 152.521 109.104 152.255 111.577C151.756 116.683 151.685 128.087 155.154 134.58C158.713 141.376 169.067 157.851 169.174 158.011C169.286 158.195 169.321 158.416 169.271 158.626C169.221 158.836 169.09 159.018 168.907 159.132C168.761 159.231 168.584 159.275 168.409 159.256Z" fill="#003D31"/>
<path d="M380.885 159.078C380.754 159.079 380.624 159.048 380.507 158.986C380.39 158.925 380.29 158.836 380.217 158.727C380.143 158.618 380.097 158.492 380.083 158.361C380.069 158.23 380.088 158.097 380.138 157.975C383.376 149.319 384.163 139.937 382.411 130.862C380.659 121.787 376.438 113.371 370.211 106.542C369.57 105.866 368.912 105.19 368.236 104.514C364.144 100.386 359.518 95.6181 359.803 89.676C359.896 88.4246 360.111 87.1853 360.444 85.9755C360.691 84.98 360.876 83.9698 360.995 82.951C361.582 76.4929 356.245 71.12 351.673 67.7576C350.57 66.9392 349.413 66.1564 348.275 65.3558C343.987 62.4025 339.557 59.3603 336.888 54.788C333.704 49.4507 333.33 43.1705 332.85 37.1572C332.459 31.82 332.067 26.1802 329.683 21.2522C327.447 16.5906 324.194 12.49 320.163 9.25242C316.132 6.01483 311.426 3.72267 306.391 2.54478C301.357 1.36688 296.123 1.33324 291.074 2.44634C286.025 3.55943 281.29 5.79091 277.218 8.97644C273.019 12.1314 269.714 16.3253 267.628 21.1454C265.673 26.64 264.668 32.4279 264.657 38.2603C264.035 50.4114 262.878 62.1357 256.225 72.063C254.146 74.968 251.869 77.7262 249.411 80.3179C244.856 85.3706 240.515 90.1385 239.181 96.3298C238.509 99.654 238.768 103.099 239.929 106.286C241.091 109.472 243.11 112.276 245.763 114.388C245.849 114.452 245.92 114.533 245.974 114.626C246.027 114.718 246.062 114.821 246.075 114.927C246.088 115.033 246.08 115.141 246.051 115.244C246.022 115.347 245.973 115.443 245.906 115.526C245.773 115.694 245.579 115.804 245.366 115.83C245.153 115.857 244.938 115.799 244.767 115.668C241.886 113.361 239.697 110.303 238.442 106.831C237.186 103.359 236.912 99.6088 237.651 95.9917C239.092 89.3024 243.753 84.143 248.325 79.1615C250.728 76.6207 252.951 73.9159 254.979 71.0667C261.455 61.5308 262.54 50.0556 263.127 38.1535C263.15 32.1302 264.203 26.1552 266.241 20.4872C268.414 15.4073 271.865 10.9761 276.257 7.62433C280.518 4.31001 285.466 1.99085 290.739 0.836754C296.012 -0.317337 301.476 -0.277121 306.732 0.954459C311.988 2.18604 316.901 4.57778 321.112 7.95446C325.324 11.3311 328.726 15.6072 331.071 20.4694C333.597 25.6643 334.006 31.4108 334.398 36.9615C334.825 43.046 335.234 48.7925 338.223 53.8807C340.713 58.1327 344.983 61.086 349.111 63.9325C350.285 64.7331 351.441 65.5337 352.562 66.3521C357.473 69.9103 363.237 75.7813 362.543 83.0044C362.425 84.1036 362.223 85.192 361.938 86.2601C361.642 87.3791 361.445 88.5222 361.351 89.676C361.102 95.0132 365.283 99.1941 369.321 103.286C369.997 103.98 370.673 104.656 371.314 105.332C377.852 112.348 382.288 121.06 384.116 130.474C385.943 139.889 385.089 149.627 381.65 158.58C381.587 158.73 381.48 158.857 381.344 158.946C381.208 159.035 381.048 159.081 380.885 159.078Z" fill="#003D31"/>
<path d="M254.57 108.623L221.088 181.975L188.495 145.486L161.328 158.295C161.328 158.295 221.319 248.833 237.829 240.596C254.339 232.359 278.001 159.274 278.001 159.274L254.57 108.623Z" fill="#FF7D7D"/>
<path d="M297.766 88.2349C297.766 88.2349 261.473 92.2201 252.933 109.78C244.394 127.339 246.333 208.768 246.333 208.768L380.245 223.126C380.245 223.126 376.847 156.178 370.531 126.468C364.215 96.7567 344.912 77.169 297.766 88.2349Z" fill="#FF7D7D"/>
<path d="M287.021 97.1126L300.506 169.753L319.151 90.1564L287.021 97.1126Z" fill="#003D31"/>
<path d="M300.506 170.589C300.329 170.578 300.16 170.509 300.025 170.394C299.891 170.278 299.797 170.122 299.759 169.949L286.238 97.2549C286.205 97.0552 286.25 96.8506 286.362 96.6823C286.474 96.514 286.646 96.3944 286.843 96.3475L318.991 89.3913C319.121 89.3682 319.254 89.3754 319.381 89.4124C319.507 89.4495 319.623 89.5153 319.72 89.6048C319.807 89.7032 319.869 89.8202 319.903 89.9467C319.937 90.0732 319.941 90.2058 319.916 90.3342L301.271 169.931C301.245 170.115 301.153 170.283 301.013 170.404C300.872 170.525 300.692 170.591 300.506 170.589ZM287.928 97.6463L300.595 165.857L318.101 91.1348L287.928 97.6463Z" fill="#003D31"/>
<path d="M287.145 75.9414L287.021 97.1125C287.021 97.1125 289.155 108.961 302.036 105.35C305.837 104.245 309.345 102.309 312.305 99.6808C315.265 97.053 317.604 93.7996 319.151 90.1563L317.692 53.4892C317.692 51.9414 311.376 46.0704 311.625 32.6027C307.089 32.5658 302.61 31.5831 298.474 29.7176C294.339 27.852 290.638 25.1445 287.608 21.7681C287.608 21.7681 282.27 29.8451 279.886 32.4426C278.01 34.359 276.384 36.505 275.047 38.8295C272.859 42.9037 272.948 47.9919 273.055 52.5107C273.102 57.8855 273.638 63.2448 274.656 68.5226C276.72 78.3965 287.145 75.9414 287.145 75.9414Z" fill="white"/>
<path d="M297.464 106.844C295.368 106.889 293.305 106.326 291.522 105.225C288.777 103.36 286.864 100.503 286.184 97.2548L286.291 76.902C283.486 77.3248 280.62 76.7856 278.161 75.372C277.008 74.5995 276.027 73.597 275.28 72.4275C274.533 71.258 274.036 69.9467 273.82 68.5759C272.791 63.2995 272.249 57.9397 272.201 52.5641C272.112 48.2053 271.987 42.7969 274.282 38.4737C275.66 36.0527 277.34 33.8169 279.282 31.8199C281.559 29.347 286.878 21.3589 286.932 21.2877C287 21.1795 287.095 21.0903 287.207 21.0281C287.318 20.966 287.444 20.9329 287.572 20.9319C287.699 20.9168 287.828 20.937 287.944 20.9904C288.06 21.0437 288.159 21.1282 288.23 21.2343C291.199 24.5096 294.809 27.1395 298.837 28.9606C302.864 30.7816 307.223 31.7549 311.643 31.8199C311.75 31.8193 311.856 31.8411 311.954 31.884C312.052 31.9269 312.14 31.9899 312.213 32.069C312.289 32.142 312.35 32.2306 312.389 32.3288C312.429 32.4269 312.448 32.5324 312.444 32.6383C312.17 39.1648 313.909 45.6177 317.425 51.123C317.953 51.8248 318.323 52.6318 318.511 53.4892C318.511 53.4892 318.51 54.3076 319.969 90.1563C319.986 90.2564 319.986 90.3586 319.969 90.4587C318.394 94.2343 315.988 97.606 312.929 100.323C309.87 103.04 306.238 105.032 302.303 106.15C300.73 106.606 299.101 106.84 297.464 106.844ZM287.821 97.1125C288.477 99.8403 290.102 102.237 292.393 103.855C293.823 104.64 295.405 105.11 297.031 105.233C298.657 105.355 300.291 105.128 301.823 104.567C305.467 103.492 308.832 101.634 311.684 99.1236C314.535 96.613 316.804 93.5102 318.333 90.0317C318.226 87.3275 316.892 53.8095 316.874 53.5248C316.647 52.9733 316.361 52.4482 316.02 51.9592C312.497 46.4203 310.684 39.9664 310.807 33.4033C302.05 33.1141 293.752 29.4182 287.679 23.1024C285.451 26.5112 283.046 29.8011 280.474 32.9585C278.655 34.8285 277.072 36.9136 275.759 39.1675C273.66 43.1171 273.766 48.063 273.873 52.4396C273.918 57.748 274.442 63.0415 275.439 68.2557C275.611 69.4049 276.015 70.5071 276.626 71.4951C277.238 72.483 278.045 73.336 278.997 74.0021C281.416 75.3113 284.223 75.715 286.914 75.1407C287.031 75.1122 287.154 75.1118 287.271 75.1396C287.389 75.1675 287.498 75.2227 287.59 75.3009C287.687 75.3772 287.767 75.4743 287.822 75.5851C287.877 75.6958 287.908 75.8175 287.91 75.9413L287.768 97.1125H287.821Z" fill="#003D31"/>
<path d="M287.27 86.3313C287.27 86.3313 295.863 86.7227 301.396 80.994C302.977 79.5357 304.223 77.7509 305.046 75.7633C305.87 73.7757 306.251 71.6329 306.164 69.4833C306.164 69.4833 296.877 75.7279 287.216 75.9414L287.27 86.3313Z" fill="#003D31"/>
<path d="M287.643 87.1319H287.234C287.034 87.1272 286.844 87.0446 286.705 86.9016C286.565 86.7586 286.487 86.5667 286.487 86.3669L286.362 75.9592C286.362 75.7546 286.442 75.5582 286.585 75.4118C286.728 75.2655 286.923 75.181 287.127 75.1764C296.432 74.9629 305.576 68.914 305.665 68.8606C305.779 68.795 305.908 68.7605 306.039 68.7605C306.17 68.7605 306.299 68.795 306.413 68.8606C306.535 68.9137 306.642 68.9972 306.722 69.103C306.803 69.2089 306.856 69.3336 306.875 69.4655C306.875 69.7146 307.676 75.6923 301.947 81.6167C298.063 85.2219 292.942 87.1964 287.643 87.1319ZM287.928 76.6886L288.035 85.5841C292.787 85.5099 297.344 83.6782 300.826 80.4425C303.412 77.9214 305.009 74.5572 305.327 70.9599C300.032 74.1542 294.085 76.1124 287.928 76.6886Z" fill="#003D31"/>
<path d="M289.529 44.8429C289.529 44.8429 282.715 54.9481 284.334 56.7272C285.953 58.5063 290.49 57.3321 290.49 57.3321" fill="white"/>
<path d="M287.483 58.5062C286.81 58.5617 286.133 58.4817 285.491 58.2709C284.849 58.06 284.256 57.7226 283.747 57.2787C281.968 55.3395 286.202 48.3832 288.871 44.3625C288.926 44.2724 288.999 44.1943 289.085 44.1331C289.171 44.0718 289.268 44.0286 289.371 44.006C289.475 43.9834 289.581 43.982 289.685 44.0017C289.789 44.0214 289.887 44.0619 289.975 44.1208C290.063 44.1796 290.138 44.2556 290.195 44.3441C290.253 44.4327 290.292 44.532 290.31 44.636C290.328 44.74 290.325 44.8466 290.301 44.9494C290.277 45.0523 290.232 45.1491 290.17 45.2342C286.807 50.2691 284.352 55.3928 284.921 56.2112C285.971 57.3676 289.227 56.8517 290.259 56.5848C290.454 56.5481 290.655 56.5869 290.823 56.6933C290.99 56.7997 291.111 56.9658 291.161 57.158C291.211 57.3501 291.186 57.554 291.091 57.7284C290.996 57.9027 290.838 58.0345 290.65 58.097C289.613 58.3536 288.551 58.4909 287.483 58.5062Z" fill="#003D31"/>
<path d="M282.27 62.4915C282.27 62.4915 288.373 71.5292 299.118 62.8295L282.27 62.4915Z" fill="white"/>
<path d="M290.152 67.4018C289.646 67.4021 289.14 67.3664 288.64 67.295C285.786 66.8239 283.231 65.2525 281.523 62.9185C281.408 62.7462 281.365 62.5351 281.405 62.3317C281.446 62.1282 281.565 61.9489 281.737 61.8332C281.821 61.7737 281.917 61.7319 282.018 61.7104C282.119 61.6888 282.224 61.688 282.325 61.708C282.426 61.7279 282.523 61.7682 282.608 61.8265C282.694 61.8847 282.766 61.9596 282.822 62.0467C284.296 63.9906 286.45 65.3059 288.853 65.7294C291.842 66.1742 295.115 64.9822 298.531 62.1712C298.612 62.1067 298.704 62.0588 298.803 62.0301C298.902 62.0014 299.006 61.9926 299.109 62.0042C299.211 62.0158 299.31 62.0475 299.401 62.0975C299.491 62.1476 299.57 62.2149 299.634 62.2958C299.702 62.3741 299.753 62.4654 299.785 62.5642C299.816 62.6629 299.827 62.767 299.817 62.8702C299.807 62.9733 299.777 63.0734 299.727 63.1643C299.677 63.2551 299.609 63.3349 299.528 63.3988C296.953 65.7669 293.643 67.1799 290.152 67.4018Z" fill="#003D31"/>
<path d="M262.238 207.808C262.029 207.794 261.833 207.698 261.693 207.542C261.554 207.386 261.481 207.181 261.491 206.971L266.543 122.927C266.545 122.824 266.568 122.723 266.611 122.629C266.654 122.536 266.716 122.452 266.793 122.384C266.87 122.315 266.96 122.263 267.058 122.231C267.156 122.199 267.259 122.188 267.362 122.198C267.467 122.2 267.571 122.223 267.666 122.267C267.762 122.311 267.847 122.374 267.918 122.453C267.988 122.531 268.041 122.623 268.074 122.723C268.107 122.823 268.119 122.929 268.109 123.034L263.056 207.06C263.052 207.163 263.027 207.264 262.983 207.357C262.94 207.451 262.878 207.534 262.802 207.604C262.726 207.673 262.637 207.727 262.54 207.762C262.443 207.797 262.341 207.812 262.238 207.808Z" fill="#003D31"/>
<path d="M358.504 217.699C359.127 219.478 379.249 277.655 356.174 298.434C331.569 320.566 207.122 308.913 207.122 308.913L193.529 266.98C192.017 252.089 191.252 241.593 220.358 238.871L261.099 230.527L262.238 207.025L358.504 217.699Z" fill="#003D31"/>
<path d="M275.19 312.756H272.361C238.558 312.614 207.3 309.714 206.997 309.696C206.842 309.682 206.696 309.621 206.575 309.523C206.455 309.425 206.366 309.293 206.321 309.144L192.747 267.229C191.928 259.419 191.181 252.196 195.522 246.912C199.472 242.091 207.335 239.297 220.234 238.016L260.299 229.815L261.402 206.9C261.408 206.793 261.437 206.689 261.486 206.594C261.535 206.499 261.603 206.416 261.686 206.349C261.765 206.277 261.858 206.224 261.96 206.193C262.061 206.162 262.169 206.155 262.273 206.171L358.54 216.845C358.689 216.862 358.831 216.921 358.948 217.015C359.064 217.11 359.151 217.236 359.198 217.379L358.451 217.628L359.234 217.504C361.333 223.713 379.088 278.74 356.654 298.932C346.567 308.13 319.133 312.756 275.19 312.756ZM207.709 308.166C216.444 308.949 332.37 318.84 355.658 297.847C377.007 278.633 360.426 225.954 357.917 218.411L262.985 207.95L261.9 230.615C261.888 230.79 261.818 230.957 261.703 231.088C261.587 231.22 261.431 231.31 261.259 231.345L220.518 239.689C207.976 240.863 200.45 243.496 196.785 247.962C192.853 252.73 193.565 259.65 194.312 266.962L207.709 308.166Z" fill="#003D31"/>
<path d="M227.777 271.019C227.777 271.019 221.319 239.902 197.835 246.948C174.351 253.993 226.603 369.705 226.603 377.301C226.603 384.898 206.641 407.831 206.641 407.831C212.343 407.525 218.026 406.932 223.667 406.052C229.841 404.877 246.795 380.219 247.454 377.586C248.112 374.953 235.712 293.346 227.777 271.019Z" fill="white"/>
<path d="M206.641 408.649C206.489 408.648 206.339 408.603 206.211 408.522C206.082 408.44 205.978 408.324 205.912 408.186C205.844 408.042 205.819 407.881 205.841 407.723C205.863 407.565 205.931 407.417 206.036 407.297C211.534 400.981 225.802 383.315 225.802 377.301C225.802 375.522 222.404 366.538 218.099 355.116C205.645 322.025 184.758 266.624 192.729 250.506C193.19 249.48 193.862 248.563 194.703 247.815C195.543 247.066 196.531 246.504 197.604 246.165C200.311 245.227 203.188 244.883 206.04 245.156C208.892 245.43 211.651 246.314 214.131 247.748C224.806 254.099 228.364 269.577 228.56 270.876C236.174 292.35 249.019 374.384 248.254 377.835C247.703 380.308 230.463 405.66 223.827 406.941C218.15 407.825 212.432 408.419 206.695 408.72L206.641 408.649ZM204.471 246.752C202.298 246.765 200.14 247.101 198.066 247.748C197.202 248.028 196.409 248.491 195.74 249.105C195.071 249.719 194.541 250.47 194.188 251.306C186.52 266.784 208.047 323.929 219.629 354.618C224.752 368.228 227.421 375.416 227.421 377.373C227.421 384.151 212.957 401.728 208.509 406.977C211.907 406.745 219.024 406.194 223.525 405.34C229.2 404.255 246.102 380.006 246.653 377.479C247.205 374.953 235.071 294.022 227.083 271.374C227.083 271.374 227.083 271.374 227.083 271.268C227.083 271.161 223.649 255.256 213.384 249.207C210.7 247.572 207.614 246.716 204.471 246.734V246.752Z" fill="#003D31"/>
<path d="M205.467 405.874C203.829 406.045 202.263 406.641 200.925 407.602C199.586 408.563 198.521 409.856 197.835 411.353C195.682 416.441 204.951 419.377 213.491 419.768C220.962 420.056 228.43 419.131 235.605 417.029C238.473 415.622 241.008 413.621 243.042 411.158C243.042 411.158 243.041 417.42 245.194 417.224C248.276 417.069 251.347 416.743 254.392 416.246C255.175 415.854 251.848 391.588 247.454 377.586C247.454 377.586 229.663 402.742 224.059 403.917C218.454 405.091 205.467 405.874 205.467 405.874Z" fill="#003D31"/>
<path d="M215.982 420.605C215.145 420.605 214.291 420.605 213.455 420.605C207.495 420.338 199.703 418.719 197.443 415.072C197.068 414.486 196.847 413.816 196.801 413.122C196.754 412.429 196.883 411.735 197.177 411.104C197.909 409.467 199.062 408.054 200.519 407.007C201.975 405.96 203.682 405.318 205.467 405.144C205.592 405.144 218.383 404.344 223.934 403.205C228.346 402.28 241.974 384.115 246.849 377.195C246.93 377.072 247.047 376.976 247.183 376.919C247.319 376.862 247.469 376.846 247.614 376.875C247.757 376.895 247.892 376.956 248.003 377.051C248.113 377.145 248.194 377.269 248.236 377.408C250.547 385.442 252.353 393.612 253.645 401.871C255.993 416.299 255.21 416.691 254.748 416.922C252.283 417.482 249.767 417.786 247.24 417.829L245.265 417.989C245.009 418.013 244.751 417.981 244.508 417.895C244.265 417.809 244.044 417.671 243.86 417.491C242.905 416.21 242.382 414.659 242.365 413.061C240.548 415.046 238.345 416.639 235.89 417.74C229.428 419.657 222.721 420.622 215.982 420.605ZM205.52 406.657C204.025 406.809 202.596 407.35 201.375 408.228C200.154 409.105 199.185 410.287 198.564 411.656C198.368 412.054 198.28 412.497 198.308 412.94C198.336 413.383 198.48 413.812 198.724 414.182C200.308 416.691 206.392 418.665 213.526 418.986C220.895 419.271 228.262 418.358 235.338 416.281C238.079 414.929 240.504 413.013 242.454 410.659C242.557 410.535 242.695 410.445 242.851 410.402C243.007 410.359 243.172 410.365 243.324 410.42C243.476 410.474 243.607 410.574 243.7 410.706C243.793 410.839 243.842 410.996 243.842 411.158C243.842 412.937 244.18 415.677 244.927 416.353C244.955 416.382 244.988 416.404 245.025 416.42C245.061 416.435 245.101 416.442 245.141 416.442L247.133 416.281C248.913 416.139 252.56 415.854 253.752 415.623C253.894 412.456 251.03 392.406 247.187 379.347C243.202 384.898 229.396 403.596 224.237 404.682C218.035 405.653 211.788 406.312 205.52 406.657Z" fill="#003D31"/>
<path d="M281.808 377.693C281.808 377.693 271.614 277.085 266.917 258.298C262.22 239.511 235.213 233.64 226.994 256.341C218.775 279.042 259.48 368.299 256.349 377.693C253.218 387.086 241.476 405.429 241.476 405.429C241.476 405.429 253.93 411.691 263.003 405.429C272.076 399.166 281.808 377.693 281.808 377.693Z" fill="white"/>
<path d="M253.396 409.094C249.148 408.995 244.968 408.013 241.12 406.212C241.018 406.158 240.928 406.085 240.855 405.996C240.782 405.908 240.727 405.806 240.693 405.696C240.64 405.471 240.678 405.234 240.8 405.037C240.907 404.86 252.524 386.624 255.584 377.426C256.705 374.063 250.994 357.376 244.91 339.727C234.235 308.771 221.07 270.343 226.211 256.11C229.769 246.094 237.615 240.383 246.991 240.881C251.828 241.186 256.442 243.023 260.165 246.126C263.888 249.229 266.527 253.436 267.7 258.138C272.361 276.765 282.484 376.643 282.591 377.639C282.625 377.78 282.625 377.926 282.591 378.066C282.181 378.956 272.61 399.86 263.519 406.176C260.532 408.181 256.992 409.201 253.396 409.094ZM242.721 405.126C245.603 406.336 255.388 409.823 262.594 404.806C270.866 399.06 280.011 379.721 281.025 377.551C280.491 372.213 270.706 276.587 266.187 258.494C265.098 254.132 262.649 250.229 259.195 247.351C255.741 244.472 251.46 242.767 246.973 242.482C238.398 242.019 231.193 247.339 227.812 256.715C222.867 270.36 236.53 310.194 246.511 339.282C254.161 361.539 258.413 374.33 257.185 378.031C254.339 386.321 244.981 401.444 242.668 405.126H242.721Z" fill="#003D31"/>
<path d="M241.476 405.429C237.906 407.093 234.66 409.376 231.887 412.172C228.666 415.997 225.731 417.758 230.107 420.693C234.484 423.629 262.131 421.565 265.921 420.391C269.71 419.217 276.204 410.126 276.204 410.126C276.204 410.126 275.901 420.391 277.075 420.693C279.681 420.586 282.272 420.241 284.815 419.662C285.697 405.633 284.71 391.55 281.879 377.782C281.879 377.782 272.361 399.309 260.37 403.65C248.379 407.991 241.476 405.429 241.476 405.429Z" fill="#003D31"/>
<path d="M242.668 423.024C236.708 423.024 231.513 422.597 229.698 421.405C229.063 421.087 228.505 420.634 228.062 420.077C227.62 419.521 227.304 418.876 227.136 418.185C226.941 416.548 228.204 415.143 229.823 413.381L231.299 411.727C234.132 408.825 237.473 406.468 241.156 404.771C241.35 404.691 241.567 404.691 241.761 404.771C241.761 404.771 248.539 407.226 260.103 402.991C271.667 398.757 280.989 377.604 281.078 377.39C281.148 377.24 281.262 377.115 281.405 377.032C281.549 376.949 281.714 376.913 281.879 376.928C282.045 376.946 282.201 377.016 282.326 377.128C282.45 377.239 282.537 377.387 282.573 377.55C285.398 391.397 286.385 405.557 285.508 419.662C285.499 419.828 285.435 419.987 285.325 420.113C285.216 420.238 285.067 420.324 284.903 420.355C282.293 421.046 279.614 421.44 276.915 421.53C276.382 421.387 275.314 421.12 275.385 412.634C273.215 415.445 269.087 420.338 266.17 421.245C258.401 422.505 250.538 423.1 242.668 423.024ZM241.529 406.318C238.162 407.91 235.102 410.085 232.491 412.741C231.976 413.346 231.46 413.915 230.997 414.431C229.645 415.908 228.578 417.064 228.702 417.989C228.702 418.612 229.378 419.306 230.481 420.089C234.431 422.722 261.348 421.014 265.618 419.697C268.554 418.808 273.731 412.189 275.492 409.716C275.589 409.578 275.728 409.475 275.889 409.422C276.05 409.369 276.223 409.37 276.383 409.424C276.544 409.478 276.682 409.583 276.778 409.722C276.874 409.861 276.922 410.028 276.915 410.197C276.709 413.472 276.87 416.76 277.396 420C279.59 419.807 281.766 419.45 283.907 418.932C284.643 405.968 283.801 392.962 281.399 380.201C278.641 385.894 270.582 400.785 260.548 404.45C249.802 408.418 243.077 406.799 241.529 406.318Z" fill="#003D31"/>
<path d="M363.771 260.504C364.998 262.283 368.912 300.765 368.912 300.765C368.912 300.765 412.535 304.715 413.158 301.655C413.781 298.594 390.919 290.82 390.919 290.82L383.803 260.308" fill="white"/>
<path d="M404.352 303.629C401.078 303.629 396.684 303.505 390.759 303.167C379.889 302.58 368.948 301.601 368.841 301.583C368.651 301.568 368.472 301.486 368.336 301.353C368.199 301.22 368.114 301.043 368.094 300.854C366.617 286.319 363.948 262.603 363.077 260.931C363.017 260.843 362.976 260.743 362.955 260.639C362.935 260.534 362.935 260.426 362.957 260.322C362.978 260.218 363.02 260.119 363.081 260.031C363.141 259.943 363.218 259.868 363.308 259.81C363.493 259.695 363.715 259.657 363.928 259.704C364.14 259.75 364.327 259.878 364.447 260.059C365.656 261.838 368.645 290.304 369.642 300.018C389.051 301.797 409.831 302.704 412.34 301.37C411.575 299.591 400.651 294.965 390.67 291.585C390.542 291.544 390.426 291.47 390.336 291.37C390.245 291.27 390.183 291.147 390.154 291.016L383.038 260.486C382.99 260.276 383.026 260.056 383.14 259.873C383.253 259.69 383.434 259.559 383.643 259.508C383.855 259.465 384.075 259.506 384.258 259.622C384.44 259.738 384.571 259.92 384.622 260.131L391.738 290.197C400.633 293.204 414.724 298.577 414.083 301.797C413.799 302.58 413.585 303.629 404.352 303.629Z" fill="#003D31"/>
<path d="M369.303 124.333L399.068 269.417L358.024 270.485C358.024 270.485 343.791 193.664 342.92 182.135C342.048 170.607 369.303 124.333 369.303 124.333Z" fill="#FF7D7D"/>
<path d="M278.321 52.1906C283.44 52.1906 287.59 48.0407 287.59 42.9215C287.59 37.8024 283.44 33.6525 278.321 33.6525C273.202 33.6525 269.052 37.8024 269.052 42.9215C269.052 48.0407 273.202 52.1906 278.321 52.1906Z" fill="white"/>
<path d="M278.339 53.0089H277.929C275.939 52.9336 274.016 52.2697 272.403 51.1012C270.79 49.9328 269.56 48.3122 268.868 46.4445C268.176 44.5768 268.053 42.5459 268.516 40.6086C268.978 38.6713 270.005 36.9146 271.466 35.5608C272.927 34.207 274.756 33.3167 276.723 33.0028C278.69 32.6888 280.706 32.9651 282.515 33.7968C284.325 34.6285 285.848 35.9782 286.89 37.6753C287.933 39.3723 288.449 41.3404 288.373 43.3307H287.554H288.373C288.267 45.9283 287.163 48.385 285.29 50.1882C283.417 51.9914 280.921 53.0019 278.321 53.0089H278.339ZM278.339 34.4708C275.924 34.5154 273.624 35.5117 271.94 37.2431C270.256 38.9745 269.323 41.3008 269.346 43.7161C269.368 46.1313 270.343 48.4401 272.059 50.1401C273.775 51.8401 276.092 52.7939 278.508 52.7939C280.923 52.7939 283.241 51.8401 284.956 50.1401C286.672 48.4401 287.647 46.1313 287.67 43.7161C287.692 41.3008 286.76 38.9745 285.075 37.2431C283.391 35.5117 281.092 34.5154 278.677 34.4708H278.339Z" fill="#003D31"/>
<path d="M298.745 53.0089C303.864 53.0089 308.014 48.859 308.014 43.7399C308.014 38.6207 303.864 34.4708 298.745 34.4708C293.626 34.4708 289.476 38.6207 289.476 43.7399C289.476 48.859 293.626 53.0089 298.745 53.0089Z" fill="white"/>
<path d="M298.745 53.8095H298.336C296.35 53.7146 294.436 53.036 292.834 51.8587C291.232 50.6814 290.013 49.0577 289.329 47.1909C288.646 45.324 288.528 43.297 288.99 41.3635C289.453 39.43 290.476 37.676 291.931 36.321C293.397 34.969 295.23 34.0817 297.2 33.7713C299.17 33.4609 301.188 33.7413 302.998 34.5771C304.809 35.4128 306.331 36.7665 307.372 38.467C308.414 40.1676 308.928 42.1386 308.85 44.1312C308.749 46.7335 307.643 49.1953 305.766 50.9999C303.888 52.8044 301.385 53.8115 298.78 53.8095H298.745ZM298.745 35.2714C297.635 35.2503 296.532 35.4481 295.499 35.8534C294.465 36.2586 293.522 36.8634 292.722 37.6333C291.108 39.1881 290.176 41.3207 290.134 43.5619C290.092 45.8032 290.941 47.9695 292.496 49.5844C294.051 51.1992 296.183 52.1303 298.425 52.1727C299.535 52.2277 300.645 52.0575 301.687 51.6722C302.73 51.287 303.684 50.6947 304.491 49.9311C305.308 49.1803 305.968 48.2747 306.432 47.2668C306.896 46.259 307.156 45.169 307.195 44.0601C307.263 41.8292 306.443 39.6628 304.915 38.0354C303.388 36.408 301.278 35.4524 299.047 35.3781L298.745 35.2714Z" fill="#003D31"/>
<path d="M233.399 196.297C233.287 196.298 233.177 196.274 233.076 196.228C232.974 196.182 232.884 196.115 232.812 196.03L193.209 150.379C193.14 150.3 193.087 150.208 193.054 150.108C193.021 150.009 193.008 149.904 193.016 149.799C193.025 149.695 193.054 149.593 193.102 149.5C193.151 149.407 193.217 149.324 193.298 149.258C193.37 149.183 193.455 149.124 193.55 149.084C193.645 149.044 193.747 149.023 193.85 149.023C193.953 149.023 194.055 149.044 194.149 149.084C194.244 149.124 194.33 149.183 194.401 149.258L234.004 194.909C234.073 194.986 234.125 195.077 234.158 195.175C234.191 195.273 234.203 195.377 234.195 195.48C234.187 195.583 234.158 195.683 234.11 195.775C234.061 195.866 233.995 195.947 233.915 196.012C233.853 196.093 233.776 196.16 233.687 196.209C233.598 196.258 233.5 196.288 233.399 196.297Z" fill="#003D31"/>
<path d="M160.047 61.6374L197.604 47.2268L200.984 64.4484L163.143 76.5996L160.047 61.6374Z" fill="#E6E7E8"/>
<path d="M279.136 41.9342C279.183 40.7266 278.697 39.727 278.049 39.7015C277.401 39.676 276.837 40.6344 276.789 41.842C276.742 43.0496 277.229 44.0492 277.877 44.0747C278.525 44.1001 279.089 43.1418 279.136 41.9342Z" fill="#003D31"/>
<path d="M300.059 43.1912C300.106 41.9836 299.619 40.984 298.971 40.9585C298.323 40.9331 297.76 41.8914 297.712 43.099C297.665 44.3067 298.152 45.3063 298.8 45.3317C299.448 45.3572 300.011 44.3989 300.059 43.1912Z" fill="#003D31"/>
<path d="M326.499 51.2298C326.296 51.2261 326.103 51.1478 325.955 51.0098C325.807 50.8718 325.716 50.684 325.698 50.4826C325.289 45.6079 312.853 45.4655 308.085 45.8213C307.978 45.8311 307.871 45.8193 307.769 45.7868C307.667 45.7542 307.573 45.7016 307.491 45.6319C307.41 45.5623 307.343 45.477 307.296 45.3812C307.248 45.2854 307.22 45.181 307.213 45.0741C307.216 44.8747 307.292 44.6833 307.427 44.5359C307.561 44.3885 307.744 44.2952 307.943 44.2735C309.864 44.1312 326.676 43.0638 327.299 50.4114C327.309 50.5189 327.297 50.6274 327.265 50.7304C327.233 50.8334 327.18 50.9291 327.111 51.0117C327.041 51.0944 326.956 51.1626 326.86 51.2122C326.764 51.2618 326.66 51.292 326.552 51.3009L326.499 51.2298Z" fill="#003D31"/>
<path d="M310.131 51.6746C310.462 50.1029 311.292 48.6801 312.497 47.6183C313.666 46.6913 314.983 45.9694 316.393 45.4833C317.137 45.1483 317.943 44.9726 318.76 44.9674C319.334 45.0392 319.89 45.2204 320.396 45.5011C321.639 46.0603 322.642 47.0443 323.225 48.2765C323.572 49.3127 323.664 50.4175 323.492 51.4967C323.396 52.6808 323.145 53.8472 322.745 54.9659C322.326 56.0812 321.689 57.1011 320.869 57.9652C320.049 58.8293 319.064 59.5199 317.972 59.9961C316.88 60.4723 315.704 60.7244 314.513 60.7374C313.322 60.7504 312.14 60.5241 311.038 60.0719" fill="white"/>
<path d="M314.365 61.424C313.146 61.4197 311.939 61.1843 310.807 60.7301C310.715 60.6992 310.63 60.6498 310.558 60.5849C310.486 60.52 310.427 60.441 310.387 60.3527C310.346 60.2645 310.324 60.1689 310.322 60.0718C310.32 59.9747 310.338 59.8781 310.374 59.7881C310.411 59.6981 310.465 59.6165 310.534 59.5484C310.603 59.4802 310.686 59.427 310.776 59.3919C310.867 59.3568 310.964 59.3406 311.061 59.3444C311.158 59.3481 311.253 59.3717 311.341 59.4136C312.359 59.8298 313.45 60.0382 314.551 60.0266C315.651 60.015 316.737 59.7836 317.747 59.346C318.756 58.9084 319.668 58.2735 320.429 57.4785C321.189 56.6836 321.783 55.7446 322.175 54.7168C322.556 53.6565 322.789 52.5491 322.869 51.4255C323.033 50.4558 322.96 49.4609 322.656 48.5256C322.132 47.4625 321.25 46.6183 320.165 46.1416C319.743 45.9001 319.277 45.743 318.795 45.679C318.088 45.6829 317.39 45.8407 316.749 46.1416C315.414 46.605 314.164 47.2842 313.049 48.152C311.96 49.1113 311.211 50.3969 310.914 51.8169C310.871 51.9982 310.761 52.1563 310.605 52.2589C310.45 52.3614 310.261 52.4006 310.078 52.3684C309.894 52.3298 309.733 52.2204 309.63 52.0638C309.527 51.9072 309.489 51.7162 309.526 51.5322C309.887 49.8073 310.799 48.2464 312.124 47.0845C313.349 46.1034 314.733 45.3392 316.215 44.8251C317.062 44.4353 317.988 44.2465 318.92 44.2735C319.583 44.345 320.225 44.5508 320.806 44.8784C322.201 45.5052 323.32 46.6182 323.955 48.0096C324.352 49.1517 324.456 50.3751 324.257 51.5678C324.165 52.8195 323.901 54.0526 323.474 55.2327C322.519 57.6183 320.667 59.5345 318.315 60.57C317.073 61.1284 315.727 61.4193 314.365 61.424Z" fill="#003D31"/>
<path d="M357.437 267.798C357.246 267.797 357.061 267.729 356.914 267.605C356.768 267.482 356.67 267.311 356.636 267.122L332.476 119.618C332.459 119.514 332.461 119.408 332.485 119.305C332.508 119.202 332.552 119.105 332.613 119.019C332.674 118.933 332.752 118.86 332.841 118.804C332.931 118.748 333.031 118.71 333.135 118.693C333.24 118.672 333.348 118.673 333.453 118.696C333.558 118.718 333.658 118.761 333.745 118.822C333.833 118.884 333.908 118.962 333.965 119.053C334.022 119.144 334.06 119.245 334.078 119.351L358.238 266.855C358.255 266.961 358.252 267.069 358.227 267.172C358.203 267.276 358.157 267.374 358.094 267.46C358.031 267.547 357.952 267.619 357.86 267.674C357.769 267.729 357.667 267.766 357.562 267.781L357.437 267.798Z" fill="#003D31"/>
<path d="M284.477 232.412C284.359 232.436 284.238 232.436 284.121 232.412C274.816 228.249 261.455 231.434 261.313 231.452C261.201 231.481 261.084 231.487 260.969 231.471C260.854 231.454 260.744 231.415 260.645 231.356C260.545 231.296 260.459 231.217 260.39 231.124C260.322 231.03 260.272 230.924 260.245 230.811C260.216 230.697 260.21 230.577 260.228 230.461C260.245 230.344 260.286 230.232 260.347 230.13C260.408 230.029 260.489 229.942 260.584 229.872C260.68 229.803 260.789 229.753 260.904 229.726C261.473 229.584 274.994 226.363 284.85 230.793C285.065 230.89 285.232 231.069 285.315 231.289C285.398 231.509 285.391 231.753 285.295 231.968C285.211 232.109 285.091 232.225 284.947 232.303C284.803 232.381 284.64 232.419 284.477 232.412Z" fill="white"/>
<path d="M335.91 203.627C335.764 203.629 335.621 203.586 335.501 203.502L315.468 191.814C315.284 191.706 315.149 191.53 315.092 191.324C315.036 191.118 315.062 190.897 315.166 190.71C315.277 190.525 315.456 190.389 315.665 190.333C315.874 190.277 316.097 190.304 316.287 190.408L336.408 202.097C336.594 202.208 336.729 202.387 336.786 202.596C336.842 202.805 336.815 203.028 336.711 203.217C336.628 203.353 336.51 203.464 336.368 203.536C336.227 203.608 336.068 203.64 335.91 203.627Z" fill="#003D31"/>
<path d="M270.795 196.599C270.672 196.603 270.55 196.577 270.439 196.525C270.328 196.472 270.23 196.394 270.155 196.297C270.087 196.214 270.036 196.119 270.006 196.017C269.975 195.915 269.966 195.807 269.977 195.701C269.989 195.595 270.022 195.493 270.073 195.399C270.125 195.306 270.195 195.224 270.279 195.158L282.306 185.48C282.386 185.394 282.484 185.327 282.592 185.282C282.701 185.237 282.818 185.216 282.935 185.22C283.052 185.225 283.167 185.254 283.272 185.307C283.377 185.36 283.469 185.434 283.543 185.526C283.616 185.617 283.669 185.724 283.698 185.837C283.727 185.951 283.731 186.07 283.71 186.185C283.688 186.301 283.643 186.41 283.576 186.507C283.508 186.603 283.421 186.684 283.32 186.743L271.293 196.421C271.155 196.539 270.977 196.603 270.795 196.599Z" fill="#003D31"/>
<path d="M124.163 360.525C127.965 357.119 132.267 354.317 136.919 352.216C137.31 365.862 131.777 378.405 126.653 386.998H110.019" fill="white"/>
<path d="M126.653 387.923H110.019C109.897 387.923 109.777 387.899 109.665 387.852C109.553 387.806 109.451 387.738 109.365 387.652C109.279 387.566 109.211 387.464 109.164 387.352C109.118 387.239 109.094 387.119 109.094 386.997C109.094 386.876 109.118 386.756 109.164 386.643C109.211 386.531 109.279 386.429 109.365 386.343C109.451 386.257 109.553 386.189 109.665 386.143C109.777 386.096 109.897 386.072 110.019 386.072H126.137C130.745 378.227 136.011 366.502 136.029 353.64C131.958 355.659 128.171 358.207 124.768 361.218C124.597 361.388 124.367 361.483 124.127 361.483C123.887 361.483 123.657 361.388 123.487 361.218C123.316 361.045 123.22 360.812 123.22 360.569C123.22 360.326 123.316 360.093 123.487 359.92C127.358 356.429 131.752 353.565 136.51 351.433C136.647 351.38 136.794 351.359 136.941 351.374C137.087 351.388 137.228 351.438 137.352 351.518C137.475 351.598 137.578 351.706 137.651 351.834C137.724 351.962 137.766 352.105 137.773 352.252C138.164 366.324 132.329 379.205 127.365 387.531C127.285 387.647 127.179 387.743 127.055 387.811C126.932 387.879 126.794 387.917 126.653 387.923Z" fill="#003D31"/>
<path d="M100.323 364.207C104.415 342.858 121.12 329.444 121.12 329.444C124.238 339.489 125.274 350.065 124.163 360.525C123.296 369.544 121.367 378.43 118.416 386.997H100.501" fill="white"/>
<path d="M118.416 387.923H100.501C100.38 387.923 100.261 387.899 100.149 387.852C100.038 387.805 99.9373 387.737 99.8528 387.651C99.7684 387.564 99.7019 387.462 99.6573 387.35C99.6128 387.238 99.5911 387.118 99.5935 386.997C99.5934 386.755 99.6884 386.522 99.8581 386.349C100.028 386.177 100.259 386.077 100.501 386.072H117.758C120.565 377.771 122.41 369.175 123.255 360.453C124.298 350.582 123.422 340.602 120.676 331.063C117.011 334.372 104.664 346.683 101.212 364.367C101.197 364.491 101.157 364.609 101.094 364.716C101.031 364.823 100.947 364.916 100.846 364.989C100.746 365.062 100.632 365.114 100.511 365.141C100.39 365.168 100.265 365.17 100.143 365.147C100.021 365.124 99.9049 365.076 99.8023 365.006C99.6996 364.937 99.6124 364.847 99.5459 364.742C99.4794 364.637 99.4351 364.52 99.4158 364.397C99.3964 364.275 99.4024 364.15 99.4333 364.029C103.543 342.68 120.409 328.875 120.569 328.732C120.684 328.638 120.821 328.574 120.967 328.546C121.113 328.518 121.263 328.527 121.405 328.572C121.546 328.614 121.675 328.689 121.78 328.791C121.885 328.893 121.964 329.02 122.01 329.159C125.18 339.322 126.233 350.027 125.106 360.614C124.227 369.708 122.275 378.665 119.288 387.3C119.23 387.484 119.114 387.645 118.956 387.757C118.799 387.87 118.609 387.928 118.416 387.923Z" fill="#003D31"/>
<path d="M91.4808 386.998H107.333C107.475 382.301 106.407 375.202 101.319 365.986C100.981 365.364 100.643 364.777 100.305 364.207C91.125 348.658 82.7277 348.836 82.7277 348.836C79.1873 365.186 86.6773 379.774 91.4808 386.998Z" fill="white"/>
<path d="M107.333 387.923H91.4808C91.3293 387.924 91.1799 387.887 91.0463 387.815C90.9126 387.744 90.799 387.64 90.7158 387.513C85.8411 380.166 78.2622 365.346 81.8204 348.64C81.8577 348.436 81.9653 348.251 82.1246 348.118C82.2838 347.985 82.4845 347.912 82.6921 347.911C83.1013 347.911 91.7299 347.911 101.088 363.745C101.426 364.332 101.764 364.919 102.102 365.524C107.439 375.167 108.364 382.532 108.222 387.015C108.218 387.252 108.123 387.477 107.958 387.646C107.792 387.815 107.569 387.914 107.333 387.923ZM91.979 386.144H106.425C106.425 381.82 105.304 375.131 100.519 366.574L99.5223 364.794C92.2458 352.483 85.592 350.33 83.5105 349.957C80.4505 365.239 87.3355 378.974 91.979 386.09V386.144Z" fill="#003D31"/>
<path d="M94.3629 412.136H125.444L130.461 387.015H89.3637L94.3629 412.136Z" fill="#003D31"/>
</svg>
